<svg width="193" height="18" viewBox="0 0 193 18" fill="none" xmlns="http://www.w3.org/2000/svg">
<path d="M6.624 17.28C5.312 17.28 4.056 17.096 2.856 16.728C1.656 16.344 0.704 15.856 0 15.264L1.08 12.84C1.752 13.368 2.584 13.808 3.576 14.16C4.568 14.512 5.584 14.688 6.624 14.688C7.504 14.688 8.216 14.592 8.76 14.4C9.304 14.208 9.704 13.952 9.96 13.632C10.216 13.296 10.344 12.92 10.344 12.504C10.344 11.992 10.16 11.584 9.792 11.28C9.424 10.96 8.944 10.712 8.352 10.536C7.776 10.344 7.128 10.168 6.408 10.008C5.704 9.848 4.992 9.664 4.272 9.456C3.568 9.232 2.92 8.952 2.328 8.616C1.752 8.264 1.28 7.8 0.912 7.224C0.544 6.648 0.36 5.912 0.36 5.016C0.36 4.104 0.6 3.272 1.08 2.52C1.576 1.752 2.32 1.144 3.312 0.696C4.32 0.232 5.592 0 7.128 0C8.136 0 9.136 0.128 10.128 0.384001C11.12 0.64 11.984 1.008 12.72 1.488L11.736 3.912C10.984 3.464 10.208 3.136 9.408 2.928C8.608 2.704 7.84 2.592 7.104 2.592C6.24 2.592 5.536 2.696 4.992 2.904C4.464 3.112 4.072 3.384 3.816 3.72C3.576 4.056 3.456 4.44 3.456 4.872C3.456 5.384 3.632 5.8 3.984 6.12C4.352 6.424 4.824 6.664 5.4 6.84C5.992 7.016 6.648 7.192 7.368 7.368C8.088 7.528 8.8 7.712 9.504 7.92C10.224 8.128 10.872 8.4 11.448 8.736C12.04 9.072 12.512 9.528 12.864 10.104C13.232 10.68 13.416 11.408 13.416 12.288C13.416 13.184 13.168 14.016 12.672 14.784C12.192 15.536 11.448 16.144 10.44 16.608C9.432 17.056 8.16 17.28 6.624 17.28Z" fill="white" fill-opacity="0.7"/>
<path d="M15.5498 17.04V0.24H18.1178L25.4618 12.504H24.1178L31.3418 0.24H33.9098L33.9338 17.04H30.9818L30.9578 4.872H31.5818L25.4378 15.12H24.0458L17.8058 4.872H18.5258V17.04H15.5498Z" fill="white" fill-opacity="0.7"/>
<path d="M35.1356 17.04L42.6956 0.24H45.7676L53.3516 17.04H50.0876L43.5836 1.896H44.8316L38.3516 17.04H35.1356ZM38.6156 13.152L39.4556 10.704H48.5276L49.3676 13.152H38.6156Z" fill="white" fill-opacity="0.7"/>
<path d="M54.5282 17.04V0.24H61.4402C62.9282 0.24 64.2002 0.48 65.2562 0.960001C66.3282 1.44 67.1522 2.128 67.7282 3.024C68.3042 3.92 68.5922 4.984 68.5922 6.216C68.5922 7.448 68.3042 8.512 67.7282 9.408C67.1522 10.288 66.3282 10.968 65.2562 11.448C64.2002 11.912 62.9282 12.144 61.4402 12.144H56.2562L57.6482 10.728V17.04H54.5282ZM65.5202 17.04L61.2722 10.944H64.6082L68.8802 17.04H65.5202ZM57.6482 11.064L56.2562 9.576H61.2962C62.6722 9.576 63.7042 9.28 64.3922 8.688C65.0962 8.096 65.4482 7.272 65.4482 6.216C65.4482 5.144 65.0962 4.32 64.3922 3.744C63.7042 3.168 62.6722 2.88 61.2962 2.88H56.2562L57.6482 1.344V11.064Z" fill="white" fill-opacity="0.7"/>
<path d="M74.2965 17.04V2.88H68.7285V0.24H82.9845V2.88H77.4165V17.04H74.2965Z" fill="white" fill-opacity="0.7"/>
<path d="M97.8148 17.28C96.5348 17.28 95.3428 17.072 94.2388 16.656C93.1508 16.224 92.1988 15.624 91.3828 14.856C90.5828 14.072 89.9588 13.152 89.5108 12.096C89.0628 11.04 88.8388 9.888 88.8388 8.64C88.8388 7.392 89.0628 6.24 89.5108 5.184C89.9588 4.128 90.5908 3.216 91.4068 2.448C92.2228 1.664 93.1748 1.064 94.2628 0.648C95.3508 0.216 96.5428 0 97.8388 0C99.2148 0 100.471 0.24 101.607 0.720001C102.743 1.184 103.703 1.88 104.487 2.808L102.471 4.704C101.863 4.048 101.183 3.56 100.431 3.24C99.6788 2.904 98.8628 2.736 97.9828 2.736C97.1028 2.736 96.2948 2.88 95.5588 3.168C94.8388 3.456 94.2068 3.864 93.6628 4.392C93.1348 4.92 92.7188 5.544 92.4148 6.264C92.1268 6.984 91.9828 7.776 91.9828 8.64C91.9828 9.504 92.1268 10.296 92.4148 11.016C92.7188 11.736 93.1348 12.36 93.6628 12.888C94.2068 13.416 94.8388 13.824 95.5588 14.112C96.2948 14.4 97.1028 14.544 97.9828 14.544C98.8628 14.544 99.6788 14.384 100.431 14.064C101.183 13.728 101.863 13.224 102.471 12.552L104.487 14.472C103.703 15.384 102.743 16.08 101.607 16.56C100.471 17.04 99.2068 17.28 97.8148 17.28Z" fill="white" fill-opacity="0.7"/>
<path d="M106.516 17.04V0.24H109.636V17.04H106.516Z" fill="white" fill-opacity="0.7"/>
<path d="M116.628 17.04V2.88H111.06V0.24H125.316V2.88H119.748V17.04H116.628Z" fill="white" fill-opacity="0.7"/>
<path d="M130.568 17.04V10.392L131.264 12.312L123.968 0.24H127.304L133.16 9.96H131.288L137.192 0.24H140.264L132.968 12.312L133.688 10.392V17.04H130.568Z" fill="white" fill-opacity="0.7"/>
<path d="M147.02 17.04V0.24H150.14V14.4H158.924V17.04H147.02Z" fill="white" fill-opacity="0.7"/>
<path d="M158.075 17.04L165.635 0.24H168.707L176.291 17.04H173.027L166.523 1.896H167.771L161.291 17.04H158.075ZM161.555 13.152L162.395 10.704H171.467L172.307 13.152H161.555Z" fill="white" fill-opacity="0.7"/>
<path d="M177.467 17.04V0.24H185.339C187.355 0.24 188.891 0.64 189.947 1.44C191.003 2.224 191.531 3.28 191.531 4.608C191.531 5.504 191.323 6.272 190.907 6.912C190.491 7.536 189.931 8.024 189.227 8.376C188.539 8.712 187.787 8.88 186.971 8.88L187.403 8.016C188.347 8.016 189.195 8.192 189.947 8.544C190.699 8.88 191.291 9.376 191.723 10.032C192.171 10.688 192.395 11.504 192.395 12.48C192.395 13.92 191.843 15.04 190.739 15.84C189.635 16.64 187.995 17.04 185.819 17.04H177.467ZM180.587 14.592H185.627C186.795 14.592 187.691 14.4 188.315 14.016C188.939 13.632 189.251 13.016 189.251 12.168C189.251 11.336 188.939 10.728 188.315 10.344C187.691 9.944 186.795 9.744 185.627 9.744H180.347V7.32H185.003C186.091 7.32 186.923 7.128 187.499 6.744C188.091 6.36 188.387 5.784 188.387 5.016C188.387 4.232 188.091 3.648 187.499 3.264C186.923 2.88 186.091 2.688 185.003 2.688H180.587V14.592Z" fill="white" fill-opacity="0.7"/>
</svg>
