<svg width="97" height="22" viewBox="0 0 97 22" fill="none" xmlns="http://www.w3.org/2000/svg">
<path d="M3.312 8.64C2.656 8.64 2.028 8.548 1.428 8.364C0.828 8.172 0.352 7.928 0 7.632L0.54 6.42C0.876 6.684 1.292 6.904 1.788 7.08C2.284 7.256 2.792 7.344 3.312 7.344C3.752 7.344 4.108 7.296 4.38 7.2C4.652 7.104 4.852 6.976 4.98 6.816C5.108 6.648 5.172 6.46 5.172 6.252C5.172 5.996 5.08 5.792 4.896 5.64C4.712 5.48 4.472 5.356 4.176 5.268C3.888 5.172 3.564 5.084 3.204 5.004C2.852 4.924 2.496 4.832 2.136 4.728C1.784 4.616 1.46 4.476 1.164 4.308C0.876 4.132 0.64 3.9 0.456 3.612C0.272 3.324 0.18 2.956 0.18 2.508C0.18 2.052 0.3 1.636 0.54 1.26C0.788 0.876 1.16 0.572 1.656 0.348C2.16 0.116 2.796 0 3.564 0C4.068 0 4.568 0.0640001 5.064 0.192C5.56 0.32 5.992 0.504 6.36 0.744L5.868 1.956C5.492 1.732 5.104 1.568 4.704 1.464C4.304 1.352 3.92 1.296 3.552 1.296C3.12 1.296 2.768 1.348 2.496 1.452C2.232 1.556 2.036 1.692 1.908 1.86C1.788 2.028 1.728 2.22 1.728 2.436C1.728 2.692 1.816 2.9 1.992 3.06C2.176 3.212 2.412 3.332 2.7 3.42C2.996 3.508 3.324 3.596 3.684 3.684C4.044 3.764 4.4 3.856 4.752 3.96C5.112 4.064 5.436 4.2 5.724 4.368C6.02 4.536 6.256 4.764 6.432 5.052C6.616 5.34 6.708 5.704 6.708 6.144C6.708 6.592 6.584 7.008 6.336 7.392C6.096 7.768 5.724 8.072 5.22 8.304C4.716 8.528 4.08 8.64 3.312 8.64Z" fill="white"/>
<path d="M7.77488 8.52V0.12H9.05888L12.7309 6.252H12.0589L15.6709 0.12H16.9549L16.9669 8.52H15.4909L15.4789 2.436H15.7909L12.7189 7.56H12.0229L8.90288 2.436H9.26288V8.52H7.77488Z" fill="white"/>
<path d="M17.5678 8.52L21.3478 0.12H22.8838L26.6758 8.52H25.0438L21.7918 0.948H22.4158L19.1758 8.52H17.5678ZM19.3078 6.576L19.7278 5.352H24.2638L24.6838 6.576H19.3078Z" fill="white"/>
<path d="M27.2641 8.52V0.12H30.7201C31.4641 0.12 32.1001 0.24 32.6281 0.48C33.1641 0.72 33.5761 1.064 33.8641 1.512C34.1521 1.96 34.2961 2.492 34.2961 3.108C34.2961 3.724 34.1521 4.256 33.8641 4.704C33.5761 5.144 33.1641 5.484 32.6281 5.724C32.1001 5.956 31.4641 6.072 30.7201 6.072H28.1281L28.8241 5.364V8.52H27.2641ZM32.7601 8.52L30.6361 5.472H32.3041L34.4401 8.52H32.7601ZM28.8241 5.532L28.1281 4.788H30.6481C31.3361 4.788 31.8521 4.64 32.1961 4.344C32.5481 4.048 32.7241 3.636 32.7241 3.108C32.7241 2.572 32.5481 2.16 32.1961 1.872C31.8521 1.584 31.3361 1.44 30.6481 1.44H28.1281L28.8241 0.672V5.532Z" fill="white"/>
<path d="M37.1483 8.52V1.44H34.3643V0.12H41.4923V1.44H38.7083V8.52H37.1483Z" fill="white"/>
<path d="M48.9074 8.64C48.2674 8.64 47.6714 8.536 47.1194 8.328C46.5754 8.112 46.0994 7.812 45.6914 7.428C45.2914 7.036 44.9794 6.576 44.7554 6.048C44.5314 5.52 44.4194 4.944 44.4194 4.32C44.4194 3.696 44.5314 3.12 44.7554 2.592C44.9794 2.064 45.2954 1.608 45.7034 1.224C46.1114 0.832 46.5874 0.532 47.1314 0.324C47.6754 0.108 48.2714 0 48.9194 0C49.6074 0 50.2354 0.12 50.8034 0.36C51.3714 0.592 51.8514 0.94 52.2434 1.404L51.2354 2.352C50.9314 2.024 50.5914 1.78 50.2154 1.62C49.8394 1.452 49.4314 1.368 48.9914 1.368C48.5514 1.368 48.1474 1.44 47.7794 1.584C47.4194 1.728 47.1034 1.932 46.8314 2.196C46.5674 2.46 46.3594 2.772 46.2074 3.132C46.0634 3.492 45.9914 3.888 45.9914 4.32C45.9914 4.752 46.0634 5.148 46.2074 5.508C46.3594 5.868 46.5674 6.18 46.8314 6.444C47.1034 6.708 47.4194 6.912 47.7794 7.056C48.1474 7.2 48.5514 7.272 48.9914 7.272C49.4314 7.272 49.8394 7.192 50.2154 7.032C50.5914 6.864 50.9314 6.612 51.2354 6.276L52.2434 7.236C51.8514 7.692 51.3714 8.04 50.8034 8.28C50.2354 8.52 49.6034 8.64 48.9074 8.64Z" fill="white"/>
<path d="M53.2582 8.52V0.12H54.8182V8.52H53.2582Z" fill="white"/>
<path d="M58.3142 8.52V1.44H55.5302V0.12H62.6582V1.44H59.8742V8.52H58.3142Z" fill="white"/>
<path d="M65.284 8.52V5.196L65.632 6.156L61.984 0.12H63.652L66.58 4.98H65.644L68.596 0.12H70.132L66.484 6.156L66.844 5.196V8.52H65.284Z" fill="white"/>
<path d="M73.51 8.52V0.12H75.07V7.2H79.462V8.52H73.51Z" fill="white"/>
<path d="M79.0373 8.52L82.8173 0.12H84.3533L88.1453 8.52H86.5133L83.2613 0.948H83.8853L80.6453 8.52H79.0373ZM80.7773 6.576L81.1973 5.352H85.7333L86.1533 6.576H80.7773Z" fill="white"/>
<path d="M88.7336 8.52V0.12H92.6696C93.6776 0.12 94.4456 0.32 94.9736 0.72C95.5016 1.112 95.7656 1.64 95.7656 2.304C95.7656 2.752 95.6616 3.136 95.4536 3.456C95.2456 3.768 94.9656 4.012 94.6136 4.188C94.2696 4.356 93.8936 4.44 93.4856 4.44L93.7016 4.008C94.1736 4.008 94.5976 4.096 94.9736 4.272C95.3496 4.44 95.6456 4.688 95.8616 5.016C96.0856 5.344 96.1976 5.752 96.1976 6.24C96.1976 6.96 95.9216 7.52 95.3696 7.92C94.8176 8.32 93.9976 8.52 92.9096 8.52H88.7336ZM90.2936 7.296H92.8136C93.3976 7.296 93.8456 7.2 94.1576 7.008C94.4696 6.816 94.6256 6.508 94.6256 6.084C94.6256 5.668 94.4696 5.364 94.1576 5.172C93.8456 4.972 93.3976 4.872 92.8136 4.872H90.1736V3.66H92.5016C93.0456 3.66 93.4616 3.564 93.7496 3.372C94.0456 3.18 94.1936 2.892 94.1936 2.508C94.1936 2.116 94.0456 1.824 93.7496 1.632C93.4616 1.44 93.0456 1.344 92.5016 1.344H90.2936V7.296Z" fill="white"/>
<path d="M31.1945 17.21H37.1245V21.23H36.6345V17.63H31.6745V21.27H31.1945V17.21ZM31.4445 18.8H36.8245V19.22H31.4445V18.8ZM30.6845 13.05H33.8945V13.47H30.6845V13.05ZM29.6845 14.6H34.1745V15.02H29.6845V14.6ZM31.4445 20.45H36.8245V20.87H31.4445V20.45ZM31.8445 13.23H32.3245V14.15C32.3245 14.3833 32.2979 14.6367 32.2445 14.91C32.1912 15.1833 32.0845 15.4667 31.9245 15.76C31.7712 16.0467 31.5345 16.33 31.2145 16.61C30.8945 16.8833 30.4612 17.14 29.9145 17.38C29.8812 17.3267 29.8345 17.2667 29.7745 17.2C29.7145 17.1267 29.6579 17.07 29.6045 17.03C30.1312 16.8167 30.5445 16.5867 30.8445 16.34C31.1445 16.0933 31.3645 15.84 31.5045 15.58C31.6512 15.32 31.7445 15.0667 31.7845 14.82C31.8245 14.5733 31.8445 14.35 31.8445 14.15V13.23ZM30.8745 12.16L31.3345 12.26C31.1945 12.6733 31.0179 13.0767 30.8045 13.47C30.5912 13.8567 30.3645 14.1867 30.1245 14.46C30.0979 14.4333 30.0579 14.4033 30.0045 14.37C29.9579 14.3367 29.9079 14.3067 29.8545 14.28C29.8079 14.2467 29.7645 14.2233 29.7245 14.21C29.9779 13.9433 30.2012 13.63 30.3945 13.27C30.5945 12.91 30.7545 12.54 30.8745 12.16ZM32.0845 15.28C32.1779 15.3333 32.3145 15.4167 32.4945 15.53C32.6745 15.6367 32.8679 15.7567 33.0745 15.89C33.2812 16.0233 33.4712 16.1467 33.6445 16.26C33.8179 16.3667 33.9412 16.4467 34.0145 16.5L33.7045 16.87C33.6112 16.7967 33.4779 16.7 33.3045 16.58C33.1379 16.4533 32.9545 16.3233 32.7545 16.19C32.5612 16.05 32.3745 15.92 32.1945 15.8C32.0212 15.68 31.8845 15.59 31.7845 15.53L32.0845 15.28ZM35.0945 13.48V15.88H37.4945V13.48H35.0945ZM34.6345 13.04H37.9745V16.33H34.6345V13.04Z" fill="white"/>
<path d="M41.7545 18.99H42.2345V20.43C42.2345 20.5367 42.2745 20.6067 42.3545 20.64C42.4345 20.68 42.6212 20.7 42.9145 20.7C42.9879 20.7 43.1179 20.7 43.3045 20.7C43.4979 20.7 43.7112 20.7 43.9445 20.7C44.1779 20.7 44.3945 20.7 44.5945 20.7C44.8012 20.7 44.9512 20.7 45.0445 20.7C45.1979 20.7 45.3112 20.6767 45.3845 20.63C45.4645 20.59 45.5212 20.5 45.5545 20.36C45.5879 20.2133 45.6112 19.9933 45.6245 19.7C45.6579 19.7267 45.7012 19.7533 45.7545 19.78C45.8079 19.8067 45.8612 19.83 45.9145 19.85C45.9679 19.8633 46.0145 19.8733 46.0545 19.88C46.0345 20.2267 45.9945 20.49 45.9345 20.67C45.8812 20.8567 45.7879 20.9833 45.6545 21.05C45.5279 21.1167 45.3379 21.15 45.0845 21.15C45.0512 21.15 44.9579 21.15 44.8045 21.15C44.6579 21.15 44.4845 21.15 44.2845 21.15C44.0912 21.15 43.8945 21.15 43.6945 21.15C43.5012 21.15 43.3312 21.15 43.1845 21.15C43.0379 21.15 42.9479 21.15 42.9145 21.15C42.6145 21.15 42.3779 21.13 42.2045 21.09C42.0379 21.0567 41.9212 20.9867 41.8545 20.88C41.7879 20.7733 41.7545 20.6233 41.7545 20.43V18.99ZM42.6445 18.82L42.9545 18.54C43.2679 18.6533 43.5812 18.8033 43.8945 18.99C44.2145 19.1767 44.4645 19.3633 44.6445 19.55L44.3345 19.87C44.1545 19.69 43.9045 19.5033 43.5845 19.31C43.2712 19.11 42.9579 18.9467 42.6445 18.82ZM46.0945 19.23L46.4645 18.98C46.7112 19.1333 46.9512 19.31 47.1845 19.51C47.4245 19.71 47.6412 19.9133 47.8345 20.12C48.0345 20.3267 48.1912 20.5233 48.3045 20.71L47.9045 20.98C47.7979 20.8 47.6479 20.6067 47.4545 20.4C47.2679 20.1867 47.0545 19.9767 46.8145 19.77C46.5812 19.5633 46.3412 19.3833 46.0945 19.23ZM40.5845 19.05L40.9945 19.21C40.8479 19.5433 40.6612 19.8733 40.4345 20.2C40.2079 20.52 39.9179 20.78 39.5645 20.98L39.1845 20.71C39.5245 20.5233 39.8112 20.28 40.0445 19.98C40.2779 19.6733 40.4579 19.3633 40.5845 19.05ZM40.2345 15.83H47.0345V18.48H40.1745V18.09H46.5545V16.22H40.2345V15.83ZM40.5345 16.94H46.7245V17.32H40.5345V16.94ZM39.5545 12.76H43.3445V13.14H39.5545V12.76ZM39.7645 13.73H43.2045V14.1H39.7645V13.73ZM41.2445 12.17H41.7045V15.67H41.2445V12.17ZM43.7745 12.76H47.8845V13.14H43.7745V12.76ZM43.6545 14.71H48.0645V15.09H43.6545V14.71ZM44.0045 13.73H47.7245V14.1H44.0045V13.73ZM45.5545 12.17H46.0245V15.67H45.5545V12.17ZM39.4345 14.85C39.7679 14.83 40.1479 14.8067 40.5745 14.78C41.0079 14.7467 41.4679 14.7133 41.9545 14.68C42.4412 14.64 42.9345 14.5967 43.4345 14.55V14.92C42.7079 14.9867 41.9945 15.05 41.2945 15.11C40.6012 15.17 39.9945 15.2233 39.4745 15.27L39.4345 14.85Z" fill="white"/>
<path d="M48.9145 14.65H51.6045V15.11H48.9145V14.65ZM50.0745 12.28H50.5445V18.98H50.0745V12.28ZM48.8245 19.35C49.1779 19.2367 49.6045 19.0867 50.1045 18.9C50.6045 18.7067 51.1145 18.51 51.6345 18.31L51.7145 18.76C51.2345 18.9467 50.7545 19.1333 50.2745 19.32C49.8012 19.5067 49.3712 19.6767 48.9845 19.83L48.8245 19.35ZM52.2445 13.79H57.8245V14.25H52.2445V13.79ZM52.3445 15.76H54.3045V16.2H52.3445V15.76ZM52.0845 13.79H52.5445V16.78C52.5445 17.1267 52.5279 17.4967 52.4945 17.89C52.4679 18.2833 52.4112 18.68 52.3245 19.08C52.2445 19.48 52.1212 19.87 51.9545 20.25C51.7945 20.6233 51.5845 20.9667 51.3245 21.28C51.3045 21.2467 51.2712 21.21 51.2245 21.17C51.1779 21.13 51.1312 21.0933 51.0845 21.06C51.0379 21.0267 50.9979 21 50.9645 20.98C51.3045 20.58 51.5512 20.1367 51.7045 19.65C51.8645 19.1633 51.9679 18.6733 52.0145 18.18C52.0612 17.6867 52.0845 17.22 52.0845 16.78V13.79ZM54.1045 15.76H54.5545C54.5545 15.76 54.5545 15.79 54.5545 15.85C54.5545 15.91 54.5512 15.96 54.5445 16C54.5379 16.78 54.5245 17.4 54.5045 17.86C54.4912 18.32 54.4679 18.6633 54.4345 18.89C54.4012 19.1167 54.3545 19.2667 54.2945 19.34C54.2345 19.42 54.1679 19.4767 54.0945 19.51C54.0212 19.5433 53.9245 19.5633 53.8045 19.57C53.7045 19.5767 53.5679 19.58 53.3945 19.58C53.2279 19.58 53.0512 19.5733 52.8645 19.56C52.8579 19.4933 52.8445 19.42 52.8245 19.34C52.8045 19.2533 52.7745 19.1833 52.7345 19.13C52.9345 19.1433 53.1212 19.1533 53.2945 19.16C53.4679 19.16 53.5845 19.16 53.6445 19.16C53.7779 19.16 53.8679 19.13 53.9145 19.07C53.9545 19.01 53.9845 18.8733 54.0045 18.66C54.0312 18.4467 54.0512 18.1167 54.0645 17.67C54.0845 17.2167 54.0979 16.61 54.1045 15.85V15.76ZM55.0945 12.17H55.5745C55.5679 13.0167 55.5812 13.8167 55.6145 14.57C55.6479 15.3167 55.6979 16.0067 55.7645 16.64C55.8312 17.2733 55.9112 17.84 56.0045 18.34C56.0979 18.8333 56.2045 19.2567 56.3245 19.61C56.4445 19.9633 56.5779 20.2333 56.7245 20.42C56.8712 20.6 57.0279 20.69 57.1945 20.69C57.3145 20.69 57.4012 20.5567 57.4545 20.29C57.5079 20.0167 57.5445 19.5733 57.5645 18.96C57.6179 19.0067 57.6812 19.0533 57.7545 19.1C57.8345 19.1467 57.9045 19.18 57.9645 19.2C57.9379 19.6867 57.8945 20.0733 57.8345 20.36C57.7812 20.6467 57.6979 20.8533 57.5845 20.98C57.4779 21.1067 57.3279 21.17 57.1345 21.17C56.8945 21.17 56.6745 21.0633 56.4745 20.85C56.2812 20.6433 56.1112 20.3467 55.9645 19.96C55.8179 19.5733 55.6879 19.11 55.5745 18.57C55.4679 18.0233 55.3812 17.4167 55.3145 16.75C55.2479 16.0767 55.1945 15.3567 55.1545 14.59C55.1212 13.8167 55.1012 13.01 55.0945 12.17ZM55.8745 12.54L56.1945 12.29C56.4345 12.45 56.6812 12.6333 56.9345 12.84C57.1945 13.0467 57.3945 13.23 57.5345 13.39L57.1945 13.68C57.0612 13.5133 56.8679 13.3233 56.6145 13.11C56.3612 12.8967 56.1145 12.7067 55.8745 12.54ZM57.1045 15.44L57.5645 15.52C57.2312 16.8 56.7645 17.9133 56.1645 18.86C55.5712 19.8 54.8279 20.5767 53.9345 21.19C53.9079 21.1633 53.8712 21.1267 53.8245 21.08C53.7845 21.0333 53.7412 20.9867 53.6945 20.94C53.6479 20.9 53.6045 20.8667 53.5645 20.84C54.4645 20.2733 55.2012 19.5333 55.7745 18.62C56.3545 17.7067 56.7979 16.6467 57.1045 15.44Z" fill="white"/>
<path d="M62.6545 12.12H63.1545V13.91H62.6545V12.12ZM62.6545 14.06H63.1545V21.3H62.6545V14.06ZM58.4945 13.63H67.3945V14.1H58.4945V13.63ZM59.5645 15.65H66.1145V16.12H60.0345V20H59.5645V15.65ZM65.9245 15.65H66.4145V19.26C66.4145 19.4333 66.3879 19.5633 66.3345 19.65C66.2879 19.7367 66.1912 19.8033 66.0445 19.85C65.8979 19.89 65.6812 19.9167 65.3945 19.93C65.1079 19.9367 64.7379 19.94 64.2845 19.94C64.2779 19.86 64.2545 19.7767 64.2145 19.69C64.1812 19.6033 64.1479 19.5267 64.1145 19.46C64.3745 19.4667 64.6112 19.4733 64.8245 19.48C65.0445 19.48 65.2279 19.48 65.3745 19.48C65.5212 19.4733 65.6279 19.47 65.6945 19.47C65.7879 19.4633 65.8479 19.4467 65.8745 19.42C65.9079 19.3867 65.9245 19.3333 65.9245 19.26V15.65Z" fill="white"/>
<path d="M72.9545 19.21L73.2045 18.86C73.6579 19.04 74.1079 19.24 74.5545 19.46C75.0012 19.68 75.4179 19.9067 75.8045 20.14C76.1912 20.3733 76.5212 20.6 76.7945 20.82L76.4845 21.19C76.2112 20.9633 75.8845 20.7367 75.5045 20.51C75.1312 20.2767 74.7245 20.05 74.2845 19.83C73.8512 19.6033 73.4079 19.3967 72.9545 19.21ZM71.9345 12.29L72.4045 12.15C72.5445 12.3567 72.6845 12.5833 72.8245 12.83C72.9645 13.0767 73.0645 13.2867 73.1245 13.46L72.6445 13.64C72.5779 13.46 72.4779 13.2433 72.3445 12.99C72.2112 12.7367 72.0745 12.5033 71.9345 12.29ZM68.5145 13.43H76.5645V15.31H76.0745V13.89H68.9945V15.31H68.5145V13.43ZM72.6845 14.44H73.1845C73.1579 15.2 73.1112 15.8933 73.0445 16.52C72.9845 17.1467 72.8712 17.71 72.7045 18.21C72.5379 18.71 72.2912 19.1533 71.9645 19.54C71.6445 19.9267 71.2145 20.2567 70.6745 20.53C70.1412 20.81 69.4679 21.04 68.6545 21.22C68.6345 21.1533 68.5945 21.0767 68.5345 20.99C68.4812 20.91 68.4279 20.8433 68.3745 20.79C69.1679 20.63 69.8212 20.4233 70.3345 20.17C70.8479 19.9167 71.2579 19.61 71.5645 19.25C71.8779 18.89 72.1079 18.4767 72.2545 18.01C72.4079 17.5367 72.5112 17.0033 72.5645 16.41C72.6245 15.8167 72.6645 15.16 72.6845 14.44ZM68.2745 18.07H76.8545V18.51H68.2745V18.07ZM69.9845 14.89L70.2945 14.58C70.4745 14.6867 70.6579 14.8067 70.8445 14.94C71.0379 15.0733 71.2179 15.21 71.3845 15.35C71.5512 15.4833 71.6879 15.61 71.7945 15.73L71.4745 16.08C71.3812 15.96 71.2512 15.83 71.0845 15.69C70.9179 15.55 70.7379 15.41 70.5445 15.27C70.3579 15.1233 70.1712 14.9967 69.9845 14.89ZM69.0045 16.47L69.3045 16.15C69.4979 16.25 69.6945 16.37 69.8945 16.51C70.1012 16.6433 70.2945 16.7833 70.4745 16.93C70.6545 17.07 70.7979 17.2 70.9045 17.32L70.6045 17.7C70.4912 17.5667 70.3445 17.4267 70.1645 17.28C69.9912 17.1333 69.8012 16.99 69.5945 16.85C69.3945 16.7033 69.1979 16.5767 69.0045 16.47Z" fill="white"/>
<path d="M80.7545 16.87H81.2045C81.2045 16.87 81.2045 16.9 81.2045 16.96C81.2045 17.02 81.2012 17.07 81.1945 17.11C81.1345 17.97 81.0745 18.66 81.0145 19.18C80.9545 19.6933 80.8879 20.0867 80.8145 20.36C80.7412 20.6267 80.6512 20.81 80.5445 20.91C80.4712 20.9967 80.3879 21.0567 80.2945 21.09C80.2079 21.1233 80.0945 21.1467 79.9545 21.16C79.8345 21.16 79.6645 21.1567 79.4445 21.15C79.2312 21.15 79.0045 21.14 78.7645 21.12C78.7579 21.0533 78.7412 20.98 78.7145 20.9C78.6945 20.82 78.6612 20.7467 78.6145 20.68C78.8812 20.7067 79.1245 20.7233 79.3445 20.73C79.5712 20.7367 79.7279 20.74 79.8145 20.74C79.9012 20.74 79.9712 20.7333 80.0245 20.72C80.0779 20.7067 80.1279 20.6767 80.1745 20.63C80.2545 20.5433 80.3279 20.3733 80.3945 20.12C80.4679 19.86 80.5312 19.4767 80.5845 18.97C80.6445 18.4633 80.7012 17.7933 80.7545 16.96V16.87ZM77.5145 19.16C77.8679 19.0733 78.2812 18.9633 78.7545 18.83C79.2279 18.6967 79.7145 18.5567 80.2145 18.41L80.2645 18.82C79.8045 18.9533 79.3479 19.09 78.8945 19.23C78.4412 19.37 78.0245 19.4933 77.6445 19.6L77.5145 19.16ZM77.8845 12.68H80.5345V13.11H77.8845V12.68ZM80.3745 12.68H80.8145C80.7945 13.0267 80.7645 13.3967 80.7245 13.79C80.6912 14.1833 80.6545 14.5767 80.6145 14.97C80.5745 15.3567 80.5345 15.7267 80.4945 16.08C80.4612 16.4267 80.4279 16.73 80.3945 16.99L79.9345 17.06C79.9745 16.78 80.0145 16.46 80.0545 16.1C80.1012 15.74 80.1445 15.36 80.1845 14.96C80.2245 14.56 80.2612 14.1633 80.2945 13.77C80.3279 13.3767 80.3545 13.0133 80.3745 12.68ZM78.3245 13.9L78.7545 13.94C78.7279 14.2933 78.6945 14.68 78.6545 15.1C78.6212 15.5133 78.5845 15.9133 78.5445 16.3C78.5045 16.68 78.4612 17.0133 78.4145 17.3H77.9845C78.0312 17.0067 78.0745 16.6633 78.1145 16.27C78.1545 15.87 78.1945 15.4633 78.2345 15.05C78.2745 14.63 78.3045 14.2467 78.3245 13.9ZM78.1545 16.87H80.8645V17.3H78.1545V16.87ZM84.0245 12.51C84.2245 12.8767 84.4779 13.2533 84.7845 13.64C85.0979 14.0267 85.4312 14.3933 85.7845 14.74C86.1445 15.08 86.4912 15.37 86.8245 15.61C86.7912 15.6433 86.7545 15.6833 86.7145 15.73C86.6745 15.7767 86.6379 15.8267 86.6045 15.88C86.5779 15.9267 86.5545 15.9733 86.5345 16.02C86.1945 15.7533 85.8412 15.4367 85.4745 15.07C85.1145 14.7033 84.7745 14.3167 84.4545 13.91C84.1412 13.5033 83.8812 13.1133 83.6745 12.74L84.0245 12.51ZM83.8845 12.13L84.3145 12.26C84.0945 12.78 83.8245 13.2733 83.5045 13.74C83.1845 14.2067 82.8345 14.6367 82.4545 15.03C82.0812 15.4167 81.6912 15.7567 81.2845 16.05C81.2645 16.0167 81.2345 15.9767 81.1945 15.93C81.1545 15.8833 81.1145 15.8367 81.0745 15.79C81.0412 15.7433 81.0045 15.7033 80.9645 15.67C81.3779 15.4033 81.7679 15.09 82.1345 14.73C82.5012 14.3633 82.8345 13.9633 83.1345 13.53C83.4345 13.09 83.6845 12.6233 83.8845 12.13ZM82.4845 15.3H85.4045V15.74H82.4845V15.3ZM81.8445 16.82L82.2345 16.73C82.3479 16.9833 82.4512 17.2567 82.5445 17.55C82.6445 17.8433 82.7312 18.13 82.8045 18.41C82.8779 18.6833 82.9279 18.93 82.9545 19.15L82.5545 19.25C82.5212 19.03 82.4679 18.78 82.3945 18.5C82.3212 18.22 82.2379 17.9367 82.1445 17.65C82.0512 17.3567 81.9512 17.08 81.8445 16.82ZM83.6245 16.58L84.0245 16.53C84.0912 16.7767 84.1545 17.0467 84.2145 17.34C84.2745 17.6333 84.3245 17.9167 84.3645 18.19C84.4112 18.4633 84.4412 18.71 84.4545 18.93L84.0445 19C84.0312 18.78 84.0012 18.5333 83.9545 18.26C83.9145 17.98 83.8645 17.6933 83.8045 17.4C83.7512 17.1067 83.6912 16.8333 83.6245 16.58ZM85.9345 16.72L86.3945 16.85C86.2345 17.2367 86.0545 17.6533 85.8545 18.1C85.6612 18.54 85.4612 18.97 85.2545 19.39C85.0545 19.81 84.8579 20.1767 84.6645 20.49L84.3045 20.35C84.4379 20.1233 84.5812 19.86 84.7345 19.56C84.8879 19.2533 85.0379 18.9333 85.1845 18.6C85.3312 18.2667 85.4712 17.94 85.6045 17.62C85.7379 17.2933 85.8479 16.9933 85.9345 16.72ZM81.4845 20.29H86.5245V20.74H81.4845V20.29Z" fill="white"/>
<path d="M91.4645 17.14H91.9545V20.69H91.4645V17.14ZM88.4545 14.64H95.1045V15.08H88.4545V14.64ZM87.3345 20.53H96.1745V20.97H87.3345V20.53ZM88.2545 18.53H95.2445V18.98H88.2545V18.53ZM90.6945 14.84L91.1645 15C91.0245 15.2467 90.8679 15.5033 90.6945 15.77C90.5279 16.03 90.3579 16.2833 90.1845 16.53C90.0112 16.7767 89.8445 16.9933 89.6845 17.18L89.3145 17.02C89.4745 16.8267 89.6379 16.6033 89.8045 16.35C89.9712 16.09 90.1312 15.8267 90.2845 15.56C90.4445 15.2933 90.5812 15.0533 90.6945 14.84ZM88.0845 16.86C88.6245 16.8533 89.2645 16.84 90.0045 16.82C90.7445 16.8 91.5312 16.7767 92.3645 16.75C93.1979 16.7233 94.0345 16.6967 94.8745 16.67L94.8445 17.09C94.0312 17.1233 93.2112 17.1567 92.3845 17.19C91.5645 17.2233 90.7879 17.2533 90.0545 17.28C89.3212 17.3 88.6745 17.3167 88.1145 17.33L88.0845 16.86ZM92.9845 15.79L93.3345 15.52C93.6345 15.7 93.9379 15.9033 94.2445 16.13C94.5579 16.35 94.8479 16.5767 95.1145 16.81C95.3812 17.0433 95.5979 17.26 95.7645 17.46L95.3945 17.76C95.2345 17.56 95.0212 17.3433 94.7545 17.11C94.4945 16.87 94.2079 16.6367 93.8945 16.41C93.5879 16.1767 93.2845 15.97 92.9845 15.79ZM91.4645 12.17H91.9545V13.3H91.4645V12.17ZM87.4945 13H96.0045V14.71H95.5245V13.45H87.9645V14.71H87.4945V13Z" fill="white"/>
</svg>
