<svg width="179" height="40" viewBox="0 0 179 40" fill="none" xmlns="http://www.w3.org/2000/svg">
<path d="M0 22.6806V0.319444H9.20596C11.1878 0.319444 12.8819 0.638889 14.2884 1.27778C15.7162 1.91667 16.8137 2.83241 17.5808 4.025C18.348 5.21759 18.7316 6.6338 18.7316 8.27361C18.7316 9.91343 18.348 11.3296 17.5808 12.5222C16.8137 13.7148 15.7162 14.6306 14.2884 15.2694C12.8819 15.9083 11.1878 16.2278 9.20596 16.2278H2.30149L4.15547 14.2792V22.6806H0ZM4.15547 14.7264L2.30149 12.7139H9.01417C10.8468 12.7139 12.2213 12.3306 13.1377 11.5639C14.0753 10.7759 14.5441 9.67917 14.5441 8.27361C14.5441 6.84676 14.0753 5.75 13.1377 4.98333C12.2213 4.21667 10.8468 3.83333 9.01417 3.83333H2.30149L4.15547 1.78889V14.7264Z" fill="white"/>
<path d="M25.3106 17.4097L25.0869 12.4903L36.8181 0.319444H41.485L31.7356 10.6694L29.4341 13.1931L25.3106 17.4097ZM21.6027 22.6806V0.319444H25.7582V22.6806H21.6027ZM37.2017 22.6806L28.635 12.4903L31.384 9.45555L42.0604 22.6806H37.2017Z" fill="white"/>
<path d="M52.9205 23C49.8519 23 47.4438 22.1375 45.6964 20.4125C43.9703 18.6875 43.1072 16.1958 43.1072 12.9375V0.319444H47.2627V12.7778C47.2627 15.0778 47.7528 16.7495 48.7331 17.7931C49.7347 18.8366 51.1411 19.3583 52.9525 19.3583C54.7639 19.3583 56.1597 18.8366 57.1399 17.7931C58.1202 16.7495 58.6103 15.0778 58.6103 12.7778V0.319444H62.7019V12.9375C62.7019 16.1958 61.8281 18.6875 60.0807 20.4125C58.3546 22.1375 55.9679 23 52.9205 23Z" fill="white"/>
<path d="M65.9963 15.4611V12.1389H74.7867V15.4611H65.9963Z" fill="white"/>
<path d="M84.7316 23C82.9841 23 81.3113 22.7551 79.713 22.2653C78.1148 21.7542 76.8468 21.1046 75.9092 20.3167L77.3476 17.0903C78.2427 17.7931 79.3508 18.3787 80.672 18.8472C81.9932 19.3157 83.3464 19.55 84.7316 19.55C85.9036 19.55 86.8519 19.4222 87.5765 19.1667C88.301 18.9111 88.8338 18.5704 89.1747 18.1444C89.5157 17.6972 89.6862 17.1968 89.6862 16.6431C89.6862 15.9616 89.4411 15.4185 88.951 15.0139C88.4608 14.588 87.8215 14.2579 87.0331 14.0236C86.2659 13.7681 85.4028 13.5338 84.4439 13.3208C83.5062 13.1079 82.558 12.863 81.599 12.5861C80.6614 12.288 79.7983 11.9153 79.0098 11.4681C78.2427 10.9995 77.614 10.3819 77.1239 9.61528C76.6337 8.84861 76.3887 7.86898 76.3887 6.67639C76.3887 5.4625 76.7083 4.35509 77.3476 3.35417C78.0082 2.33194 78.9992 1.52268 80.3204 0.926388C81.6629 0.308796 83.3571 0 85.4028 0C86.7454 0 88.0773 0.170371 89.3985 0.511112C90.7197 0.851852 91.8705 1.34167 92.8507 1.98056L91.5402 5.20694C90.5386 4.61065 89.505 4.17407 88.4395 3.89722C87.374 3.59907 86.3511 3.45 85.3709 3.45C84.2201 3.45 83.2825 3.58843 82.5579 3.86528C81.8547 4.14213 81.3326 4.50417 80.9917 4.95139C80.672 5.39861 80.5122 5.90972 80.5122 6.48472C80.5122 7.1662 80.7466 7.71991 81.2154 8.14583C81.7055 8.55046 82.3342 8.86991 83.1014 9.10417C83.8898 9.33843 84.7635 9.57268 85.7225 9.80694C86.6814 10.0199 87.6297 10.2648 88.5674 10.5417C89.5263 10.8185 90.3894 11.1806 91.1566 11.6278C91.945 12.075 92.5737 12.6819 93.0425 13.4486C93.5326 14.2153 93.7777 15.1843 93.7777 16.3556C93.7777 17.5481 93.4474 18.6556 92.7868 19.6778C92.1475 20.6787 91.1566 21.488 89.814 22.1056C88.4715 22.7019 86.7773 23 84.7316 23Z" fill="white"/>
<path d="M106.976 23C105.272 23 103.684 22.7231 102.214 22.1694C100.764 21.5944 99.4965 20.7958 98.4097 19.7736C97.3441 18.7301 96.5131 17.5056 95.9164 16.1C95.3197 14.6944 95.0213 13.1611 95.0213 11.5C95.0213 9.83889 95.3197 8.30556 95.9164 6.9C96.5131 5.49445 97.3548 4.28056 98.4416 3.25833C99.5284 2.21482 100.796 1.4162 102.245 0.8625C103.695 0.2875 105.282 0 107.008 0C108.841 0 110.514 0.319445 112.027 0.958334C113.54 1.57593 114.818 2.50231 115.863 3.7375L113.178 6.26111C112.368 5.38796 111.462 4.73843 110.461 4.3125C109.459 3.86528 108.372 3.64167 107.2 3.64167C106.028 3.64167 104.952 3.83333 103.972 4.21667C103.013 4.6 102.171 5.14306 101.446 5.84583C100.743 6.54861 100.189 7.37917 99.7842 8.3375C99.4006 9.29583 99.2088 10.35 99.2088 11.5C99.2088 12.65 99.4006 13.7042 99.7842 14.6625C100.189 15.6208 100.743 16.4514 101.446 17.1542C102.171 17.8569 103.013 18.4 103.972 18.7833C104.952 19.1667 106.028 19.3583 107.2 19.3583C108.372 19.3583 109.459 19.1454 110.461 18.7194C111.462 18.2722 112.368 17.6014 113.178 16.7069L115.863 19.2625C114.818 20.4764 113.54 21.4028 112.027 22.0417C110.514 22.6806 108.83 23 106.976 23Z" fill="white"/>
<path d="M118.566 22.6806V0.319444H122.721V19.1667H134.42V22.6806H118.566Z" fill="white"/>
<path d="M133.289 22.6806L143.358 0.319444H147.45L157.551 22.6806H153.203L144.541 2.52361H146.203L137.572 22.6806H133.289ZM137.924 17.5056L139.043 14.2472H151.126L152.244 17.5056H137.924Z" fill="white"/>
<path d="M159.118 22.6806V0.319444H169.602C172.287 0.319444 174.333 0.851852 175.74 1.91667C177.146 2.96019 177.849 4.36574 177.849 6.13333C177.849 7.32593 177.572 8.34815 177.018 9.2C176.464 10.0306 175.718 10.6801 174.781 11.1486C173.864 11.5958 172.863 11.8194 171.776 11.8194L172.351 10.6694C173.609 10.6694 174.738 10.9037 175.74 11.3722C176.741 11.8194 177.53 12.4796 178.105 13.3528C178.702 14.2259 179 15.312 179 16.6111C179 18.5278 178.265 20.0185 176.794 21.0833C175.324 22.1481 173.14 22.6806 170.242 22.6806H159.118ZM163.273 19.4222H169.986C171.541 19.4222 172.735 19.1667 173.566 18.6556C174.397 18.1444 174.813 17.3245 174.813 16.1958C174.813 15.0884 174.397 14.2792 173.566 13.7681C172.735 13.2356 171.541 12.9694 169.986 12.9694H162.953V9.74305H169.155C170.604 9.74305 171.712 9.4875 172.479 8.97639C173.268 8.46528 173.662 7.69861 173.662 6.67639C173.662 5.63287 173.268 4.85556 172.479 4.34445C171.712 3.83333 170.604 3.57778 169.155 3.57778H163.273V19.4222Z" fill="white"/>
<path d="M0.356514 30.55H4.22533V31.1967H0.356514V30.55ZM7.07744 27.3299H7.72444V37.3069C7.72444 37.6412 7.77285 37.8612 7.86968 37.9667C7.96651 38.0635 8.17338 38.1119 8.49028 38.1119C8.5695 38.1119 8.71035 38.1119 8.91281 38.1119C9.11528 38.1119 9.34415 38.1119 9.59943 38.1119C9.85471 38.1119 10.088 38.1119 10.2993 38.1119C10.5105 38.1119 10.669 38.1119 10.7746 38.1119C11.0035 38.1119 11.1751 38.0327 11.2896 37.8744C11.404 37.716 11.4832 37.4345 11.5272 37.0298C11.5713 36.6163 11.6065 36.04 11.6329 35.3009C11.7033 35.3449 11.7737 35.3889 11.8441 35.4329C11.9146 35.4769 11.985 35.5165 12.0554 35.5517C12.1258 35.5781 12.1918 35.6001 12.2535 35.6177C12.2271 36.3919 12.1742 37.0078 12.095 37.4653C12.0158 37.9228 11.8794 38.2483 11.6857 38.4418C11.492 38.6354 11.1971 38.7322 10.801 38.7322C10.7306 38.7322 10.5853 38.7322 10.3653 38.7322C10.1452 38.7322 9.89873 38.7322 9.62584 38.7322C9.35295 38.7322 9.10648 38.7322 8.88641 38.7322C8.66634 38.7322 8.52549 38.7322 8.46387 38.7322C8.10295 38.7322 7.82127 38.6926 7.6188 38.6134C7.41634 38.5342 7.2755 38.3847 7.19627 38.1647C7.11705 37.9536 7.07744 37.6588 7.07744 37.2805V27.3299ZM3.90843 27.3299H4.55544V38.9697H3.90843V27.3299ZM11.3292 29.3887L11.8309 29.9297C11.4612 30.2465 11.0343 30.5676 10.5501 30.8931C10.066 31.2187 9.55982 31.5398 9.03165 31.8565C8.51229 32.1732 8.00173 32.4768 7.49997 32.7671C7.47356 32.6967 7.43395 32.6131 7.38113 32.5164C7.32832 32.4196 7.2755 32.3404 7.22268 32.2788C7.72444 31.9885 8.2262 31.6806 8.72796 31.355C9.23852 31.0295 9.71827 30.6996 10.1672 30.3652C10.625 30.0221 11.0123 29.6966 11.3292 29.3887ZM0 36.7526C0.360914 36.6206 0.770245 36.4667 1.22799 36.2907C1.68573 36.106 2.17429 35.908 2.69365 35.6969C3.21301 35.4857 3.73238 35.2746 4.25174 35.0634L4.37058 35.6309C3.66636 35.9388 2.95333 36.2467 2.23151 36.5547C1.51848 36.8538 0.875876 37.1221 0.303696 37.3597L0 36.7526Z" fill="white"/>
<path d="M12.9929 31.0119H24.5201V31.6454H12.9929V31.0119ZM19.2121 31.2626C19.5202 32.3536 19.9295 33.3742 20.4401 34.3244C20.9506 35.2746 21.5624 36.106 22.2754 36.8186C22.9885 37.5224 23.7939 38.0723 24.6918 38.4682C24.639 38.5122 24.5818 38.5694 24.5201 38.6398C24.4673 38.7102 24.4101 38.7806 24.3485 38.851C24.2957 38.9213 24.2516 38.9873 24.2164 39.0489C23.2921 38.609 22.4647 38.0151 21.7341 37.2673C21.0122 36.5107 20.3916 35.6397 19.8723 34.6543C19.3529 33.6601 18.926 32.5824 18.5915 31.421L19.2121 31.2626ZM18.4462 27.0924H19.1196C19.1108 27.6115 19.0888 28.2053 19.0536 28.874C19.0272 29.5426 18.9612 30.2509 18.8556 30.9987C18.7499 31.7465 18.5783 32.5076 18.3406 33.2818C18.1029 34.0472 17.7684 34.7863 17.3371 35.4989C16.9057 36.2115 16.3556 36.8758 15.6866 37.4917C15.0175 38.1075 14.1945 38.6266 13.2174 39.0489C13.1646 38.9697 13.0897 38.8817 12.9929 38.785C12.9049 38.6882 12.8168 38.609 12.7288 38.5474C13.6883 38.1339 14.4938 37.6368 15.1452 37.0562C15.8054 36.4667 16.3424 35.8288 16.7561 35.1426C17.1786 34.4475 17.5043 33.7305 17.7332 32.9915C17.9621 32.2524 18.1249 31.5222 18.2217 30.8008C18.3186 30.0793 18.3802 29.4019 18.4066 28.7684C18.433 28.1349 18.4462 27.5763 18.4462 27.0924Z" fill="white"/>
<path d="M27.5175 33.7173H35.3476V39.0225H34.7006V34.2716H28.1513V39.0753H27.5175V33.7173ZM27.8476 35.8156H34.9514V36.3699H27.8476V35.8156ZM26.8441 28.2273H31.0826V28.7816H26.8441V28.2273ZM25.5237 30.2729H31.4523V30.8271H25.5237V30.2729ZM27.8476 37.9931H34.9514V38.5474H27.8476V37.9931ZM28.3758 28.4649H29.0096V29.679C29.0096 29.9869 28.9744 30.3213 28.9039 30.682C28.8335 31.0427 28.6927 31.4166 28.4814 31.8037C28.2789 32.182 27.9664 32.556 27.5439 32.9255C27.1214 33.2862 26.5492 33.6249 25.8273 33.9416C25.7833 33.8713 25.7217 33.7921 25.6425 33.7041C25.5633 33.6073 25.4884 33.5325 25.418 33.4798C26.1134 33.1982 26.6592 32.8947 27.0553 32.5692C27.4515 32.2436 27.742 31.9093 27.9268 31.5662C28.1205 31.2231 28.2437 30.8887 28.2965 30.5632C28.3494 30.2377 28.3758 29.9429 28.3758 29.679V28.4649ZM27.095 27.0528L27.7023 27.1848C27.5175 27.7302 27.2842 28.2625 27.0025 28.7816C26.7208 29.2919 26.4215 29.7274 26.1046 30.0881C26.0694 30.0529 26.0166 30.0133 25.9462 29.9693C25.8846 29.9253 25.8186 29.8858 25.7481 29.8506C25.6865 29.8066 25.6293 29.7758 25.5765 29.7582C25.911 29.4063 26.2059 28.9928 26.4612 28.5177C26.7252 28.0426 26.9365 27.5543 27.095 27.0528ZM28.6927 31.1703C28.8159 31.2407 28.9964 31.3506 29.234 31.5002C29.4717 31.641 29.727 31.7993 29.9999 31.9753C30.2728 32.1512 30.5236 32.314 30.7525 32.4636C30.9814 32.6043 31.1442 32.7099 31.2411 32.7803L30.8317 33.2686C30.7085 33.1718 30.5324 33.0442 30.3036 32.8859C30.0835 32.7187 29.8414 32.5472 29.5773 32.3712C29.3221 32.1864 29.0756 32.0149 28.8379 31.8565C28.609 31.6981 28.4286 31.5794 28.2965 31.5002L28.6927 31.1703ZM32.6671 28.7948V31.9621H35.8361V28.7948H32.6671ZM32.0597 28.2141H36.4699V32.556H32.0597V28.2141Z" fill="white"/>
<path d="M41.4611 36.0664H42.0949V37.9667C42.0949 38.1075 42.1477 38.1999 42.2533 38.2439C42.359 38.2967 42.6055 38.3231 42.9928 38.3231C43.0896 38.3231 43.2613 38.3231 43.5077 38.3231C43.763 38.3231 44.0447 38.3231 44.3528 38.3231C44.6609 38.3231 44.947 38.3231 45.2111 38.3231C45.484 38.3231 45.682 38.3231 45.8053 38.3231C46.0077 38.3231 46.1574 38.2923 46.2542 38.2307C46.3598 38.1779 46.4347 38.0591 46.4787 37.8744C46.5227 37.6808 46.5535 37.3905 46.5711 37.0034C46.6151 37.0386 46.6723 37.0737 46.7428 37.1089C46.8132 37.1441 46.8836 37.1749 46.954 37.2013C47.0244 37.2189 47.0861 37.2321 47.1389 37.2409C47.1125 37.6984 47.0597 38.0459 46.9804 38.2835C46.91 38.5298 46.7868 38.697 46.6107 38.785C46.4435 38.8729 46.1926 38.9169 45.8581 38.9169C45.8141 38.9169 45.6908 38.9169 45.4884 38.9169C45.2947 38.9169 45.0658 38.9169 44.8018 38.9169C44.5465 38.9169 44.2868 38.9169 44.0227 38.9169C43.7674 38.9169 43.5429 38.9169 43.3493 38.9169C43.1556 38.9169 43.0368 38.9169 42.9928 38.9169C42.5967 38.9169 42.2841 38.8905 42.0553 38.8378C41.8352 38.7938 41.6812 38.7014 41.5931 38.5606C41.5051 38.4198 41.4611 38.2219 41.4611 37.9667V36.0664ZM42.6363 35.842L43.0456 35.4725C43.4593 35.6221 43.8731 35.82 44.2868 36.0664C44.7093 36.3127 45.0394 36.5591 45.2771 36.8054L44.8678 37.2277C44.6301 36.9902 44.3 36.7438 43.8774 36.4887C43.4637 36.2247 43.05 36.0092 42.6363 35.842ZM47.1917 36.3831L47.6803 36.0532C48.006 36.2555 48.3228 36.4887 48.6309 36.7526C48.9478 37.0166 49.2339 37.2849 49.4892 37.5576C49.7533 37.8304 49.9602 38.0899 50.1098 38.3363L49.5817 38.6926C49.4408 38.455 49.2428 38.1999 48.9875 37.9272C48.741 37.6456 48.4593 37.3685 48.1424 37.0957C47.8343 36.823 47.5174 36.5855 47.1917 36.3831ZM39.9162 36.1456L40.4576 36.3567C40.2639 36.7966 40.0174 37.2321 39.7181 37.6632C39.4188 38.0855 39.0359 38.4286 38.5694 38.6926L38.0676 38.3363C38.5166 38.0899 38.8951 37.7688 39.2032 37.3729C39.5113 36.9682 39.749 36.5591 39.9162 36.1456ZM39.4541 31.8961H48.4329V35.3933H39.3748V34.8786H47.7991V32.4108H39.4541V31.8961ZM39.8502 33.361H48.0236V33.8625H39.8502V33.361ZM38.5562 27.8446H43.5606V28.3461H38.5562V27.8446ZM38.8335 29.1247H43.3757V29.613H38.8335V29.1247ZM40.7877 27.066H41.3951V31.685H40.7877V27.066ZM44.1283 27.8446H49.5552V28.3461H44.1283V27.8446ZM43.9699 30.418H49.7929V30.9195H43.9699V30.418ZM44.432 29.1247H49.344V29.613H44.432V29.1247ZM46.4787 27.066H47.0993V31.685H46.4787V27.066ZM38.3977 30.6028C38.8379 30.5764 39.3396 30.5456 39.903 30.5104C40.4752 30.4664 41.0826 30.4224 41.7252 30.3784C42.3678 30.3257 43.0192 30.2685 43.6794 30.2069V30.6952C42.7199 30.7832 41.778 30.8667 40.8537 30.9459C39.9382 31.0251 39.1372 31.0955 38.4506 31.1571L38.3977 30.6028Z" fill="white"/>
<path d="M50.9153 30.3389H54.4672V30.9459H50.9153V30.3389ZM52.447 27.2112H53.0676V36.0532H52.447V27.2112ZM50.7964 36.5415C51.263 36.3919 51.8264 36.1939 52.4866 35.9476C53.1468 35.6925 53.8202 35.4329 54.5068 35.169L54.6124 35.7628C53.9786 36.0092 53.3449 36.2555 52.7111 36.5019C52.0861 36.7482 51.5183 36.9726 51.0077 37.1749L50.7964 36.5415ZM55.3123 29.2039H62.6802V29.811H55.3123V29.2039ZM55.4443 31.8037H58.0323V32.3844H55.4443V31.8037ZM55.101 29.2039H55.7084V33.1498C55.7084 33.6073 55.6864 34.0956 55.6424 34.6147C55.6072 35.1338 55.5323 35.6573 55.4179 36.1851C55.3123 36.713 55.1494 37.2277 54.9293 37.7292C54.7181 38.2219 54.4408 38.675 54.0975 39.0885C54.0711 39.0445 54.0271 38.9961 53.9654 38.9433C53.9038 38.8905 53.8422 38.8422 53.7806 38.7982C53.719 38.7542 53.6661 38.719 53.6221 38.6926C54.0711 38.1647 54.3968 37.5796 54.5992 36.9374C54.8105 36.2951 54.9469 35.6485 55.0086 34.9974C55.0702 34.3464 55.101 33.7305 55.101 33.1498V29.2039ZM57.7682 31.8037H58.3624C58.3624 31.8037 58.3624 31.8433 58.3624 31.9225C58.3624 32.0017 58.358 32.0677 58.3492 32.1205C58.3404 33.1498 58.3228 33.968 58.2964 34.5751C58.2788 35.1822 58.248 35.6353 58.204 35.9344C58.16 36.2335 58.0984 36.4315 58.0191 36.5283C57.9399 36.6338 57.8519 36.7086 57.755 36.7526C57.6582 36.7966 57.5306 36.823 57.3721 36.8318C57.2401 36.8406 57.0596 36.845 56.8307 36.845C56.6107 36.845 56.3774 36.8362 56.1309 36.8186C56.1221 36.7306 56.1045 36.6338 56.0781 36.5283C56.0517 36.4139 56.0121 36.3215 55.9593 36.2511C56.2234 36.2687 56.4698 36.2819 56.6987 36.2907C56.9276 36.2907 57.0816 36.2907 57.1609 36.2907C57.3369 36.2907 57.4557 36.2511 57.5174 36.1719C57.5702 36.0928 57.6098 35.9124 57.6362 35.6309C57.6714 35.3493 57.6978 34.9138 57.7154 34.3244C57.7418 33.7261 57.7594 32.9255 57.7682 31.9225V31.8037ZM59.0754 27.066H59.7093C59.7004 28.1833 59.718 29.2391 59.7621 30.2333C59.8061 31.2187 59.8721 32.1293 59.9601 32.9651C60.0482 33.8009 60.1538 34.5487 60.277 35.2086C60.4003 35.8596 60.5411 36.4183 60.6996 36.8846C60.858 37.3509 61.0341 37.7072 61.2277 37.9536C61.4214 38.1911 61.6283 38.3099 61.8483 38.3099C62.0068 38.3099 62.1212 38.1339 62.1916 37.782C62.262 37.4213 62.3105 36.8362 62.3369 36.0268C62.4073 36.0884 62.4909 36.15 62.5878 36.2115C62.6934 36.2731 62.7858 36.3171 62.865 36.3435C62.8298 36.9858 62.7726 37.4961 62.6934 37.8744C62.623 38.2527 62.5129 38.5254 62.3633 38.6926C62.2224 38.8597 62.0244 38.9433 61.7691 38.9433C61.4522 38.9433 61.1617 38.8026 60.8976 38.521C60.6423 38.2483 60.4179 37.8568 60.2242 37.3465C60.0305 36.8362 59.8589 36.2247 59.7093 35.5121C59.5684 34.7907 59.454 33.99 59.3659 33.1102C59.2779 32.2216 59.2075 31.2714 59.1547 30.2597C59.1107 29.2391 59.0842 28.1745 59.0754 27.066ZM60.1054 27.5543L60.5279 27.2243C60.8448 27.4355 61.1705 27.6774 61.505 27.9502C61.8483 28.2229 62.1124 28.4649 62.2973 28.676L61.8483 29.0587C61.6723 28.8388 61.417 28.588 61.0825 28.3065C60.748 28.025 60.4223 27.7742 60.1054 27.5543ZM61.7295 31.3814L62.3369 31.487C61.8967 33.1762 61.2805 34.6455 60.4883 35.8948C59.7048 37.1353 58.7233 38.1603 57.5438 38.9697C57.5086 38.9345 57.4601 38.8861 57.3985 38.8246C57.3457 38.763 57.2885 38.7014 57.2269 38.6398C57.1652 38.587 57.108 38.543 57.0552 38.5078C58.2436 37.76 59.2163 36.7834 59.9733 35.5781C60.7392 34.3728 61.3246 32.9739 61.7295 31.3814Z" fill="white"/>
<path d="M69.0578 27H69.718V29.3623H69.0578V27ZM69.0578 29.5602H69.718V39.1149H69.0578V29.5602ZM63.5649 28.9928H75.3166V29.613H63.5649V28.9928ZM64.9777 31.6586H73.6264V32.2788H65.5983V37.3993H64.9777V31.6586ZM73.3756 31.6586H74.0226V36.4227C74.0226 36.6514 73.9874 36.823 73.9169 36.9374C73.8553 37.0518 73.7277 37.1397 73.534 37.2013C73.3404 37.2541 73.0543 37.2893 72.6757 37.3069C72.2972 37.3157 71.8087 37.3201 71.2101 37.3201C71.2013 37.2145 71.1705 37.1045 71.1177 36.9902C71.0736 36.8758 71.0296 36.7746 70.9856 36.6866C71.3289 36.6954 71.6414 36.7042 71.9231 36.713C72.2136 36.713 72.4557 36.713 72.6493 36.713C72.843 36.7042 72.9838 36.6998 73.0719 36.6998C73.1951 36.691 73.2743 36.669 73.3095 36.6338C73.3536 36.5899 73.3756 36.5195 73.3756 36.4227V31.6586Z" fill="white"/>
<path d="M82.6581 36.3567L82.9882 35.8948C83.5868 36.1324 84.181 36.3963 84.7708 36.6866C85.3605 36.977 85.9107 37.2761 86.4213 37.584C86.9318 37.892 87.3676 38.1911 87.7285 38.4814L87.3192 38.9697C86.9583 38.6706 86.5269 38.3715 86.0252 38.0723C85.5322 37.7644 84.9952 37.4653 84.4143 37.1749C83.8421 36.8758 83.2567 36.6031 82.6581 36.3567ZM81.3113 27.2243L81.9319 27.0396C82.1167 27.3123 82.3016 27.6115 82.4864 27.937C82.6713 28.2625 82.8033 28.5397 82.8826 28.7684L82.2488 29.006C82.1607 28.7684 82.0287 28.4825 81.8526 28.1481C81.6766 27.8138 81.4961 27.5059 81.3113 27.2243ZM76.7954 28.7288H87.4248V31.2099H86.7778V29.3359H77.4293V31.2099H76.7954V28.7288ZM82.3016 30.0617H82.9618C82.9266 31.0647 82.865 31.9797 82.7769 32.8067C82.6977 33.6337 82.5481 34.3772 82.328 35.037C82.1079 35.6969 81.7822 36.2819 81.3509 36.7922C80.9284 37.3025 80.3606 37.738 79.6475 38.0987C78.9433 38.4682 78.0542 38.7718 76.9803 39.0093C76.9539 38.9213 76.9011 38.8202 76.8219 38.7058C76.7514 38.6002 76.681 38.5122 76.6106 38.4418C77.6581 38.2307 78.5208 37.958 79.1986 37.6236C79.8764 37.2893 80.4178 36.8846 80.8227 36.4095C81.2364 35.9344 81.5402 35.3889 81.7338 34.7731C81.9363 34.1484 82.0727 33.4446 82.1431 32.6615C82.2224 31.8785 82.2752 31.0119 82.3016 30.0617ZM76.4786 34.8522H87.8077V35.4329H76.4786V34.8522ZM78.7365 30.6556L79.1458 30.2465C79.3835 30.3872 79.6255 30.5456 79.872 30.7216C80.1273 30.8975 80.365 31.0779 80.585 31.2626C80.8051 31.4386 80.9856 31.6058 81.1264 31.7641L80.7039 32.226C80.5806 32.0677 80.409 31.8961 80.1889 31.7113C79.9688 31.5266 79.7312 31.3418 79.4759 31.1571C79.2294 30.9635 78.9829 30.7964 78.7365 30.6556ZM77.4425 32.7407L77.8386 32.3184C78.0939 32.4504 78.3535 32.6087 78.6176 32.7935C78.8905 32.9695 79.1458 33.1542 79.3835 33.3478C79.6212 33.5325 79.8104 33.7041 79.9512 33.8625L79.5551 34.364C79.4055 34.188 79.2118 34.0032 78.9741 33.8097C78.7453 33.6161 78.4944 33.427 78.2215 33.2422C77.9574 33.0486 77.6977 32.8815 77.4425 32.7407Z" fill="white"/>
<path d="M92.9574 33.2686H93.5516C93.5516 33.2686 93.5516 33.3082 93.5516 33.3874C93.5516 33.4666 93.5471 33.5325 93.5383 33.5853C93.4591 34.7203 93.3799 35.6309 93.3007 36.3171C93.2214 36.9946 93.1334 37.5136 93.0366 37.8744C92.9398 38.2263 92.8209 38.4682 92.6801 38.6002C92.5832 38.7146 92.4732 38.7938 92.35 38.8378C92.2355 38.8817 92.0859 38.9125 91.901 38.9301C91.7426 38.9301 91.5181 38.9257 91.2276 38.9169C90.9459 38.9169 90.6466 38.9037 90.3297 38.8773C90.3209 38.7894 90.2989 38.6926 90.2637 38.587C90.2373 38.4814 90.1933 38.3847 90.1317 38.2967C90.4838 38.3319 90.8051 38.3539 91.0956 38.3627C91.3949 38.3715 91.6017 38.3759 91.7162 38.3759C91.8306 38.3759 91.923 38.3671 91.9934 38.3495C92.0639 38.3319 92.1299 38.2923 92.1915 38.2307C92.2972 38.1163 92.394 37.892 92.482 37.5576C92.5788 37.2145 92.6624 36.7086 92.7329 36.04C92.8121 35.3713 92.8869 34.4871 92.9574 33.3874V33.2686ZM88.6792 36.2907C89.1458 36.1763 89.6915 36.0312 90.3165 35.8552C90.9415 35.6793 91.5841 35.4945 92.2443 35.3009L92.3104 35.842C91.703 36.018 91.1 36.1983 90.5014 36.3831C89.9028 36.5679 89.3526 36.7306 88.8509 36.8714L88.6792 36.2907ZM89.1677 27.739H92.6669V28.3065H89.1677V27.739ZM92.4556 27.739H93.0366C93.0102 28.1965 92.9706 28.6848 92.9177 29.2039C92.8737 29.723 92.8253 30.2421 92.7725 30.7612C92.7197 31.2714 92.6669 31.7597 92.6141 32.226C92.57 32.6835 92.526 33.0838 92.482 33.427L91.8746 33.5193C91.9274 33.1498 91.9802 32.7275 92.0331 32.2524C92.0947 31.7773 92.1519 31.2758 92.2047 30.748C92.2575 30.2201 92.3059 29.6966 92.35 29.1775C92.394 28.6584 92.4292 28.1789 92.4556 27.739ZM89.7487 29.3491L90.3165 29.4019C90.2813 29.8682 90.2373 30.3784 90.1845 30.9327C90.1405 31.4782 90.0921 32.0061 90.0392 32.5164C89.9864 33.0179 89.9292 33.4578 89.8676 33.8361H89.2998C89.3614 33.449 89.4186 32.9959 89.4714 32.4768C89.5243 31.9489 89.5771 31.4122 89.6299 30.8667C89.6827 30.3125 89.7223 29.8066 89.7487 29.3491ZM89.5243 33.2686H93.1026V33.8361H89.5243V33.2686ZM97.2751 27.5147C97.5392 27.9986 97.8737 28.4957 98.2786 29.006C98.6924 29.5162 99.1325 30.0001 99.5991 30.4576C100.074 30.9063 100.532 31.289 100.972 31.6058C100.928 31.6498 100.88 31.7025 100.827 31.7641C100.774 31.8257 100.726 31.8917 100.682 31.9621C100.647 32.0237 100.616 32.0853 100.589 32.1469C100.14 31.7949 99.6739 31.377 99.1897 30.8931C98.7144 30.4092 98.2654 29.899 97.8429 29.3623C97.4292 28.8256 97.0859 28.3109 96.813 27.8182L97.2751 27.5147ZM97.0902 27.0132L97.658 27.1848C97.3675 27.871 97.011 28.5221 96.5885 29.1379C96.166 29.7538 95.7038 30.3213 95.2021 30.8403C94.7091 31.3506 94.1941 31.7993 93.6572 32.1864C93.6308 32.1425 93.5912 32.0897 93.5383 32.0281C93.4855 31.9665 93.4327 31.9049 93.3799 31.8433C93.3359 31.7817 93.2875 31.7289 93.2346 31.685C93.7804 31.333 94.2954 30.9195 94.7795 30.4444C95.2637 29.9605 95.7038 29.4327 96.0999 28.8608C96.4961 28.2801 96.8262 27.6643 97.0902 27.0132ZM95.2417 31.1967H99.0973V31.7773H95.2417V31.1967ZM94.3966 33.2026L94.9116 33.0838C95.0612 33.4182 95.1977 33.7789 95.3209 34.166C95.4529 34.5531 95.5674 34.9314 95.6642 35.3009C95.761 35.6617 95.8271 35.9872 95.8623 36.2775L95.3341 36.4095C95.2901 36.1192 95.2197 35.7892 95.1228 35.4197C95.026 35.0502 94.916 34.6763 94.7927 34.298C94.6695 33.9109 94.5374 33.5457 94.3966 33.2026ZM96.7469 32.8859L97.2751 32.8199C97.3632 33.1454 97.4468 33.5017 97.526 33.8889C97.6052 34.276 97.6712 34.6499 97.7241 35.0106C97.7857 35.3713 97.8253 35.6969 97.8429 35.9872L97.3015 36.0796C97.2839 35.7892 97.2443 35.4637 97.1827 35.103C97.1299 34.7335 97.0639 34.3552 96.9846 33.968C96.9142 33.5809 96.835 33.2202 96.7469 32.8859ZM99.7971 33.0706L100.405 33.2422C100.193 33.7525 99.9556 34.3024 99.6915 34.8918C99.4362 35.4725 99.1721 36.04 98.8992 36.5943C98.6351 37.1485 98.3755 37.6324 98.1202 38.0459L97.6448 37.8612C97.8209 37.562 98.0101 37.2145 98.2126 36.8186C98.4151 36.4139 98.6131 35.9916 98.8068 35.5517C99.0005 35.1118 99.1853 34.6807 99.3614 34.2584C99.5374 33.8273 99.6827 33.4314 99.7971 33.0706ZM93.9213 37.782H100.576V38.3759H93.9213V37.782Z" fill="white"/>
<path d="M107.099 33.6249H107.746V38.3099H107.099V33.6249ZM103.125 30.3257H111.905V30.9063H103.125V30.3257ZM101.646 38.0987H113.318V38.6794H101.646V38.0987ZM102.86 35.4593H112.09V36.0532H102.86V35.4593ZM106.082 30.5896L106.703 30.8008C106.518 31.1263 106.311 31.465 106.082 31.8169C105.862 32.16 105.638 32.4944 105.409 32.8199C105.18 33.1454 104.96 33.4314 104.749 33.6777L104.26 33.4666C104.471 33.2114 104.687 32.9167 104.907 32.5824C105.127 32.2392 105.338 31.8917 105.541 31.5398C105.752 31.1879 105.933 30.8711 106.082 30.5896ZM102.636 33.2554C103.349 33.2466 104.194 33.229 105.171 33.2026C106.148 33.1762 107.187 33.1454 108.287 33.1102C109.388 33.075 110.492 33.0398 111.602 33.0047L111.562 33.5589C110.488 33.6029 109.405 33.6469 108.314 33.6909C107.231 33.7349 106.206 33.7745 105.237 33.8097C104.269 33.8361 103.415 33.8581 102.676 33.8757L102.636 33.2554ZM109.106 31.8433L109.568 31.487C109.964 31.7245 110.365 31.9929 110.77 32.292C111.183 32.5824 111.566 32.8815 111.919 33.1894C112.271 33.4973 112.557 33.7833 112.777 34.0472L112.288 34.4431C112.077 34.1792 111.795 33.8933 111.443 33.5853C111.1 33.2686 110.721 32.9607 110.308 32.6615C109.903 32.3536 109.502 32.0809 109.106 31.8433ZM107.099 27.066H107.746V28.5573H107.099V27.066ZM101.857 28.1613H113.094V30.418H112.46V28.7552H102.478V30.418H101.857V28.1613Z" fill="white"/>
</svg>
