<svg width="95" height="24" viewBox="0 0 95 24" fill="none" xmlns="http://www.w3.org/2000/svg">
<path d="M3.875 12.85H19.275V23.125H17.375V14.4H5.725V23.175H3.875V12.85ZM4.925 16.75H18.05V18.225H4.925V16.75ZM2.925 2.25H10.925V3.775H2.925V2.25ZM0.25 6.15H11.575V7.7H0.25V6.15ZM4.925 20.7H18.05V22.25H4.925V20.7ZM5.45 2.775H7.225V5.25C7.225 5.85 7.15833 6.5 7.025 7.2C6.89167 7.9 6.61667 8.61667 6.2 9.35C5.8 10.0833 5.2 10.8 4.4 11.5C3.6 12.1833 2.54167 12.825 1.225 13.425C1.09167 13.225 0.908333 13 0.675 12.75C0.441667 12.4833 0.216667 12.275 0 12.125C1.26667 11.625 2.26667 11.0833 3 10.5C3.73333 9.9 4.275 9.29167 4.625 8.675C4.975 8.05833 5.2 7.45833 5.3 6.875C5.4 6.275 5.45 5.73333 5.45 5.25V2.775ZM3.05 0.1L4.775 0.45C4.44167 1.51667 4 2.55 3.45 3.55C2.91667 4.53333 2.35 5.36667 1.75 6.05C1.63333 5.95 1.48333 5.84167 1.3 5.725C1.11667 5.60833 0.925 5.49167 0.725 5.375C0.541667 5.25833 0.383333 5.175 0.25 5.125C0.883333 4.475 1.44167 3.70833 1.925 2.825C2.40833 1.94167 2.78333 1.03333 3.05 0.1ZM6.675 8.05C6.90833 8.18333 7.24167 8.38333 7.675 8.65C8.125 8.9 8.59167 9.175 9.075 9.475C9.575 9.775 10.0333 10.0583 10.45 10.325C10.8833 10.575 11.1917 10.7667 11.375 10.9L10.075 12.175C9.84167 11.9917 9.51667 11.75 9.1 11.45C8.7 11.15 8.26667 10.8333 7.8 10.5C7.35 10.1667 6.90833 9.85833 6.475 9.575C6.05833 9.29167 5.71667 9.06667 5.45 8.9L6.675 8.05ZM14.375 3.9V9.225H19.575V3.9H14.375ZM12.625 2.2H21.4V10.925H12.625V2.2Z" fill="white"/>
<path d="M28.2 0.150001L30.125 0.625001C29.825 1.30833 29.5 2.025 29.15 2.775C28.8167 3.50833 28.4667 4.20833 28.1 4.875C27.75 5.54167 27.4083 6.14167 27.075 6.675L25.45 6.225C25.7833 5.675 26.1167 5.05 26.45 4.35C26.8 3.63333 27.125 2.90833 27.425 2.175C27.7417 1.425 28 0.75 28.2 0.150001ZM24 5.475C24.8667 5.44167 25.8667 5.40833 27 5.375C28.1333 5.325 29.3417 5.275 30.625 5.225C31.9083 5.15833 33.2 5.1 34.5 5.05L34.475 6.7C33.2417 6.78333 32 6.85833 30.75 6.925C29.5167 6.99167 28.3333 7.05833 27.2 7.125C26.0833 7.19167 25.0667 7.25 24.15 7.3L24 5.475ZM25.5 9.075H33.425V10.675H27.25V23.15H25.5V9.075ZM32.575 9.075H34.425V21C34.425 21.4833 34.3667 21.8583 34.25 22.125C34.1333 22.4083 33.9 22.6333 33.55 22.8C33.2 22.9333 32.75 23.0167 32.2 23.05C31.65 23.0833 30.9833 23.1 30.2 23.1C30.15 22.85 30.0667 22.5583 29.95 22.225C29.8333 21.8917 29.7083 21.6083 29.575 21.375C30.1583 21.3917 30.6917 21.4 31.175 21.4C31.6583 21.4167 31.9917 21.4167 32.175 21.4C32.3417 21.4 32.45 21.3667 32.5 21.3C32.55 21.25 32.575 21.1417 32.575 20.975V9.075ZM26.35 12.825H33.55V14.3H26.35V12.825ZM26.35 16.575H33.55V18.05H26.35V16.575ZM36.775 0.225H38.65V8.5C38.65 8.9 38.725 9.15833 38.875 9.275C39.0417 9.39167 39.4167 9.45 40 9.45C40.1167 9.45 40.35 9.45 40.7 9.45C41.0667 9.45 41.4667 9.45 41.9 9.45C42.3333 9.45 42.7417 9.45 43.125 9.45C43.5083 9.45 43.7833 9.45 43.95 9.45C44.2833 9.45 44.5333 9.38333 44.7 9.25C44.8667 9.1 44.9833 8.825 45.05 8.425C45.1167 8.00833 45.1667 7.38333 45.2 6.55C45.35 6.65 45.5167 6.75 45.7 6.85C45.9 6.95 46.1083 7.04167 46.325 7.125C46.5417 7.19167 46.7333 7.24167 46.9 7.275C46.8333 8.29167 46.7083 9.08333 46.525 9.65C46.3417 10.2167 46.0583 10.6083 45.675 10.825C45.3083 11.0417 44.7917 11.15 44.125 11.15C44.0083 11.15 43.8 11.15 43.5 11.15C43.2167 11.15 42.8833 11.15 42.5 11.15C42.1333 11.15 41.7583 11.15 41.375 11.15C41.0083 11.15 40.6833 11.15 40.4 11.15C40.1167 11.15 39.925 11.15 39.825 11.15C39.025 11.15 38.4 11.075 37.95 10.925C37.5167 10.775 37.2083 10.5083 37.025 10.125C36.8583 9.74167 36.775 9.20833 36.775 8.525V0.225ZM44.45 2.05L45.7 3.45C44.9833 3.76667 44.1917 4.09167 43.325 4.425C42.4583 4.74167 41.5667 5.04167 40.65 5.325C39.7333 5.60833 38.8417 5.875 37.975 6.125C37.9417 5.94167 37.8667 5.725 37.75 5.475C37.65 5.20833 37.5417 4.98333 37.425 4.8C38.2417 4.55 39.0833 4.26667 39.95 3.95C40.8167 3.63333 41.6417 3.31667 42.425 3C43.2083 2.66667 43.8833 2.35 44.45 2.05ZM36.775 11.85H38.625V20.3C38.625 20.7 38.7083 20.9667 38.875 21.1C39.0583 21.2167 39.45 21.275 40.05 21.275C40.1833 21.275 40.4333 21.275 40.8 21.275C41.1667 21.275 41.575 21.275 42.025 21.275C42.4917 21.275 42.9167 21.275 43.3 21.275C43.7 21.275 43.9917 21.275 44.175 21.275C44.525 21.275 44.7917 21.2 44.975 21.05C45.1583 20.9 45.2833 20.5917 45.35 20.125C45.4167 19.6417 45.4667 18.925 45.5 17.975C45.7333 18.125 46.0083 18.2667 46.325 18.4C46.6583 18.5333 46.95 18.6333 47.2 18.7C47.1333 19.8167 47.0083 20.6833 46.825 21.3C46.6417 21.9167 46.35 22.3417 45.95 22.575C45.5667 22.825 45.025 22.95 44.325 22.95C44.2083 22.95 44 22.95 43.7 22.95C43.4 22.95 43.0583 22.95 42.675 22.95C42.2917 22.95 41.9 22.95 41.5 22.95C41.1 22.95 40.75 22.95 40.45 22.95C40.1667 22.95 39.975 22.95 39.875 22.95C39.075 22.95 38.4417 22.875 37.975 22.725C37.525 22.575 37.2083 22.3083 37.025 21.925C36.8583 21.5417 36.775 21 36.775 20.3V11.85ZM44.75 13.2L45.975 14.6C45.2917 15 44.5 15.3833 43.6 15.75C42.7 16.1 41.7667 16.4333 40.8 16.75C39.8333 17.05 38.9 17.325 38 17.575C37.95 17.3917 37.8667 17.1667 37.75 16.9C37.6333 16.6333 37.525 16.4083 37.425 16.225C38.2917 15.975 39.175 15.6833 40.075 15.35C40.9917 15.0167 41.8583 14.6667 42.675 14.3C43.4917 13.9333 44.1833 13.5667 44.75 13.2ZM31.325 2.525L32.875 1.925C33.325 2.49167 33.7583 3.11667 34.175 3.8C34.6083 4.46667 35 5.125 35.35 5.775C35.7 6.425 35.9667 7.00833 36.15 7.525L34.525 8.25C34.3583 7.73333 34.1 7.14167 33.75 6.475C33.4167 5.80833 33.0333 5.13333 32.6 4.45C32.1833 3.76667 31.7583 3.125 31.325 2.525Z" fill="white"/>
<path d="M48.225 4.925H55.8V6.675H48.225V4.925ZM51.475 0.175001H53.2V23.15H51.475V0.175001ZM51.425 6.05L52.55 6.425C52.3833 7.40833 52.1667 8.43333 51.9 9.5C51.65 10.5667 51.3583 11.6083 51.025 12.625C50.6917 13.6417 50.3333 14.5917 49.95 15.475C49.5833 16.3417 49.1917 17.0917 48.775 17.725C48.7083 17.5417 48.6167 17.3417 48.5 17.125C48.4 16.8917 48.2833 16.6667 48.15 16.45C48.0333 16.2333 47.925 16.05 47.825 15.9C48.1917 15.35 48.5583 14.6917 48.925 13.925C49.2917 13.1583 49.6333 12.3333 49.95 11.45C50.2667 10.55 50.55 9.64167 50.8 8.725C51.0667 7.79167 51.275 6.9 51.425 6.05ZM53.125 7.6C53.2417 7.78333 53.4333 8.09167 53.7 8.525C53.9833 8.94167 54.2833 9.40833 54.6 9.925C54.9333 10.425 55.225 10.8917 55.475 11.325C55.7417 11.7417 55.925 12.05 56.025 12.25L54.9 13.575C54.7667 13.2583 54.575 12.8583 54.325 12.375C54.0917 11.8917 53.8417 11.3833 53.575 10.85C53.3083 10.3167 53.05 9.825 52.8 9.375C52.55 8.90833 52.35 8.55834 52.2 8.325L53.125 7.6ZM63.4 1C63.8 1.63333 64.3 2.29167 64.9 2.975C65.5 3.64167 66.15 4.3 66.85 4.95C67.55 5.6 68.2667 6.20833 69 6.775C69.75 7.325 70.4667 7.8 71.15 8.2C71.0333 8.33333 70.9083 8.50833 70.775 8.725C70.6583 8.925 70.55 9.13333 70.45 9.35C70.35 9.55 70.2583 9.73333 70.175 9.9C69.2083 9.25 68.2083 8.48333 67.175 7.6C66.1583 6.71667 65.2 5.775 64.3 4.775C63.4 3.775 62.6417 2.81667 62.025 1.9L63.4 1ZM62.6 0L64.25 0.600001C63.6167 1.88333 62.85 3.11667 61.95 4.3C61.0667 5.46667 60.1083 6.55 59.075 7.55C58.0417 8.55 56.9833 9.425 55.9 10.175C55.8333 10.0417 55.725 9.88333 55.575 9.7C55.4417 9.5 55.3 9.30833 55.15 9.125C55.0167 8.925 54.8917 8.75833 54.775 8.625C55.825 7.975 56.8417 7.20833 57.825 6.325C58.8083 5.425 59.7083 4.44167 60.525 3.375C61.3417 2.29167 62.0333 1.16667 62.6 0ZM58.7 7.925H67.175V9.55H58.7V7.925ZM56.925 12.3L58.4 11.925C58.65 12.5417 58.8833 13.2167 59.1 13.95C59.3333 14.6667 59.5333 15.375 59.7 16.075C59.8833 16.7583 60.0083 17.3667 60.075 17.9L58.525 18.35C58.475 17.8 58.3583 17.175 58.175 16.475C58.0083 15.775 57.8167 15.0667 57.6 14.35C57.3833 13.6167 57.1583 12.9333 56.925 12.3ZM61.775 11.6L63.25 11.4C63.4167 12.0333 63.575 12.7083 63.725 13.425C63.875 14.1417 64 14.8417 64.1 15.525C64.2167 16.2083 64.3 16.8167 64.35 17.35L62.775 17.625C62.7417 17.075 62.675 16.4583 62.575 15.775C62.475 15.075 62.35 14.3667 62.2 13.65C62.0667 12.9167 61.925 12.2333 61.775 11.6ZM68.05 11.4L69.725 11.85C69.325 12.85 68.875 13.9083 68.375 15.025C67.8917 16.1417 67.4 17.225 66.9 18.275C66.4 19.325 65.9167 20.2417 65.45 21.025L64.075 20.6C64.425 20 64.7833 19.325 65.15 18.575C65.5167 17.8083 65.875 17.0083 66.225 16.175C66.5917 15.325 66.9333 14.4917 67.25 13.675C67.5667 12.8583 67.8333 12.1 68.05 11.4ZM55.575 20.3H70.45V21.975H55.575V20.3Z" fill="white"/>
<path d="M83.15 18.875L84.325 18.15C84.7583 18.55 85.1917 18.9917 85.625 19.475C86.075 19.9583 86.4917 20.4333 86.875 20.9C87.275 21.3667 87.5917 21.7833 87.825 22.15L86.6 23C86.3667 22.6333 86.0583 22.2083 85.675 21.725C85.3083 21.2417 84.9 20.75 84.45 20.25C84.0167 19.75 83.5833 19.2917 83.15 18.875ZM78.8 1.625H87.225V17.25H85.7V3.075H80.275V17.325H78.8V1.625ZM92.675 0.500001H94.225V21C94.225 21.5167 94.15 21.9083 94 22.175C93.8667 22.4417 93.65 22.6417 93.35 22.775C93.0167 22.9083 92.575 22.9917 92.025 23.025C91.475 23.075 90.7583 23.0917 89.875 23.075C89.8417 22.875 89.7667 22.6167 89.65 22.3C89.55 22 89.4417 21.7333 89.325 21.5C89.9917 21.5167 90.5833 21.525 91.1 21.525C91.6333 21.525 91.9917 21.5167 92.175 21.5C92.5083 21.5 92.675 21.3333 92.675 21V0.500001ZM89.25 2.425H90.75V17.4H89.25V2.425ZM82.15 4.85H83.6V13.725C83.6 14.5583 83.5333 15.4083 83.4 16.275C83.2833 17.1417 83.0417 17.9917 82.675 18.825C82.325 19.6583 81.8 20.4417 81.1 21.175C80.4167 21.9083 79.5167 22.5583 78.4 23.125C78.35 23.025 78.2667 22.9 78.15 22.75C78.0333 22.6 77.9167 22.45 77.8 22.3C77.6833 22.15 77.575 22.0417 77.475 21.975C78.5083 21.4417 79.3333 20.8583 79.95 20.225C80.5833 19.575 81.0583 18.8917 81.375 18.175C81.6917 17.4583 81.9 16.725 82 15.975C82.1 15.2083 82.15 14.45 82.15 13.7V4.85ZM73.025 1.775L74.15 0.45C74.6 0.683333 75.0833 0.958333 75.6 1.275C76.1167 1.575 76.6083 1.88333 77.075 2.2C77.5417 2.5 77.925 2.775 78.225 3.025L77.075 4.55C76.7917 4.28333 76.4167 3.98333 75.95 3.65C75.5 3.31667 75.0167 2.99167 74.5 2.675C73.9833 2.34167 73.4917 2.04167 73.025 1.775ZM71.95 8.525L73.025 7.175C73.4917 7.40833 73.975 7.675 74.475 7.975C74.9917 8.275 75.4917 8.575 75.975 8.875C76.4583 9.15833 76.8583 9.425 77.175 9.675L76.05 11.175C75.7667 10.925 75.3833 10.6417 74.9 10.325C74.4333 10.0083 73.9417 9.69167 73.425 9.375C72.9083 9.05833 72.4167 8.775 71.95 8.525ZM72.45 21.85C72.8 21.2 73.1667 20.4333 73.55 19.55C73.95 18.6667 74.35 17.7333 74.75 16.75C75.15 15.75 75.5167 14.7917 75.85 13.875L77.35 14.85C77.05 15.7167 76.7167 16.625 76.35 17.575C76 18.5083 75.6333 19.4333 75.25 20.35C74.8667 21.25 74.5 22.0833 74.15 22.85L72.45 21.85Z" fill="white"/>
</svg>
