<svg width="133" height="24" viewBox="0 0 133 24" fill="none" xmlns="http://www.w3.org/2000/svg">
<path d="M6.17898 21.2486C5.0071 21.2486 3.96247 21.0473 3.0451 20.6449C2.13364 20.2424 1.40861 19.6831 0.870026 18.967C0.337355 18.2449 0.0473484 17.4074 0 16.4545H2.23721C2.28456 17.0405 2.4858 17.5465 2.84091 17.9727C3.19603 18.3929 3.66063 18.7184 4.23473 18.9492C4.80883 19.18 5.44507 19.2955 6.14346 19.2955C6.92471 19.2955 7.61719 19.1593 8.22088 18.8871C8.82457 18.6148 9.29806 18.236 9.64133 17.7507C9.98461 17.2654 10.1562 16.7031 10.1562 16.0639C10.1562 15.3951 9.99053 14.8062 9.65909 14.2972C9.32765 13.7823 8.84233 13.3799 8.20312 13.0898C7.56392 12.7998 6.78267 12.6548 5.85938 12.6548H4.40341V10.7017H5.85938C6.58144 10.7017 7.21472 10.5715 7.75923 10.3111C8.30966 10.0507 8.73875 9.68371 9.04652 9.21023C9.3602 8.73674 9.51704 8.1804 9.51704 7.54119C9.51704 6.92566 9.38092 6.39003 9.10867 5.9343C8.83641 5.47857 8.4517 5.12346 7.95454 4.86897C7.4633 4.61447 6.88328 4.48722 6.21449 4.48722C5.58712 4.48722 4.99526 4.60263 4.43892 4.83345C3.88849 5.05836 3.43868 5.38684 3.08949 5.81889C2.74029 6.24503 2.5509 6.75994 2.52131 7.36364H0.390625C0.426136 6.41075 0.713189 5.57623 1.25178 4.86008C1.79037 4.13802 2.49467 3.57576 3.3647 3.1733C4.24065 2.77084 5.20241 2.5696 6.25 2.5696C7.37453 2.5696 8.33925 2.79747 9.14417 3.2532C9.9491 3.70301 10.5676 4.29782 10.9996 5.03764C11.4317 5.77746 11.6477 6.57647 11.6477 7.43466C11.6477 8.45857 11.3784 9.33156 10.8398 10.0536C10.3072 10.7757 9.58215 11.2758 8.66477 11.554V11.696C9.81297 11.8854 10.7096 12.3737 11.3548 13.1609C11.9999 13.9421 12.3224 14.9098 12.3224 16.0639C12.3224 17.0523 12.0531 17.9401 11.5146 18.7273C10.9819 19.5085 10.2539 20.1241 9.33061 20.5739C8.40732 21.0237 7.35677 21.2486 6.17898 21.2486Z" fill="white"/>
<path d="M20.8839 21H15.2731V2.81818H21.1325C22.8962 2.81818 24.4054 3.18217 25.6602 3.91016C26.9149 4.63222 27.8767 5.67093 28.5455 7.02628C29.2143 8.37571 29.5487 9.99148 29.5487 11.8736C29.5487 13.7675 29.2113 15.3981 28.5366 16.7653C27.8619 18.1265 26.8794 19.1741 25.5891 19.908C24.2989 20.636 22.7305 21 20.8839 21ZM17.4748 19.0469H20.7418C22.2451 19.0469 23.491 18.7569 24.4794 18.1768C25.4678 17.5968 26.2047 16.7712 26.69 15.6999C27.1753 14.6287 27.418 13.3532 27.418 11.8736C27.418 10.4058 27.1783 9.14216 26.6989 8.08274C26.2195 7.0174 25.5033 6.20064 24.5504 5.63246C23.5975 5.05836 22.4109 4.77131 20.9904 4.77131H17.4748V19.0469Z" fill="white"/>
<path d="M37.0464 13.225C37.8464 13.025 38.7547 12.7917 39.7714 12.525C40.788 12.2417 41.863 11.9417 42.9964 11.625C44.1297 11.2917 45.263 10.9667 46.3964 10.65L46.6464 12.425C45.063 12.8917 43.4714 13.3667 41.8714 13.85C40.288 14.3333 38.8714 14.75 37.6214 15.1L37.0464 13.225ZM37.2714 5.05H46.3714V6.85H37.2714V5.05ZM41.0464 0H42.8964V20.525C42.8964 21.0417 42.8297 21.4417 42.6964 21.725C42.563 22.0083 42.3297 22.2333 41.9964 22.4C41.663 22.55 41.2214 22.6417 40.6714 22.675C40.1214 22.725 39.413 22.75 38.5464 22.75C38.513 22.5 38.438 22.2 38.3214 21.85C38.2047 21.5167 38.0797 21.225 37.9464 20.975C38.5297 20.9917 39.063 21 39.5464 21C40.0464 21 40.3797 20.9917 40.5464 20.975C40.8797 20.975 41.0464 20.8167 41.0464 20.5V0ZM46.5214 2.1H60.0964V3.975H46.5214V2.1ZM53.6464 2.775H55.6464V20.25C55.6464 20.8833 55.5547 21.375 55.3714 21.725C55.1881 22.075 54.8714 22.3333 54.4214 22.5C53.9547 22.6667 53.3214 22.7667 52.5214 22.8C51.7214 22.8333 50.7297 22.85 49.5464 22.85C49.513 22.6667 49.4547 22.45 49.3714 22.2C49.288 21.9667 49.1964 21.725 49.0964 21.475C48.9964 21.225 48.888 21.0083 48.7714 20.825C49.4047 20.8417 50.0047 20.8583 50.5714 20.875C51.138 20.8917 51.6297 20.9 52.0464 20.9C52.4797 20.8833 52.788 20.8667 52.9714 20.85C53.2214 20.85 53.3964 20.8083 53.4964 20.725C53.5964 20.625 53.6464 20.4583 53.6464 20.225V2.775Z" fill="white"/>
<path d="M63.5714 8.725H71.4714V10.55H63.5714V8.725ZM63.5714 16.625H71.5964V18.425H63.5714V16.625ZM81.2214 1.75H83.1214V16.675C83.1214 17.2083 83.0464 17.65 82.8964 18C82.763 18.3333 82.4964 18.5833 82.0964 18.75C81.6964 18.9167 81.1631 19.025 80.4964 19.075C79.8464 19.125 79.0547 19.15 78.1214 19.15C78.088 18.95 78.0297 18.7333 77.9464 18.5C77.8797 18.25 77.7964 18.0083 77.6964 17.775C77.5964 17.525 77.4964 17.3083 77.3964 17.125C78.1464 17.1417 78.8297 17.1583 79.4464 17.175C80.0797 17.175 80.5047 17.175 80.7214 17.175C80.9214 17.1583 81.0547 17.1167 81.1214 17.05C81.188 16.9833 81.2214 16.85 81.2214 16.65V1.75ZM62.6464 2.25L64.5214 2.95V20.575H62.6464V2.25ZM70.2964 0.0499992L71.8964 1.6C71.1464 1.95 70.313 2.3 69.3964 2.65C68.4964 2.98333 67.563 3.3 66.5964 3.6C65.6297 3.9 64.688 4.18333 63.7714 4.45C63.7214 4.21667 63.6297 3.95 63.4964 3.65C63.3797 3.35 63.2547 3.09167 63.1214 2.875C63.9714 2.625 64.838 2.34167 65.7214 2.025C66.6214 1.70833 67.4631 1.375 68.2464 1.025C69.0464 0.675001 69.7297 0.349999 70.2964 0.0499992ZM73.1464 1.75H82.2714V3.625H75.0464V22.9H73.1464V1.75Z" fill="white"/>
<path d="M93.5214 3.925H107.296V5.675H93.5214V3.925ZM94.0214 9.45H105.046V11.175H94.0214V9.45ZM99.4214 0H101.271V10.425H99.4214V0ZM96.4464 10.7C97.3964 13.3333 98.863 15.5833 100.846 17.45C102.83 19.3167 105.28 20.6333 108.196 21.4C108.063 21.5333 107.913 21.6917 107.746 21.875C107.596 22.075 107.455 22.275 107.321 22.475C107.188 22.675 107.071 22.8583 106.971 23.025C103.971 22.125 101.455 20.6667 99.4214 18.65C97.4047 16.6333 95.8547 14.15 94.7714 11.2L96.4464 10.7ZM104.896 9.45H105.246L105.596 9.375L106.796 9.9C106.263 11.6833 105.538 13.2833 104.621 14.7C103.705 16.1167 102.638 17.3667 101.421 18.45C100.221 19.5167 98.9131 20.425 97.4964 21.175C96.0964 21.925 94.6297 22.525 93.0964 22.975C93.0297 22.8083 92.938 22.6167 92.8214 22.4C92.7214 22.2 92.6047 21.9917 92.4714 21.775C92.338 21.575 92.2047 21.4167 92.0714 21.3C93.5047 20.9167 94.888 20.3917 96.2214 19.725C97.5714 19.0583 98.813 18.25 99.9464 17.3C101.096 16.3333 102.096 15.225 102.946 13.975C103.796 12.7083 104.446 11.3083 104.896 9.775V9.45ZM84.9964 13.225C85.6964 13.0583 86.4881 12.8583 87.3714 12.625C88.2547 12.375 89.188 12.1167 90.1714 11.85C91.1714 11.5667 92.163 11.2833 93.1464 11L93.3964 12.725C92.0297 13.1417 90.6547 13.55 89.2714 13.95C87.9047 14.35 86.663 14.7167 85.5464 15.05L84.9964 13.225ZM85.2964 5.05H93.1464V6.825H85.2964V5.05ZM88.5214 0H90.3714V20.725C90.3714 21.2583 90.3047 21.6667 90.1714 21.95C90.038 22.2333 89.8047 22.45 89.4714 22.6C89.138 22.75 88.6964 22.8417 88.1464 22.875C87.613 22.925 86.913 22.9417 86.0464 22.925C86.013 22.6917 85.938 22.4083 85.8214 22.075C85.7047 21.7583 85.588 21.4667 85.4714 21.2C86.0547 21.2167 86.588 21.225 87.0714 21.225C87.5547 21.225 87.8797 21.225 88.0464 21.225C88.363 21.225 88.5214 21.0583 88.5214 20.725V0Z" fill="white"/>
<path d="M122.021 7.5C122.588 8.51667 123.263 9.54167 124.046 10.575C124.83 11.5917 125.671 12.5917 126.571 13.575C127.488 14.5417 128.413 15.4333 129.346 16.25C130.296 17.05 131.221 17.725 132.121 18.275C131.955 18.4083 131.771 18.575 131.571 18.775C131.388 18.9583 131.213 19.15 131.046 19.35C130.88 19.55 130.73 19.7417 130.596 19.925C129.713 19.275 128.805 18.5083 127.871 17.625C126.938 16.7417 126.021 15.7833 125.121 14.75C124.221 13.7 123.371 12.6167 122.571 11.5C121.771 10.3667 121.063 9.25 120.446 8.15L122.021 7.5ZM119.396 7.55L121.096 8.175C120.496 9.40833 119.796 10.6083 118.996 11.775C118.213 12.9417 117.355 14.05 116.421 15.1C115.488 16.1333 114.505 17.075 113.471 17.925C112.455 18.775 111.43 19.5083 110.396 20.125C110.28 19.9583 110.138 19.775 109.971 19.575C109.805 19.375 109.63 19.175 109.446 18.975C109.28 18.775 109.113 18.6167 108.946 18.5C109.98 17.9667 111.005 17.3083 112.021 16.525C113.038 15.7417 114.005 14.8667 114.921 13.9C115.838 12.9167 116.68 11.8917 117.446 10.825C118.213 9.74167 118.863 8.65 119.396 7.55ZM109.746 6.325H131.271V8.175H109.746V6.325ZM119.596 0.0249996H121.646V23H119.596V0.0249996ZM123.246 1.6L124.596 0.425001C125.113 0.775001 125.655 1.16667 126.221 1.6C126.805 2.03334 127.355 2.45833 127.871 2.875C128.388 3.29167 128.813 3.66667 129.146 4L127.721 5.35C127.405 5 126.988 4.60833 126.471 4.175C125.971 3.725 125.438 3.275 124.871 2.825C124.305 2.375 123.763 1.96667 123.246 1.6Z" fill="white"/>
</svg>
