<svg width="122" height="30" viewBox="0 0 122 30" fill="none" xmlns="http://www.w3.org/2000/svg">
<path d="M3.936 4.384H28.992V6.656H3.936V4.384ZM2.72 4.384H5.152V13.12C5.152 14.336 5.10933 15.6693 5.024 17.12C4.96 18.5707 4.82133 20.0533 4.608 21.568C4.39467 23.0827 4.08533 24.5547 3.68 25.984C3.27467 27.4133 2.752 28.7253 2.112 29.92C1.96267 29.7707 1.74933 29.6107 1.472 29.44C1.216 29.2693 0.949333 29.0987 0.672 28.928C0.416 28.7787 0.192 28.6613 0 28.576C0.618667 27.4453 1.10933 26.2187 1.472 24.896C1.83467 23.5733 2.10133 22.2293 2.272 20.864C2.464 19.4773 2.58133 18.1227 2.624 16.8C2.688 15.4773 2.72 14.2507 2.72 13.12V4.384ZM13.824 0.639999L16.16 0C16.5653 0.704 16.96 1.472 17.344 2.304C17.728 3.11467 18.0267 3.808 18.24 4.384L15.776 5.12C15.6053 4.52267 15.328 3.79733 14.944 2.944C14.56 2.09067 14.1867 1.32267 13.824 0.639999ZM7.296 11.456L9.376 10.592C9.84533 11.7653 10.3147 13.0133 10.784 14.336C11.2533 15.6373 11.68 16.9173 12.064 18.176C12.4693 19.4133 12.7893 20.5333 13.024 21.536L10.752 22.464C10.56 21.4613 10.272 20.3307 9.888 19.072C9.504 17.8133 9.07733 16.5227 8.608 15.2C8.16 13.856 7.72267 12.608 7.296 11.456ZM14.24 9.664L16.416 9.056C16.8 10.2293 17.1733 11.4667 17.536 12.768C17.8987 14.0693 18.2293 15.3493 18.528 16.608C18.8267 17.8453 19.0507 18.9653 19.2 19.968L16.896 20.672C16.7467 19.6693 16.5227 18.5387 16.224 17.28C15.9467 16 15.6267 14.7093 15.264 13.408C14.9227 12.0853 14.5813 10.8373 14.24 9.664ZM25.056 8.864L27.584 9.792C27.008 11.776 26.3147 13.8133 25.504 15.904C24.7147 17.9947 23.8187 20.0533 22.816 22.08C21.8347 24.0853 20.7573 25.984 19.584 27.776C19.4133 27.5627 19.168 27.3173 18.848 27.04C18.5493 26.7413 18.272 26.496 18.016 26.304C19.104 24.6187 20.096 22.7947 20.992 20.832C21.9093 18.848 22.7093 16.832 23.392 14.784C24.096 12.736 24.6507 10.7627 25.056 8.864ZM5.536 25.888H29.408V28.192H5.536V25.888Z" fill="white"/>
<path d="M35.84 2.496H56.544V4.8H35.84V2.496ZM35.84 9.952H56.48V12.224H35.84V9.952ZM35.648 17.6H56.544V19.872H35.648V17.6ZM34.464 2.496H36.832V14.112C36.832 15.328 36.7787 16.6293 36.672 18.016C36.5653 19.4027 36.3627 20.8107 36.064 22.24C35.7867 23.648 35.3493 25.0027 34.752 26.304C34.176 27.6053 33.408 28.7893 32.448 29.856C32.3413 29.6853 32.1707 29.4933 31.936 29.28C31.7013 29.088 31.4667 28.896 31.232 28.704C30.9973 28.512 30.784 28.3733 30.592 28.288C31.488 27.2853 32.192 26.1973 32.704 25.024C33.216 23.8507 33.6 22.6453 33.856 21.408C34.112 20.1493 34.272 18.9013 34.336 17.664C34.4213 16.4267 34.464 15.2427 34.464 14.112V2.496ZM55.584 2.496H57.952V26.432C57.952 27.2 57.8347 27.7867 57.6 28.192C57.3867 28.5973 57.0133 28.9067 56.48 29.12C55.9467 29.312 55.2 29.4293 54.24 29.472C53.28 29.5147 52.0427 29.5253 50.528 29.504C50.464 29.2053 50.3467 28.8213 50.176 28.352C50.0267 27.904 49.8667 27.52 49.696 27.2C50.4427 27.2213 51.1573 27.232 51.84 27.232C52.544 27.2533 53.152 27.2533 53.664 27.232C54.176 27.232 54.528 27.232 54.72 27.232C55.04 27.2107 55.264 27.1467 55.392 27.04C55.52 26.9333 55.584 26.7307 55.584 26.432V2.496ZM44.512 3.36H46.944V29.408H44.512V3.36Z" fill="white"/>
<path d="M61.888 8.064H71.616V10.336H61.888V8.064ZM65.824 0.639999H68.096V22.08H65.824V0.639999ZM61.44 23.008C62.2933 22.7307 63.264 22.4 64.352 22.016C65.44 21.6107 66.6027 21.184 67.84 20.736C69.0773 20.2667 70.304 19.808 71.52 19.36L71.968 21.568C70.2827 22.2507 68.5867 22.9333 66.88 23.616C65.1733 24.2773 63.6267 24.8853 62.24 25.44L61.44 23.008ZM72.288 1.76H85.696V4.032H72.288V1.76ZM87.968 10.592H90.368C90.368 10.592 90.3573 10.6667 90.336 10.816C90.336 10.9653 90.336 11.136 90.336 11.328C90.336 11.4987 90.3253 11.648 90.304 11.776C90.1333 14.5707 89.9627 16.9493 89.792 18.912C89.6213 20.8747 89.44 22.496 89.248 23.776C89.056 25.0347 88.8427 26.016 88.608 26.72C88.3947 27.424 88.1387 27.9467 87.84 28.288C87.5413 28.672 87.2213 28.9387 86.88 29.088C86.5387 29.2587 86.1333 29.3653 85.664 29.408C85.28 29.4507 84.7787 29.472 84.16 29.472C83.5627 29.472 82.9227 29.4507 82.24 29.408C82.2187 29.0667 82.144 28.672 82.016 28.224C81.9093 27.7973 81.76 27.4347 81.568 27.136C82.2293 27.2 82.8373 27.232 83.392 27.232C83.968 27.2533 84.3947 27.264 84.672 27.264C84.928 27.2853 85.1307 27.264 85.28 27.2C85.4507 27.136 85.6213 27.008 85.792 26.816C86.0907 26.496 86.368 25.792 86.624 24.704C86.88 23.5947 87.1147 21.9413 87.328 19.744C87.5627 17.5467 87.776 14.656 87.968 11.072V10.592ZM73.44 13.248C73.376 13.056 73.28 12.8213 73.152 12.544C73.0453 12.2667 72.928 11.9893 72.8 11.712C72.672 11.4133 72.544 11.168 72.416 10.976C72.8213 10.912 73.3013 10.7413 73.856 10.464C74.432 10.1653 75.0293 9.81333 75.648 9.408C75.968 9.19467 76.4587 8.864 77.12 8.416C77.8027 7.94667 78.56 7.392 79.392 6.752C80.2453 6.09067 81.1093 5.376 81.984 4.608C82.88 3.81867 83.712 3.01867 84.48 2.208V2.016L85.664 1.568L87.456 2.912C85.3013 4.832 83.1787 6.57067 81.088 8.128C79.0187 9.664 77.024 10.9653 75.104 12.032V12.096C75.104 12.096 75.0187 12.1387 74.848 12.224C74.6773 12.288 74.4853 12.384 74.272 12.512C74.0587 12.6187 73.8667 12.736 73.696 12.864C73.5253 12.992 73.44 13.12 73.44 13.248ZM73.44 13.248V11.232L74.784 10.592H88.832L88.8 12.864H76.224C75.4773 12.864 74.8587 12.896 74.368 12.96C73.8987 13.024 73.5893 13.12 73.44 13.248ZM83.744 11.872L85.856 12.288C84.768 16.192 83.2533 19.6053 81.312 22.528C79.392 25.4293 77.0453 27.808 74.272 29.664C74.144 29.5147 73.9627 29.3547 73.728 29.184C73.5147 29.0133 73.2907 28.8427 73.056 28.672C72.8213 28.5227 72.608 28.3947 72.416 28.288C75.2533 26.5813 77.6 24.3307 79.456 21.536C81.3333 18.7413 82.7627 15.52 83.744 11.872ZM78.816 11.904L80.96 12.32C80.256 14.5173 79.2533 16.4907 77.952 18.24C76.672 19.9893 75.232 21.4507 73.632 22.624C73.5253 22.496 73.3547 22.3467 73.12 22.176C72.9067 21.984 72.6827 21.8027 72.448 21.632C72.2133 21.4613 72.0107 21.3333 71.84 21.248C73.4613 20.2027 74.8693 18.88 76.064 17.28C77.28 15.68 78.1973 13.888 78.816 11.904Z" fill="white"/>
<path d="M98.88 6.656V8.704H115.072V6.656H98.88ZM98.88 3.04V5.056H115.072V3.04H98.88ZM96.544 1.408H117.472V10.368H96.544V1.408ZM92.8 12.384H121.12V14.336H92.8V12.384ZM99.584 17.792V20.96H114.464V17.792H99.584ZM97.28 16H116.864V22.752H97.28V16ZM105.728 10.016H108.16V13.408H105.728V10.016ZM105.792 21.664H108.224V27.392C108.224 27.968 108.139 28.4053 107.968 28.704C107.797 29.024 107.467 29.248 106.976 29.376C106.528 29.5253 105.92 29.6107 105.152 29.632C104.384 29.6747 103.435 29.696 102.304 29.696C102.261 29.3973 102.165 29.0667 102.016 28.704C101.888 28.3627 101.739 28.0533 101.568 27.776C102.123 27.7973 102.645 27.808 103.136 27.808C103.648 27.8293 104.096 27.8293 104.48 27.808C104.864 27.808 105.12 27.808 105.248 27.808C105.483 27.7867 105.632 27.744 105.696 27.68C105.76 27.616 105.792 27.4987 105.792 27.328V21.664ZM111.104 24.768L112.672 23.424C113.611 23.7653 114.613 24.1813 115.68 24.672C116.747 25.1413 117.76 25.632 118.72 26.144C119.68 26.6347 120.48 27.104 121.12 27.552L119.456 29.088C118.859 28.64 118.091 28.1493 117.152 27.616C116.213 27.104 115.211 26.6027 114.144 26.112C113.077 25.6 112.064 25.152 111.104 24.768ZM100.32 23.456L102.496 24.32C101.792 24.9387 100.96 25.5467 100 26.144C99.0613 26.7413 98.0907 27.296 97.088 27.808C96.0853 28.32 95.1253 28.768 94.208 29.152C94.08 29.0027 93.8987 28.8107 93.664 28.576C93.4507 28.3627 93.2373 28.1493 93.024 27.936C92.8107 27.7227 92.608 27.552 92.416 27.424C93.3547 27.104 94.304 26.7307 95.264 26.304C96.2453 25.8773 97.1733 25.4293 98.048 24.96C98.9227 24.4693 99.68 23.968 100.32 23.456Z" fill="white"/>
</svg>
