<svg width="180" height="61" viewBox="0 0 180 61" fill="none" xmlns="http://www.w3.org/2000/svg">
<path d="M2.76989 22.1165H0L8.01136 0.298296H10.7386L18.75 22.1165H15.9801L9.46023 3.75H9.28977L2.76989 22.1165ZM3.79261 13.5938H14.9574V15.9375H3.79261V13.5938Z" fill="white"/>
<path d="M20.9484 22.1165V0.298296H28.3206C30.0322 0.298296 31.4314 0.607244 32.518 1.22514C33.6118 1.83594 34.4215 2.66335 34.947 3.70739C35.4726 4.75142 35.7354 5.91619 35.7354 7.20171C35.7354 8.48722 35.4726 9.65554 34.947 10.7067C34.4286 11.7578 33.626 12.5959 32.5393 13.2209C31.4527 13.8388 30.0607 14.1477 28.3632 14.1477H23.0791V11.804H28.278C29.4499 11.804 30.3909 11.6016 31.1011 11.1967C31.8114 10.7919 32.3263 10.245 32.6459 9.55611C32.9726 8.86009 33.1359 8.07528 33.1359 7.20171C33.1359 6.32813 32.9726 5.54688 32.6459 4.85795C32.3263 4.16903 31.8078 3.62926 31.0905 3.23864C30.3732 2.84091 29.4214 2.64205 28.2354 2.64205H23.5905V22.1165H20.9484Z" fill="white"/>
<path d="M38.7914 22.1165V0.298296H46.1636C47.8752 0.298296 49.2744 0.607244 50.361 1.22514C51.4548 1.83594 52.2644 2.66335 52.79 3.70739C53.3156 4.75142 53.5783 5.91619 53.5783 7.20171C53.5783 8.48722 53.3156 9.65554 52.79 10.7067C52.2715 11.7578 51.469 12.5959 50.3823 13.2209C49.2957 13.8388 47.9036 14.1477 46.2062 14.1477H40.9221V11.804H46.1209C47.2928 11.804 48.2339 11.6016 48.9441 11.1967C49.6543 10.7919 50.1692 10.245 50.4888 9.55611C50.8156 8.86009 50.9789 8.07528 50.9789 7.20171C50.9789 6.32813 50.8156 5.54688 50.4888 4.85795C50.1692 4.16903 49.6508 3.62926 48.9334 3.23864C48.2161 2.84091 47.2644 2.64205 46.0783 2.64205H41.4334V22.1165H38.7914Z" fill="white"/>
<path d="M56.6344 22.1165V0.298296H59.2764V19.7727H69.4185V22.1165H56.6344Z" fill="white"/>
<path d="M74.9514 0.298296V22.1165H72.3094V0.298296H74.9514Z" fill="white"/>
<path d="M96.6056 7.11648H93.9636C93.8074 6.35653 93.5339 5.68892 93.1433 5.11364C92.7598 4.53835 92.291 4.0554 91.737 3.66477C91.1902 3.26705 90.5829 2.96875 89.9153 2.76989C89.2477 2.57102 88.5517 2.47159 87.8272 2.47159C86.5062 2.47159 85.3095 2.8054 84.237 3.47301C83.1717 4.14063 82.323 5.12429 81.6909 6.42401C81.0659 7.72372 80.7534 9.31818 80.7534 11.2074C80.7534 13.0966 81.0659 14.6911 81.6909 15.9908C82.323 17.2905 83.1717 18.2741 84.237 18.9418C85.3095 19.6094 86.5062 19.9432 87.8272 19.9432C88.5517 19.9432 89.2477 19.8438 89.9153 19.6449C90.5829 19.446 91.1902 19.1513 91.737 18.7607C92.291 18.3629 92.7598 17.8764 93.1433 17.3011C93.5339 16.7187 93.8074 16.0511 93.9636 15.2983H96.6056C96.4068 16.4134 96.0446 17.4112 95.519 18.2919C94.9934 19.1726 94.34 19.9219 93.5588 20.5398C92.7775 21.1506 91.9004 21.6158 90.9274 21.9354C89.9615 22.255 88.9281 22.4148 87.8272 22.4148C85.9664 22.4148 84.3116 21.9602 82.8627 21.0511C81.4139 20.142 80.274 18.8494 79.443 17.1733C78.612 15.4972 78.1966 13.5085 78.1966 11.2074C78.1966 8.90625 78.612 6.91761 79.443 5.24148C80.274 3.56534 81.4139 2.27273 82.8627 1.36364C84.3116 0.454546 85.9664 0 87.8272 0C88.9281 0 89.9615 0.159801 90.9274 0.479404C91.9004 0.799006 92.7775 1.26776 93.5588 1.88565C94.34 2.49645 94.9934 3.24219 95.519 4.12287C96.0446 4.99645 96.4068 5.99432 96.6056 7.11648Z" fill="white"/>
<path d="M100.57 22.1165H97.8L105.811 0.298296H108.539L116.55 22.1165H113.78L107.26 3.75H107.09L100.57 22.1165ZM101.593 13.5938H112.757V15.9375H101.593V13.5938Z" fill="white"/>
<path d="M115.006 2.64205V0.298296H131.37V2.64205H124.509V22.1165H121.867V2.64205H115.006Z" fill="white"/>
<path d="M136.89 0.298296V22.1165H134.248V0.298296H136.89Z" fill="white"/>
<path d="M159.396 11.2074C159.396 13.5085 158.981 15.4972 158.15 17.1733C157.319 18.8494 156.179 20.142 154.73 21.0511C153.281 21.9602 151.626 22.4148 149.766 22.4148C147.905 22.4148 146.25 21.9602 144.801 21.0511C143.352 20.142 142.212 18.8494 141.381 17.1733C140.55 15.4972 140.135 13.5085 140.135 11.2074C140.135 8.90625 140.55 6.91761 141.381 5.24148C142.212 3.56534 143.352 2.27273 144.801 1.36364C146.25 0.454546 147.905 0 149.766 0C151.626 0 153.281 0.454546 154.73 1.36364C156.179 2.27273 157.319 3.56534 158.15 5.24148C158.981 6.91761 159.396 8.90625 159.396 11.2074ZM156.839 11.2074C156.839 9.31818 156.523 7.72372 155.891 6.42401C155.266 5.12429 154.418 4.14063 153.345 3.47301C152.28 2.8054 151.087 2.47159 149.766 2.47159C148.444 2.47159 147.248 2.8054 146.175 3.47301C145.11 4.14063 144.261 5.12429 143.629 6.42401C143.004 7.72372 142.692 9.31818 142.692 11.2074C142.692 13.0966 143.004 14.6911 143.629 15.9908C144.261 17.2905 145.11 18.2741 146.175 18.9418C147.248 19.6094 148.444 19.9432 149.766 19.9432C151.087 19.9432 152.28 19.6094 153.345 18.9418C154.418 18.2741 155.266 17.2905 155.891 15.9908C156.523 14.6911 156.839 13.0966 156.839 11.2074Z" fill="white"/>
<path d="M179.94 0.298296V22.1165H177.383L165.494 4.9858H165.281V22.1165H162.639V0.298296H165.195L177.127 17.4716H177.34V0.298296H179.94Z" fill="white"/>
<path d="M13.8068 43.7528C13.679 42.6733 13.1605 41.8352 12.2514 41.2386C11.3423 40.642 10.2273 40.3438 8.90625 40.3438C7.94034 40.3438 7.09517 40.5 6.37074 40.8125C5.65341 41.125 5.09233 41.5547 4.6875 42.1016C4.28977 42.6484 4.09091 43.2699 4.09091 43.9659C4.09091 44.5483 4.2294 45.049 4.50639 45.468C4.79048 45.88 5.1527 46.2244 5.59304 46.5014C6.03338 46.7713 6.49503 46.995 6.97798 47.1726C7.46094 47.343 7.90483 47.4815 8.30966 47.5881L10.5256 48.1847C11.0938 48.3338 11.7259 48.5398 12.4219 48.8026C13.125 49.0653 13.7962 49.424 14.4354 49.8786C15.0817 50.326 15.6143 50.9013 16.0334 51.6044C16.4524 52.3075 16.6619 53.1705 16.6619 54.1932C16.6619 55.3722 16.353 56.4375 15.7351 57.3892C15.1243 58.3409 14.2294 59.0973 13.0504 59.6584C11.8786 60.2195 10.4545 60.5 8.77841 60.5C7.21591 60.5 5.86293 60.2479 4.71946 59.7436C3.5831 59.2393 2.68821 58.5362 2.0348 57.6342C1.38849 56.7322 1.02273 55.6847 0.9375 54.4915H3.66477C3.7358 55.3153 4.01278 55.9972 4.49574 56.5369C4.9858 57.0696 5.60369 57.4673 6.34943 57.7301C7.10227 57.9858 7.91193 58.1136 8.77841 58.1136C9.78693 58.1136 10.6925 57.9503 11.495 57.6236C12.2976 57.2898 12.9332 56.8281 13.402 56.2386C13.8707 55.642 14.1051 54.946 14.1051 54.1506C14.1051 53.4261 13.9027 52.8366 13.4979 52.3821C13.093 51.9276 12.5604 51.5582 11.8999 51.2741C11.2393 50.9901 10.5256 50.7415 9.75852 50.5284L7.07386 49.7614C5.36932 49.2713 4.01989 48.5717 3.02557 47.6626C2.03125 46.7536 1.53409 45.5639 1.53409 44.0938C1.53409 42.8722 1.86435 41.8068 2.52486 40.8977C3.19247 39.9815 4.08736 39.2713 5.20952 38.767C6.33878 38.2557 7.59943 38 8.99148 38C10.3977 38 11.6477 38.2521 12.7415 38.7564C13.8352 39.2536 14.7017 39.9354 15.3409 40.8018C15.9872 41.6683 16.3281 42.652 16.3636 43.7528H13.8068Z" fill="white"/>
<path d="M37.3627 45.1165H34.7206C34.5644 44.3565 34.2909 43.6889 33.9003 43.1136C33.5168 42.5384 33.048 42.0554 32.4941 41.6648C31.9472 41.267 31.34 40.9687 30.6723 40.7699C30.0047 40.571 29.3087 40.4716 28.5843 40.4716C27.2632 40.4716 26.0665 40.8054 24.9941 41.473C23.9287 42.1406 23.08 43.1243 22.4479 44.424C21.8229 45.7237 21.5104 47.3182 21.5104 49.2074C21.5104 51.0966 21.8229 52.6911 22.4479 53.9908C23.08 55.2905 23.9287 56.2741 24.9941 56.9418C26.0665 57.6094 27.2632 57.9432 28.5843 57.9432C29.3087 57.9432 30.0047 57.8437 30.6723 57.6449C31.34 57.446 31.9472 57.1513 32.4941 56.7607C33.048 56.3629 33.5168 55.8764 33.9003 55.3011C34.2909 54.7187 34.5644 54.0511 34.7206 53.2983H37.3627C37.1638 54.4134 36.8016 55.4112 36.276 56.2919C35.7505 57.1726 35.0971 57.9219 34.3158 58.5398C33.5346 59.1506 32.6574 59.6158 31.6844 59.9354C30.7185 60.255 29.6851 60.4148 28.5843 60.4148C26.7235 60.4148 25.0686 59.9602 23.6198 59.0511C22.1709 58.142 21.031 56.8494 20.2 55.1733C19.3691 53.4972 18.9536 51.5085 18.9536 49.2074C18.9536 46.9062 19.3691 44.9176 20.2 43.2415C21.031 41.5653 22.1709 40.2727 23.6198 39.3636C25.0686 38.4545 26.7235 38 28.5843 38C29.6851 38 30.7185 38.1598 31.6844 38.4794C32.6574 38.799 33.5346 39.2678 34.3158 39.8857C35.0971 40.4964 35.7505 41.2422 36.276 42.1229C36.8016 42.9965 37.1638 43.9943 37.3627 45.1165Z" fill="white"/>
<path d="M40.432 60.1165V38.2983H53.5996V40.642H43.0741V48.0142H52.9178V50.358H43.0741V57.7727H53.7701V60.1165H40.432Z" fill="white"/>
<path d="M74.4629 38.2983V60.1165H71.906L60.0168 42.9858H59.8038V60.1165H57.1617V38.2983H59.7185L71.6504 55.4716H71.8634V38.2983H74.4629Z" fill="white"/>
<path d="M79.4445 60.1165H76.6746L84.686 38.2983H87.4132L95.4246 60.1165H92.6547L86.1348 41.75H85.9644L79.4445 60.1165ZM80.4672 51.5938H91.632V53.9375H80.4672V51.5938Z" fill="white"/>
<path d="M97.623 60.1165V38.2983H104.995C106.7 38.2983 108.099 38.5895 109.193 39.1719C110.286 39.7472 111.096 40.5391 111.622 41.5476C112.147 42.5561 112.41 43.7031 112.41 44.9886C112.41 46.2741 112.147 47.4141 111.622 48.4084C111.096 49.4027 110.29 50.184 109.203 50.7521C108.117 51.3132 106.728 51.5938 105.038 51.5938H99.0719V49.2074H104.953C106.117 49.2074 107.055 49.0369 107.765 48.696C108.482 48.3551 109.001 47.8722 109.32 47.2472C109.647 46.6151 109.811 45.8622 109.811 44.9886C109.811 44.1151 109.647 43.3516 109.32 42.6982C108.994 42.0447 108.472 41.5405 107.754 41.1854C107.037 40.8232 106.089 40.642 104.91 40.642H100.265V60.1165H97.623ZM107.893 50.3153L113.262 60.1165H110.194L104.91 50.3153H107.893Z" fill="white"/>
<path d="M118.255 38.2983V60.1165H115.613V38.2983H118.255Z" fill="white"/>
<path d="M140.761 49.2074C140.761 51.5085 140.346 53.4972 139.515 55.1733C138.684 56.8494 137.544 58.142 136.095 59.0511C134.646 59.9602 132.991 60.4148 131.13 60.4148C129.27 60.4148 127.615 59.9602 126.166 59.0511C124.717 58.142 123.577 56.8494 122.746 55.1733C121.915 53.4972 121.5 51.5085 121.5 49.2074C121.5 46.9062 121.915 44.9176 122.746 43.2415C123.577 41.5653 124.717 40.2727 126.166 39.3636C127.615 38.4545 129.27 38 131.13 38C132.991 38 134.646 38.4545 136.095 39.3636C137.544 40.2727 138.684 41.5653 139.515 43.2415C140.346 44.9176 140.761 46.9062 140.761 49.2074ZM138.204 49.2074C138.204 47.3182 137.888 45.7237 137.256 44.424C136.631 43.1243 135.782 42.1406 134.71 41.473C133.645 40.8054 132.451 40.4716 131.13 40.4716C129.809 40.4716 128.613 40.8054 127.54 41.473C126.475 42.1406 125.626 43.1243 124.994 44.424C124.369 45.7237 124.056 47.3182 124.056 49.2074C124.056 51.0966 124.369 52.6911 124.994 53.9908C125.626 55.2905 126.475 56.2741 127.54 56.9418C128.613 57.6094 129.809 57.9432 131.13 57.9432C132.451 57.9432 133.645 57.6094 134.71 56.9418C135.782 56.2741 136.631 55.2905 137.256 53.9908C137.888 52.6911 138.204 51.0966 138.204 49.2074Z" fill="white"/>
</svg>
