<svg width="173" height="47" viewBox="0 0 173 47" fill="none" xmlns="http://www.w3.org/2000/svg">
<path d="M2.30824 18.4304H0L6.67614 0.24858H8.94886L15.625 18.4304H13.3168L7.88352 3.125H7.74148L2.30824 18.4304ZM3.16051 11.3281H12.4645V13.2812H3.16051V11.3281Z" fill="white"/>
<path d="M29.3888 0.24858H31.5906V12.2869C31.5906 13.5298 31.2976 14.6396 30.7116 15.6161C30.1316 16.5868 29.3119 17.3532 28.2525 17.9155C27.1931 18.4718 25.9502 18.75 24.5238 18.75C23.0974 18.75 21.8545 18.4718 20.7951 17.9155C19.7357 17.3532 18.913 16.5868 18.3271 15.6161C17.747 14.6396 17.457 13.5298 17.457 12.2869V0.24858H19.6587V12.1094C19.6587 12.9972 19.854 13.7873 20.2447 14.4798C20.6353 15.1663 21.1916 15.7079 21.9137 16.1044C22.6417 16.495 23.5117 16.6903 24.5238 16.6903C25.5359 16.6903 26.4059 16.495 27.1339 16.1044C27.8619 15.7079 28.4182 15.1663 28.8029 14.4798C29.1935 13.7873 29.3888 12.9972 29.3888 12.1094V0.24858Z" fill="white"/>
<path d="M33.993 2.2017V0.24858H47.6293V2.2017H41.912V18.4304H39.7103V2.2017H33.993Z" fill="white"/>
<path d="M64.6114 9.33949C64.6114 11.2571 64.2652 12.9143 63.5727 14.3111C62.8802 15.7079 61.9303 16.785 60.7229 17.5426C59.5155 18.3002 58.1365 18.679 56.5858 18.679C55.0352 18.679 53.6562 18.3002 52.4488 17.5426C51.2414 16.785 50.2915 15.7079 49.599 14.3111C48.9065 12.9143 48.5603 11.2571 48.5603 9.33949C48.5603 7.42188 48.9065 5.76468 49.599 4.3679C50.2915 2.97112 51.2414 1.89394 52.4488 1.13636C53.6562 0.378788 55.0352 0 56.5858 0C58.1365 0 59.5155 0.378788 60.7229 1.13636C61.9303 1.89394 62.8802 2.97112 63.5727 4.3679C64.2652 5.76468 64.6114 7.42188 64.6114 9.33949ZM62.4807 9.33949C62.4807 7.76515 62.2174 6.43644 61.6906 5.35334C61.1698 4.27024 60.4625 3.45052 59.5688 2.89418C58.681 2.33783 57.6867 2.05966 56.5858 2.05966C55.485 2.05966 54.4877 2.33783 53.594 2.89418C52.7062 3.45052 51.999 4.27024 51.4722 5.35334C50.9514 6.43644 50.691 7.76515 50.691 9.33949C50.691 10.9138 50.9514 12.2425 51.4722 13.3256C51.999 14.4087 52.7062 15.2285 53.594 15.7848C54.4877 16.3411 55.485 16.6193 56.5858 16.6193C57.6867 16.6193 58.681 16.3411 59.5688 15.7848C60.4625 15.2285 61.1698 14.4087 61.6906 13.3256C62.2174 12.2425 62.4807 10.9138 62.4807 9.33949Z" fill="white"/>
<path d="M81.7311 0.24858V18.4304H79.6004L69.6927 4.15483H69.5152V18.4304H67.3135V0.24858H69.4442L79.3873 14.5597H79.5649V0.24858H81.7311Z" fill="white"/>
<path d="M100.478 9.33949C100.478 11.2571 100.131 12.9143 99.4389 14.3111C98.7464 15.7079 97.7965 16.785 96.5891 17.5426C95.3817 18.3002 94.0027 18.679 92.4521 18.679C90.9014 18.679 89.5224 18.3002 88.315 17.5426C87.1076 16.785 86.1577 15.7079 85.4652 14.3111C84.7727 12.9143 84.4265 11.2571 84.4265 9.33949C84.4265 7.42188 84.7727 5.76468 85.4652 4.3679C86.1577 2.97112 87.1076 1.89394 88.315 1.13636C89.5224 0.378788 90.9014 0 92.4521 0C94.0027 0 95.3817 0.378788 96.5891 1.13636C97.7965 1.89394 98.7464 2.97112 99.4389 4.3679C100.131 5.76468 100.478 7.42188 100.478 9.33949ZM98.3469 9.33949C98.3469 7.76515 98.0836 6.43644 97.5568 5.35334C97.036 4.27024 96.3287 3.45052 95.435 2.89418C94.5472 2.33783 93.5529 2.05966 92.4521 2.05966C91.3512 2.05966 90.3539 2.33783 89.4602 2.89418C88.5724 3.45052 87.8652 4.27024 87.3384 5.35334C86.8176 6.43644 86.5572 7.76515 86.5572 9.33949C86.5572 10.9138 86.8176 12.2425 87.3384 13.3256C87.8652 14.4087 88.5724 15.2285 89.4602 15.7848C90.3539 16.3411 91.3512 16.6193 92.4521 16.6193C93.5529 16.6193 94.5472 16.3411 95.435 15.7848C96.3287 15.2285 97.036 14.4087 97.5568 13.3256C98.0836 12.2425 98.3469 10.9138 98.3469 9.33949Z" fill="white"/>
<path d="M103.18 0.24858H105.808L111.987 15.3409H112.2L118.379 0.24858H121.006V18.4304H118.947V4.61648H118.769L113.087 18.4304H111.099L105.417 4.61648H105.239V18.4304H103.18V0.24858Z" fill="white"/>
<path d="M139.762 9.33949C139.762 11.2571 139.416 12.9143 138.723 14.3111C138.031 15.7079 137.081 16.785 135.873 17.5426C134.666 18.3002 133.287 18.679 131.736 18.679C130.186 18.679 128.807 18.3002 127.599 17.5426C126.392 16.785 125.442 15.7079 124.749 14.3111C124.057 12.9143 123.711 11.2571 123.711 9.33949C123.711 7.42188 124.057 5.76468 124.749 4.3679C125.442 2.97112 126.392 1.89394 127.599 1.13636C128.807 0.378788 130.186 0 131.736 0C133.287 0 134.666 0.378788 135.873 1.13636C137.081 1.89394 138.031 2.97112 138.723 4.3679C139.416 5.76468 139.762 7.42188 139.762 9.33949ZM137.631 9.33949C137.631 7.76515 137.368 6.43644 136.841 5.35334C136.32 4.27024 135.613 3.45052 134.719 2.89418C133.831 2.33783 132.837 2.05966 131.736 2.05966C130.635 2.05966 129.638 2.33783 128.744 2.89418C127.857 3.45052 127.149 4.27024 126.623 5.35334C126.102 6.43644 125.841 7.76515 125.841 9.33949C125.841 10.9138 126.102 12.2425 126.623 13.3256C127.149 14.4087 127.857 15.2285 128.744 15.7848C129.638 16.3411 130.635 16.6193 131.736 16.6193C132.837 16.6193 133.831 16.3411 134.719 15.7848C135.613 15.2285 136.32 14.4087 136.841 13.3256C137.368 12.2425 137.631 10.9138 137.631 9.33949Z" fill="white"/>
<path d="M154.396 0.24858H156.597V12.2869C156.597 13.5298 156.304 14.6396 155.718 15.6161C155.138 16.5868 154.319 17.3532 153.259 17.9155C152.2 18.4718 150.957 18.75 149.531 18.75C148.104 18.75 146.861 18.4718 145.802 17.9155C144.743 17.3532 143.92 16.5868 143.334 15.6161C142.754 14.6396 142.464 13.5298 142.464 12.2869V0.24858H144.666V12.1094C144.666 12.9972 144.861 13.7873 145.252 14.4798C145.642 15.1663 146.198 15.7079 146.921 16.1044C147.649 16.495 148.519 16.6903 149.531 16.6903C150.543 16.6903 151.413 16.495 152.141 16.1044C152.869 15.7079 153.425 15.1663 153.81 14.4798C154.2 13.7873 154.396 12.9972 154.396 12.1094V0.24858Z" fill="white"/>
<path d="M169.937 4.79403C169.831 3.89441 169.399 3.19602 168.641 2.69886C167.884 2.2017 166.954 1.95312 165.854 1.95312C165.049 1.95312 164.344 2.08333 163.741 2.34375C163.143 2.60417 162.675 2.96224 162.338 3.41797C162.006 3.8737 161.841 4.39157 161.841 4.97159C161.841 5.45691 161.956 5.87417 162.187 6.22337C162.424 6.56664 162.726 6.85369 163.093 7.08452C163.459 7.30942 163.844 7.49586 164.247 7.64382C164.649 7.78587 165.019 7.90128 165.356 7.99006L167.203 8.48722C167.676 8.61151 168.203 8.78314 168.783 9.00213C169.369 9.22112 169.928 9.52001 170.461 9.89879C171 10.2717 171.444 10.7511 171.793 11.337C172.142 11.9229 172.317 12.642 172.317 13.4943C172.317 14.4768 172.059 15.3646 171.544 16.1577C171.035 16.9508 170.289 17.5811 169.307 18.0487C168.33 18.5162 167.144 18.75 165.747 18.75C164.445 18.75 163.317 18.5399 162.365 18.1197C161.418 17.6995 160.672 17.1135 160.127 16.3619C159.589 15.6102 159.284 14.7372 159.213 13.7429H161.486C161.545 14.4295 161.776 14.9976 162.178 15.4474C162.586 15.8913 163.101 16.2228 163.723 16.4418C164.35 16.6548 165.025 16.7614 165.747 16.7614C166.587 16.7614 167.342 16.6252 168.011 16.353C168.68 16.0748 169.209 15.6901 169.6 15.1989C169.991 14.7017 170.186 14.1217 170.186 13.4588C170.186 12.8551 170.017 12.3639 169.68 11.9851C169.343 11.6063 168.899 11.2985 168.348 11.0618C167.798 10.825 167.203 10.6179 166.564 10.4403L164.327 9.80114C162.906 9.39276 161.782 8.80978 160.953 8.0522C160.124 7.29463 159.71 6.30327 159.71 5.07812C159.71 4.06013 159.985 3.17235 160.536 2.41477C161.092 1.65128 161.838 1.05942 162.773 0.639205C163.714 0.213068 164.765 0 165.925 0C167.096 0 168.138 0.210109 169.05 0.630327C169.961 1.04463 170.683 1.61281 171.216 2.33487C171.754 3.05694 172.038 3.87666 172.068 4.79403H169.937Z" fill="white"/>
<path d="M16.9034 37.3395C16.9034 39.2571 16.5572 40.9143 15.8647 42.3111C15.1722 43.7079 14.2223 44.785 13.0149 45.5426C11.8075 46.3002 10.4285 46.679 8.87784 46.679C7.32718 46.679 5.94815 46.3002 4.74077 45.5426C3.53338 44.785 2.58345 43.7079 1.89098 42.3111C1.19851 40.9143 0.852273 39.2571 0.852273 37.3395C0.852273 35.4219 1.19851 33.7647 1.89098 32.3679C2.58345 30.9711 3.53338 29.8939 4.74077 29.1364C5.94815 28.3788 7.32718 28 8.87784 28C10.4285 28 11.8075 28.3788 13.0149 29.1364C14.2223 29.8939 15.1722 30.9711 15.8647 32.3679C16.5572 33.7647 16.9034 35.4219 16.9034 37.3395ZM14.7727 37.3395C14.7727 35.7652 14.5094 34.4364 13.9826 33.3533C13.4618 32.2702 12.7545 31.4505 11.8608 30.8942C10.973 30.3378 9.97869 30.0597 8.87784 30.0597C7.77699 30.0597 6.77971 30.3378 5.88601 30.8942C4.99822 31.4505 4.29096 32.2702 3.7642 33.3533C3.24337 34.4364 2.98295 35.7652 2.98295 37.3395C2.98295 38.9138 3.24337 40.2425 3.7642 41.3256C4.29096 42.4087 4.99822 43.2285 5.88601 43.7848C6.77971 44.3411 7.77699 44.6193 8.87784 44.6193C9.97869 44.6193 10.973 44.3411 11.8608 43.7848C12.7545 43.2285 13.4618 42.4087 13.9826 41.3256C14.5094 40.2425 14.7727 38.9138 14.7727 37.3395Z" fill="white"/>
<path d="M19.6055 46.4304V28.2486H25.7489C27.1753 28.2486 28.3413 28.506 29.2468 29.021C30.1583 29.5299 30.833 30.2195 31.271 31.0895C31.7089 31.9595 31.9279 32.9302 31.9279 34.0014C31.9279 35.0727 31.7089 36.0463 31.271 36.9222C30.8389 37.7982 30.1701 38.4966 29.2646 39.0174C28.359 39.5323 27.199 39.7898 25.7844 39.7898H21.381V37.8366H25.7134C26.69 37.8366 27.4742 37.668 28.0661 37.3306C28.6579 36.9933 29.087 36.5375 29.3533 35.9634C29.6256 35.3834 29.7617 34.7294 29.7617 34.0014C29.7617 33.2734 29.6256 32.6224 29.3533 32.0483C29.087 31.4742 28.6549 31.0244 28.0572 30.6989C27.4594 30.3674 26.6663 30.2017 25.6779 30.2017H21.8072V46.4304H19.6055Z" fill="white"/>
<path d="M34.4746 46.4304V28.2486H45.4476V30.2017H36.6763V36.3452H44.8794V38.2983H36.6763V44.4773H45.5897V46.4304H34.4746Z" fill="white"/>
<path d="M48.416 46.4304V28.2486H54.5595C55.9799 28.2486 57.1459 28.4912 58.0574 28.9766C58.9688 29.456 59.6435 30.1159 60.0815 30.9563C60.5195 31.7968 60.7385 32.7526 60.7385 33.8239C60.7385 34.8951 60.5195 35.8451 60.0815 36.6737C59.6435 37.5023 58.9718 38.1533 58.0662 38.6268C57.1607 39.0943 56.0036 39.3281 54.595 39.3281H49.6234V37.3395H54.524C55.4946 37.3395 56.2759 37.1974 56.8677 36.9134C57.4655 36.6293 57.8976 36.2268 58.1639 35.706C58.4361 35.1792 58.5723 34.5518 58.5723 33.8239C58.5723 33.0959 58.4361 32.4596 58.1639 31.9151C57.8916 31.3706 57.4566 30.9504 56.8588 30.6545C56.2611 30.3526 55.4709 30.2017 54.4885 30.2017H50.6177V46.4304H48.416ZM56.9743 38.2628L61.4487 46.4304H58.8919L54.4885 38.2628H56.9743Z" fill="white"/>
<path d="M63.4072 46.4304V28.2486H74.3802V30.2017H65.6089V36.3452H73.8121V38.2983H65.6089V44.4773H74.5223V46.4304H63.4072Z" fill="white"/>
<path d="M78.0944 46.4304H75.7861L82.4623 28.2486H84.735L91.4111 46.4304H89.1029L83.6697 31.125H83.5276L78.0944 46.4304ZM78.9466 39.3281H88.2506V41.2812H78.9466V39.3281Z" fill="white"/>
<path d="M90.1248 30.2017V28.2486H103.761V30.2017H98.0439V46.4304H95.8422V30.2017H90.1248Z" fill="white"/>
<path d="M108.361 28.2486V46.4304H106.159V28.2486H108.361Z" fill="white"/>
<path d="M127.116 37.3395C127.116 39.2571 126.77 40.9143 126.078 42.3111C125.385 43.7079 124.435 44.785 123.228 45.5426C122.02 46.3002 120.641 46.679 119.091 46.679C117.54 46.679 116.161 46.3002 114.954 45.5426C113.746 44.785 112.796 43.7079 112.104 42.3111C111.411 40.9143 111.065 39.2571 111.065 37.3395C111.065 35.4219 111.411 33.7647 112.104 32.3679C112.796 30.9711 113.746 29.8939 114.954 29.1364C116.161 28.3788 117.54 28 119.091 28C120.641 28 122.02 28.3788 123.228 29.1364C124.435 29.8939 125.385 30.9711 126.078 32.3679C126.77 33.7647 127.116 35.4219 127.116 37.3395ZM124.986 37.3395C124.986 35.7652 124.722 34.4364 124.195 33.3533C123.675 32.2702 122.967 31.4505 122.074 30.8942C121.186 30.3378 120.192 30.0597 119.091 30.0597C117.99 30.0597 116.993 30.3378 116.099 30.8942C115.211 31.4505 114.504 32.2702 113.977 33.3533C113.456 34.4364 113.196 35.7652 113.196 37.3395C113.196 38.9138 113.456 40.2425 113.977 41.3256C114.504 42.4087 115.211 43.2285 116.099 43.7848C116.993 44.3411 117.99 44.6193 119.091 44.6193C120.192 44.6193 121.186 44.3411 122.074 43.7848C122.967 43.2285 123.675 42.4087 124.195 41.3256C124.722 40.2425 124.986 38.9138 124.986 37.3395Z" fill="white"/>
<path d="M144.236 28.2486V46.4304H142.105L132.198 32.1548H132.02V46.4304H129.818V28.2486H131.949L141.892 42.5597H142.07V28.2486H144.236Z" fill="white"/>
</svg>
