<svg width="92" height="24" viewBox="0 0 92 24" fill="none" xmlns="http://www.w3.org/2000/svg">
<path d="M1.27499 9.00001H15.8V10.775H1.27499V9.00001ZM1.27499 14.45H15.8V16.2H1.27499V14.45ZM1.27499 19.9H15.8V21.675H1.27499V19.9ZM0 3.47501H17.25V22.95H15.275V5.275H1.89999V23.075H0V3.47501ZM7.3 0L9.475 0.300003C9.20833 1.05 8.91667 1.8 8.6 2.55C8.3 3.3 8.00833 3.95 7.725 4.5L6.05 4.175C6.21666 3.775 6.375 3.33334 6.525 2.85001C6.69167 2.35001 6.84166 1.85833 6.975 1.375C7.125 0.875 7.23333 0.416667 7.3 0Z" fill="white"/>
<path d="M32.6 5.825H42.65V7.62501H32.6V5.825ZM41.725 5.825H43.55C43.55 5.825 43.55 5.88333 43.55 6C43.55 6.11667 43.55 6.25 43.55 6.4C43.55 6.55 43.55 6.675 43.55 6.775C43.4667 9.35834 43.375 11.5417 43.275 13.325C43.1917 15.0917 43.0917 16.55 42.975 17.7C42.875 18.8333 42.75 19.7167 42.6 20.35C42.45 20.9833 42.2583 21.4417 42.025 21.725C41.775 22.0417 41.5083 22.2667 41.225 22.4C40.9583 22.5333 40.625 22.625 40.225 22.675C39.8417 22.7083 39.3333 22.725 38.7 22.725C38.0667 22.725 37.4167 22.7 36.75 22.65C36.7333 22.3833 36.675 22.075 36.575 21.725C36.475 21.375 36.3417 21.0667 36.175 20.8C36.875 20.8667 37.525 20.9083 38.125 20.925C38.725 20.9417 39.1583 20.95 39.425 20.95C39.6417 20.95 39.825 20.925 39.975 20.875C40.1417 20.825 40.2833 20.725 40.4 20.575C40.5833 20.375 40.7333 19.9833 40.85 19.4C40.9833 18.8 41.1 17.95 41.2 16.85C41.3 15.7333 41.3917 14.3083 41.475 12.575C41.5583 10.8417 41.6417 8.73334 41.725 6.25001V5.825ZM36.25 0.475006H38.1C38.0833 2.22501 38.05 3.96667 38 5.7C37.9667 7.43334 37.8583 9.13334 37.675 10.8C37.5083 12.45 37.2417 14.025 36.875 15.525C36.5083 17.025 35.9917 18.4083 35.325 19.675C34.675 20.9417 33.85 22.0583 32.85 23.025C32.7333 22.875 32.5917 22.7083 32.425 22.525C32.2583 22.3583 32.0833 22.1917 31.9 22.025C31.7167 21.875 31.5417 21.7583 31.375 21.675C32.3417 20.7917 33.125 19.7583 33.725 18.575C34.3417 17.3917 34.8167 16.0917 35.15 14.675C35.5 13.2583 35.75 11.7667 35.9 10.2C36.05 8.63334 36.1417 7.03334 36.175 5.4C36.225 3.75 36.25 2.10834 36.25 0.475006ZM22.15 2.10001H31.825V3.775H22.15V2.10001ZM21.275 8.05H32.275V9.775H21.275V8.05ZM28.625 12.35L30.175 11.925C30.4917 12.675 30.8167 13.4833 31.15 14.35C31.4833 15.2 31.7917 16.025 32.075 16.825C32.3583 17.625 32.575 18.3167 32.725 18.9L31.075 19.45C30.9417 18.85 30.7333 18.15 30.45 17.35C30.1833 16.5333 29.8917 15.6917 29.575 14.825C29.2583 13.9417 28.9417 13.1167 28.625 12.35ZM22.175 19.975L22.025 18.375L22.975 17.7L31.15 15.975C31.1833 16.225 31.225 16.5083 31.275 16.825C31.325 17.1417 31.375 17.4 31.425 17.6C29.875 17.95 28.5833 18.2417 27.55 18.475C26.5167 18.7083 25.6667 18.9083 25 19.075C24.35 19.225 23.8333 19.3583 23.45 19.475C23.0833 19.5917 22.8083 19.6833 22.625 19.75C22.4417 19.8167 22.2917 19.8917 22.175 19.975ZM22.15 19.95C22.1167 19.8167 22.0667 19.65 22 19.45C21.9333 19.2333 21.8583 19.0167 21.775 18.8C21.6917 18.5667 21.6167 18.375 21.55 18.225C21.75 18.1583 21.9333 17.975 22.1 17.675C22.2833 17.3583 22.4833 16.9583 22.7 16.475C22.8 16.2417 22.9417 15.8667 23.125 15.35C23.3083 14.8167 23.5167 14.1917 23.75 13.475C23.9833 12.7583 24.2 11.9917 24.4 11.175C24.6167 10.3417 24.8 9.51667 24.95 8.7L26.8 9.3C26.5333 10.4 26.2167 11.5333 25.85 12.7C25.5 13.85 25.1167 14.9583 24.7 16.025C24.3 17.075 23.8917 18.025 23.475 18.875V18.925C23.475 18.925 23.4083 18.9583 23.275 19.025C23.1417 19.0917 22.9833 19.1833 22.8 19.3C22.6333 19.4 22.4833 19.5083 22.35 19.625C22.2167 19.7417 22.15 19.85 22.15 19.95Z" fill="white"/>
<path d="M50.2 11.675V19H48.375V13.425H45.075V11.675H50.2ZM50.2 17.975C50.8167 18.8917 51.6667 19.575 52.75 20.025C53.8333 20.475 55.1 20.7333 56.55 20.8C57.25 20.8167 58.0917 20.8333 59.075 20.85C60.075 20.85 61.1167 20.8417 62.2 20.825C63.3 20.8083 64.3583 20.7833 65.375 20.75C66.3917 20.7167 67.275 20.675 68.025 20.625C67.9583 20.775 67.8833 20.9583 67.8 21.175C67.7167 21.4083 67.6333 21.6417 67.55 21.875C67.4833 22.1083 67.4333 22.3167 67.4 22.5C66.7167 22.5333 65.9 22.5583 64.95 22.575C64 22.6083 63.0167 22.625 62 22.625C60.9833 22.6417 60 22.6417 59.05 22.625C58.1 22.625 57.275 22.6083 56.575 22.575C54.925 22.5083 53.5167 22.2417 52.35 21.775C51.1833 21.3083 50.2 20.5833 49.4 19.6C48.8167 20.1333 48.225 20.6667 47.625 21.2C47.025 21.75 46.3917 22.3 45.725 22.85L44.75 20.975C45.3333 20.575 45.9583 20.1167 46.625 19.6C47.2917 19.0667 47.925 18.525 48.525 17.975H50.2ZM46.175 1.525L47.425 0.350006C47.925 0.616673 48.4417 0.925001 48.975 1.275C49.5083 1.625 50 1.98334 50.45 2.35001C50.9167 2.70001 51.2917 3.04167 51.575 3.37501L50.25 4.65C49.9833 4.31667 49.625 3.96667 49.175 3.60001C48.725 3.21667 48.2333 2.85 47.7 2.5C47.1833 2.13333 46.675 1.80833 46.175 1.525ZM45.2 6.60001L46.425 5.375C46.9583 5.625 47.5 5.91667 48.05 6.25001C48.6 6.56667 49.125 6.9 49.625 7.25C50.125 7.6 50.525 7.94167 50.825 8.275L49.525 9.62501C49.2417 9.29167 48.8583 8.94167 48.375 8.575C47.8917 8.20834 47.375 7.85833 46.825 7.525C46.275 7.175 45.7333 6.86667 45.2 6.60001ZM53.525 1.47501H66.1V3.25001H53.525V1.47501ZM51.9 7.325H67.925V9.10001H51.9V7.325ZM57.15 8.25001L59.2 8.85001C58.85 9.73334 58.475 10.675 58.075 11.675C57.675 12.6583 57.2667 13.6083 56.85 14.525C56.4333 15.4417 56.0333 16.2417 55.65 16.925L54.125 16.375C54.475 15.6583 54.8417 14.825 55.225 13.875C55.6083 12.925 55.9667 11.9583 56.3 10.975C56.65 9.97501 56.9333 9.06667 57.15 8.25001ZM52.1 16.125C53.2 16.0417 54.4833 15.95 55.95 15.85C57.4167 15.7333 58.9833 15.6083 60.65 15.475C62.3333 15.3417 64.0083 15.2083 65.675 15.075V16.775C64.0917 16.925 62.4917 17.075 60.875 17.225C59.275 17.375 57.75 17.5167 56.3 17.65C54.85 17.7667 53.55 17.8833 52.4 18L52.1 16.125ZM61.525 11.325L63.025 10.575C63.675 11.325 64.3167 12.15 64.95 13.05C65.5833 13.9333 66.15 14.8083 66.65 15.675C67.1667 16.525 67.5583 17.2917 67.825 17.975L66.175 18.875C65.925 18.175 65.55 17.3917 65.05 16.525C64.5667 15.6417 64.0167 14.75 63.4 13.85C62.8 12.95 62.175 12.1083 61.525 11.325Z" fill="white"/>
<path d="M78.8 1.55H91.1V3.35001H78.8V1.55ZM86.125 9.00001H88.025V20.65C88.025 21.2333 87.9417 21.675 87.775 21.975C87.6083 22.2917 87.3167 22.5333 86.9 22.7C86.4667 22.8333 85.875 22.9083 85.125 22.925C84.3917 22.9583 83.4083 22.975 82.175 22.975C82.1417 22.725 82.0667 22.425 81.95 22.075C81.8333 21.725 81.7 21.4083 81.55 21.125C82.15 21.1417 82.7167 21.1583 83.25 21.175C83.7833 21.1917 84.25 21.1917 84.65 21.175C85.05 21.175 85.325 21.175 85.475 21.175C85.7083 21.1583 85.875 21.1167 85.975 21.05C86.075 20.9667 86.125 20.825 86.125 20.625V9.00001ZM77.7 8.45H91.8V10.25H77.7V8.45ZM72.725 10.4L74.375 8.75001L74.575 8.85001V23.125H72.725V10.4ZM75.6 5.4L77.375 6.05C76.7417 7.1 76.0083 8.15001 75.175 9.2C74.3417 10.25 73.4667 11.2333 72.55 12.15C71.65 13.05 70.7583 13.8583 69.875 14.575C69.775 14.4417 69.6417 14.275 69.475 14.075C69.325 13.875 69.1667 13.675 69 13.475C68.8333 13.275 68.6833 13.1167 68.55 13C69.4167 12.3833 70.275 11.6667 71.125 10.85C71.9917 10.0333 72.8083 9.15834 73.575 8.22501C74.3583 7.29167 75.0333 6.35 75.6 5.4ZM74.6 0.0250015L76.4 0.775002C75.85 1.49167 75.2083 2.23333 74.475 3C73.7583 3.75 73 4.475 72.2 5.175C71.4167 5.85834 70.65 6.46667 69.9 7C69.8167 6.86667 69.7083 6.70833 69.575 6.525C69.4583 6.325 69.325 6.13334 69.175 5.95C69.0417 5.75 68.9167 5.6 68.8 5.5C69.5 5.01667 70.2083 4.46667 70.925 3.85001C71.6583 3.23334 72.3417 2.59167 72.975 1.925C73.625 1.25834 74.1667 0.625001 74.6 0.0250015Z" fill="white"/>
</svg>
