<svg width="448" height="42" viewBox="0 0 448 42" fill="none" xmlns="http://www.w3.org/2000/svg">
<path d="M423.63 1.52997H427.41C427.35 2.69997 427.245 4.24497 427.095 6.16497C426.945 8.08497 426.66 10.26 426.24 12.69C425.85 15.09 425.235 17.595 424.395 20.205C423.555 22.815 422.43 25.395 421.02 27.945C419.61 30.495 417.81 32.91 415.62 35.19C413.46 37.47 410.82 39.45 407.7 41.13C407.43 40.71 407.04 40.26 406.53 39.78C406.02 39.3 405.495 38.88 404.955 38.52C408.045 36.93 410.64 35.07 412.74 32.94C414.84 30.81 416.565 28.53 417.915 26.1C419.265 23.67 420.315 21.225 421.065 18.765C421.815 16.275 422.37 13.905 422.73 11.655C423.09 9.40497 423.315 7.40997 423.405 5.66997C423.525 3.89997 423.6 2.51997 423.63 1.52997ZM427.23 2.42997C427.26 2.93997 427.32 3.82497 427.41 5.08497C427.53 6.31497 427.74 7.81497 428.04 9.58497C428.34 11.355 428.775 13.275 429.345 15.345C429.915 17.415 430.68 19.545 431.64 21.735C432.6 23.925 433.785 26.055 435.195 28.125C436.605 30.195 438.3 32.115 440.28 33.885C442.26 35.625 444.585 37.095 447.255 38.295C446.745 38.685 446.25 39.135 445.77 39.645C445.32 40.185 444.945 40.68 444.645 41.13C441.945 39.84 439.56 38.265 437.49 36.405C435.45 34.515 433.695 32.475 432.225 30.285C430.785 28.065 429.57 25.8 428.58 23.49C427.62 21.18 426.84 18.93 426.24 16.74C425.64 14.52 425.19 12.465 424.89 10.575C424.59 8.65497 424.38 7.01997 424.26 5.66997C424.14 4.28997 424.065 3.29997 424.035 2.69997L427.23 2.42997Z" fill="white"/>
<path d="M367.02 4.85999V11.79H375.3V4.85999H367.02ZM363.915 2.11499H378.54V14.535H363.915V2.11499ZM386.595 4.85999V11.79H394.965V4.85999H386.595ZM383.49 2.11499H398.205V14.535H383.49V2.11499ZM360.81 17.955H401.175V21.015H360.81V17.955ZM366.12 37.035H377.1V39.915H366.12V37.035ZM384.66 37.035H395.685V39.915H384.66V37.035ZM386.64 18.81C387.69 20.16 389.04 21.435 390.69 22.635C392.34 23.835 394.185 24.9 396.225 25.83C398.295 26.73 400.38 27.435 402.48 27.945C402.24 28.155 401.985 28.425 401.715 28.755C401.445 29.055 401.19 29.385 400.95 29.745C400.71 30.075 400.5 30.375 400.32 30.645C398.13 30.015 395.985 29.19 393.885 28.17C391.785 27.12 389.85 25.905 388.08 24.525C386.31 23.115 384.81 21.6 383.58 19.98L386.64 18.81ZM364.59 26.955H378.81V41.49H375.705V29.835H367.605V41.625H364.59V26.955ZM383.04 26.955H397.44V41.49H394.29V29.835H386.055V41.625H383.04V26.955ZM378.765 13.32L382.05 14.355C380.28 18.255 377.625 21.54 374.085 24.21C370.575 26.88 366.465 29.04 361.755 30.69C361.635 30.45 361.455 30.18 361.215 29.88C360.975 29.55 360.72 29.22 360.45 28.89C360.18 28.56 359.925 28.305 359.685 28.125C364.215 26.625 368.145 24.645 371.475 22.185C374.835 19.725 377.265 16.77 378.765 13.32Z" fill="white"/>
<path d="M337.86 2.70001H349.11V5.89501H337.86V2.70001ZM335.88 2.70001H339.165V17.145C339.165 19.005 339.075 21.015 338.895 23.175C338.715 25.305 338.37 27.465 337.86 29.655C337.38 31.845 336.645 33.96 335.655 36C334.665 38.01 333.36 39.855 331.74 41.535C331.59 41.325 331.35 41.07 331.02 40.77C330.72 40.5 330.39 40.23 330.03 39.96C329.7 39.69 329.415 39.495 329.175 39.375C330.675 37.785 331.875 36.075 332.775 34.245C333.675 32.385 334.35 30.48 334.8 28.53C335.25 26.55 335.535 24.6 335.655 22.68C335.805 20.73 335.88 18.885 335.88 17.145V2.70001ZM347.625 2.70001H350.955V35.145C350.955 35.865 350.97 36.45 351 36.9C351.06 37.32 351.15 37.575 351.27 37.665C351.51 37.845 351.78 37.935 352.08 37.935C352.23 37.935 352.425 37.935 352.665 37.935C352.935 37.935 353.175 37.935 353.385 37.935C353.805 37.935 354.105 37.83 354.285 37.62C354.405 37.47 354.495 37.29 354.555 37.08C354.645 36.84 354.705 36.45 354.735 35.91C354.795 35.4 354.84 34.575 354.87 33.435C354.9 32.295 354.915 30.975 354.915 29.475C355.275 29.805 355.695 30.105 356.175 30.375C356.655 30.615 357.105 30.795 357.525 30.915C357.525 31.755 357.495 32.655 357.435 33.615C357.405 34.545 357.36 35.4 357.3 36.18C357.27 36.96 357.225 37.545 357.165 37.935C356.955 39.165 356.535 40.005 355.905 40.455C355.575 40.665 355.2 40.815 354.78 40.905C354.39 41.025 353.97 41.085 353.52 41.085C353.19 41.085 352.8 41.085 352.35 41.085C351.9 41.085 351.525 41.085 351.225 41.085C350.805 41.085 350.355 41.01 349.875 40.86C349.395 40.74 348.99 40.53 348.66 40.23C348.39 39.99 348.18 39.705 348.03 39.375C347.88 39.045 347.775 38.535 347.715 37.845C347.655 37.125 347.625 36.135 347.625 34.875V2.70001ZM315.81 9.76501H333.225V13.005H315.81V9.76501ZM323.28 0.13501H326.565V41.49H323.28V0.13501ZM323.145 11.79L325.35 12.51C324.93 14.34 324.405 16.23 323.775 18.18C323.145 20.13 322.44 22.035 321.66 23.895C320.88 25.755 320.055 27.48 319.185 29.07C318.315 30.66 317.415 32.01 316.485 33.12C316.305 32.67 316.035 32.16 315.675 31.59C315.315 30.99 315 30.48 314.73 30.06C315.57 29.04 316.41 27.84 317.25 26.46C318.12 25.05 318.915 23.52 319.635 21.87C320.385 20.22 321.06 18.54 321.66 16.83C322.26 15.12 322.755 13.44 323.145 11.79ZM326.25 16.74C326.58 17.04 327.075 17.55 327.735 18.27C328.425 18.99 329.16 19.785 329.94 20.655C330.72 21.525 331.425 22.335 332.055 23.085C332.715 23.805 333.18 24.315 333.45 24.615L331.335 27.405C331.005 26.865 330.54 26.19 329.94 25.38C329.37 24.54 328.74 23.67 328.05 22.77C327.36 21.84 326.7 20.985 326.07 20.205C325.44 19.425 324.93 18.81 324.54 18.36L326.25 16.74Z" fill="white"/>
<path d="M276.3 13.68H292.005V16.605H276.3V13.68ZM273.96 33.525H291.555V36.495H273.96V33.525ZM272.115 1.75501H275.13V39.915H272.115V1.75501ZM282.78 0.450012H285.66V32.445H282.78V0.450012ZM282.915 15.21L284.85 16.065C284.31 17.715 283.62 19.425 282.78 21.195C281.94 22.965 281.025 24.63 280.035 26.19C279.045 27.72 278.025 28.995 276.975 30.015C276.825 29.595 276.6 29.115 276.3 28.575C276.03 28.035 275.76 27.585 275.49 27.225C276.45 26.355 277.395 25.26 278.325 23.94C279.285 22.59 280.155 21.165 280.935 19.665C281.745 18.165 282.405 16.68 282.915 15.21ZM289.305 3.15001L292.005 3.96001C291.465 5.31001 290.88 6.72001 290.25 8.19001C289.65 9.66001 289.08 10.905 288.54 11.925L286.47 11.205C286.8 10.455 287.145 9.61501 287.505 8.68501C287.865 7.72501 288.195 6.76501 288.495 5.80501C288.825 4.81501 289.095 3.93001 289.305 3.15001ZM276.885 3.96001L279.09 3.24001C279.63 4.47001 280.095 5.82001 280.485 7.29001C280.875 8.73001 281.115 9.97501 281.205 11.025L278.82 11.835C278.76 10.755 278.55 9.48001 278.19 8.01001C277.83 6.54001 277.395 5.19001 276.885 3.96001ZM285.48 18.18C285.75 18.42 286.185 18.81 286.785 19.35C287.385 19.86 288.015 20.43 288.675 21.06C289.365 21.69 289.995 22.275 290.565 22.815C291.165 23.325 291.585 23.715 291.825 23.985L289.89 26.325C289.62 25.935 289.215 25.425 288.675 24.795C288.135 24.165 287.565 23.505 286.965 22.815C286.365 22.125 285.78 21.48 285.21 20.88C284.64 20.28 284.19 19.815 283.86 19.485L285.48 18.18ZM295.47 15.255H312.075V18.405H295.47V15.255ZM303.795 16.92H306.99V41.535H303.795V16.92ZM293.895 4.00501L298.035 5.26502C297.975 5.56501 297.66 5.76001 297.09 5.85001V19.8C297.09 21.48 297.015 23.28 296.865 25.2C296.715 27.09 296.4 29.025 295.92 31.005C295.47 32.955 294.795 34.875 293.895 36.765C293.025 38.625 291.855 40.35 290.385 41.94C290.235 41.67 290.01 41.37 289.71 41.04C289.44 40.74 289.14 40.455 288.81 40.185C288.51 39.915 288.225 39.72 287.955 39.6C289.755 37.68 291.075 35.595 291.915 33.345C292.755 31.065 293.295 28.755 293.535 26.415C293.775 24.075 293.895 21.855 293.895 19.755V4.00501ZM308.61 0.855012L311.355 3.33001C309.975 3.96001 308.385 4.54501 306.585 5.08501C304.815 5.62502 302.985 6.12001 301.095 6.57001C299.235 6.99001 297.42 7.36501 295.65 7.69501C295.56 7.33501 295.41 6.90001 295.2 6.39001C294.99 5.88001 294.78 5.44501 294.57 5.08501C296.25 4.75501 297.96 4.36501 299.7 3.91501C301.47 3.46501 303.135 2.98501 304.695 2.47501C306.255 1.93501 307.56 1.39501 308.61 0.855012Z" fill="white"/>
<path d="M229.365 3.10498L231.525 0.944985C232.335 1.54498 233.175 2.21998 234.045 2.96999C234.915 3.71999 235.725 4.46998 236.475 5.21998C237.255 5.93998 237.87 6.61499 238.32 7.24498L235.98 9.71999C235.56 9.08999 234.975 8.38499 234.225 7.60499C233.505 6.82498 232.71 6.04498 231.84 5.26499C231 4.48499 230.175 3.76498 229.365 3.10498ZM231.93 40.275L231.345 37.125L232.335 35.685L240.75 29.925C240.87 30.375 241.035 30.885 241.245 31.455C241.455 32.025 241.635 32.475 241.785 32.805C239.805 34.245 238.2 35.4 236.97 36.27C235.74 37.14 234.795 37.815 234.135 38.295C233.475 38.805 232.995 39.195 232.695 39.465C232.395 39.765 232.14 40.035 231.93 40.275ZM225.54 14.265H234.765V17.505H225.54V14.265ZM231.93 40.275C231.81 40.035 231.615 39.765 231.345 39.465C231.105 39.165 230.85 38.88 230.58 38.61C230.31 38.34 230.07 38.13 229.86 37.98C230.13 37.74 230.46 37.395 230.85 36.945C231.27 36.465 231.63 35.91 231.93 35.28C232.23 34.62 232.38 33.9 232.38 33.12V14.265H235.665V35.415C235.665 35.415 235.53 35.535 235.26 35.775C235.02 36.015 234.705 36.33 234.315 36.72C233.955 37.11 233.595 37.53 233.235 37.98C232.875 38.43 232.56 38.85 232.29 39.24C232.05 39.66 231.93 40.005 231.93 40.275ZM253.845 1.75499C254.835 3.28499 256.08 4.82998 257.58 6.38998C259.11 7.91998 260.745 9.32998 262.485 10.62C264.225 11.88 265.935 12.915 267.615 13.725C267.345 13.935 267.045 14.205 266.715 14.535C266.415 14.835 266.115 15.165 265.815 15.525C265.545 15.855 265.32 16.17 265.14 16.47C263.49 15.54 261.795 14.355 260.055 12.915C258.315 11.445 256.665 9.85498 255.105 8.14498C253.545 6.40498 252.21 4.66498 251.1 2.92498L253.845 1.75499ZM252.225 0.0449829L255.375 0.989985C253.875 4.22998 251.85 7.21498 249.3 9.94498C246.78 12.645 243.885 14.955 240.615 16.875C240.465 16.635 240.24 16.365 239.94 16.065C239.67 15.765 239.385 15.465 239.085 15.165C238.815 14.865 238.56 14.625 238.32 14.445C240.42 13.305 242.355 11.985 244.125 10.485C245.925 8.95499 247.515 7.30499 248.895 5.53498C250.275 3.73498 251.385 1.90498 252.225 0.0449829ZM253.26 12.78L256.005 13.95C255.045 15.12 253.92 16.275 252.63 17.415C251.34 18.525 249.99 19.56 248.58 20.52C247.2 21.45 245.82 22.26 244.44 22.95C244.2 22.59 243.885 22.2 243.495 21.78C243.105 21.33 242.7 20.955 242.28 20.655C243.6 20.055 244.935 19.335 246.285 18.495C247.665 17.655 248.97 16.755 250.2 15.795C251.43 14.805 252.45 13.8 253.26 12.78ZM257.49 18.99L260.28 20.25C259.17 21.87 257.805 23.43 256.185 24.93C254.565 26.43 252.81 27.795 250.92 29.025C249.06 30.225 247.155 31.26 245.205 32.13C244.965 31.74 244.635 31.305 244.215 30.825C243.825 30.345 243.42 29.94 243 29.61C244.92 28.86 246.78 27.945 248.58 26.865C250.41 25.755 252.09 24.54 253.62 23.22C255.18 21.87 256.47 20.46 257.49 18.99ZM262.215 25.515L265.275 26.73C263.175 30.45 260.22 33.525 256.41 35.955C252.6 38.355 248.19 40.215 243.18 41.535C242.97 41.115 242.67 40.62 242.28 40.05C241.92 39.51 241.56 39.03 241.2 38.61C244.41 37.89 247.365 36.93 250.065 35.73C252.765 34.53 255.15 33.075 257.22 31.365C259.29 29.655 260.955 27.705 262.215 25.515Z" fill="white"/>
<path d="M187.83 0.0900269L191.295 0.945026C190.755 2.17503 190.17 3.46503 189.54 4.81502C188.94 6.13503 188.31 7.39503 187.65 8.59503C187.02 9.79503 186.405 10.875 185.805 11.835L182.88 11.025C183.48 10.035 184.08 8.91003 184.68 7.65003C185.31 6.36003 185.895 5.05503 186.435 3.73502C187.005 2.38502 187.47 1.17003 187.83 0.0900269ZM180.27 9.67503C181.83 9.61502 183.63 9.55502 185.67 9.49503C187.71 9.40503 189.885 9.31503 192.195 9.22503C194.505 9.10503 196.83 9.00003 199.17 8.91003L199.125 11.88C196.905 12.03 194.67 12.165 192.42 12.285C190.2 12.405 188.07 12.525 186.03 12.645C184.02 12.765 182.19 12.87 180.54 12.96L180.27 9.67503ZM182.97 16.155H197.235V19.035H186.12V41.49H182.97V16.155ZM195.705 16.155H199.035V37.62C199.035 38.49 198.93 39.165 198.72 39.645C198.51 40.155 198.09 40.56 197.46 40.86C196.83 41.1 196.02 41.25 195.03 41.31C194.04 41.37 192.84 41.4 191.43 41.4C191.34 40.95 191.19 40.425 190.98 39.825C190.77 39.225 190.545 38.715 190.305 38.295C191.355 38.325 192.315 38.34 193.185 38.34C194.055 38.37 194.655 38.37 194.985 38.34C195.285 38.34 195.48 38.28 195.57 38.16C195.66 38.07 195.705 37.875 195.705 37.575V16.155ZM184.5 22.905H197.46V25.56H184.5V22.905ZM184.5 29.655H197.46V32.31H184.5V29.655ZM203.265 0.225025H206.64V15.12C206.64 15.84 206.775 16.305 207.045 16.515C207.345 16.725 208.02 16.83 209.07 16.83C209.28 16.83 209.7 16.83 210.33 16.83C210.99 16.83 211.71 16.83 212.49 16.83C213.27 16.83 214.005 16.83 214.695 16.83C215.385 16.83 215.88 16.83 216.18 16.83C216.78 16.83 217.23 16.71 217.53 16.47C217.83 16.2 218.04 15.705 218.16 14.985C218.28 14.235 218.37 13.11 218.43 11.61C218.7 11.79 219 11.97 219.33 12.15C219.69 12.33 220.065 12.495 220.455 12.645C220.845 12.765 221.19 12.855 221.49 12.915C221.37 14.745 221.145 16.17 220.815 17.19C220.485 18.21 219.975 18.915 219.285 19.305C218.625 19.695 217.695 19.89 216.495 19.89C216.285 19.89 215.91 19.89 215.37 19.89C214.86 19.89 214.26 19.89 213.57 19.89C212.91 19.89 212.235 19.89 211.545 19.89C210.885 19.89 210.3 19.89 209.79 19.89C209.28 19.89 208.935 19.89 208.755 19.89C207.315 19.89 206.19 19.755 205.38 19.485C204.6 19.215 204.045 18.735 203.715 18.045C203.415 17.355 203.265 16.395 203.265 15.165V0.225025ZM217.08 3.51003L219.33 6.03003C218.04 6.60002 216.615 7.18503 215.055 7.78503C213.495 8.35503 211.89 8.89503 210.24 9.40503C208.59 9.91503 206.985 10.395 205.425 10.845C205.365 10.515 205.23 10.125 205.02 9.67503C204.84 9.19502 204.645 8.79003 204.435 8.46003C205.905 8.01003 207.42 7.50003 208.98 6.93003C210.54 6.36003 212.025 5.79003 213.435 5.22002C214.845 4.62003 216.06 4.05003 217.08 3.51003ZM203.265 21.15H206.595V36.36C206.595 37.08 206.745 37.56 207.045 37.8C207.375 38.01 208.08 38.115 209.16 38.115C209.4 38.115 209.85 38.115 210.51 38.115C211.17 38.115 211.905 38.115 212.715 38.115C213.555 38.115 214.32 38.115 215.01 38.115C215.73 38.115 216.255 38.115 216.585 38.115C217.215 38.115 217.695 37.98 218.025 37.71C218.355 37.44 218.58 36.885 218.7 36.045C218.82 35.175 218.91 33.885 218.97 32.175C219.39 32.445 219.885 32.7 220.455 32.94C221.055 33.18 221.58 33.36 222.03 33.48C221.91 35.49 221.685 37.05 221.355 38.16C221.025 39.27 220.5 40.035 219.78 40.455C219.09 40.905 218.115 41.13 216.855 41.13C216.645 41.13 216.27 41.13 215.73 41.13C215.19 41.13 214.575 41.13 213.885 41.13C213.195 41.13 212.49 41.13 211.77 41.13C211.05 41.13 210.42 41.13 209.88 41.13C209.37 41.13 209.025 41.13 208.845 41.13C207.405 41.13 206.265 40.995 205.425 40.725C204.615 40.455 204.045 39.975 203.715 39.285C203.415 38.595 203.265 37.62 203.265 36.36V21.15ZM217.62 23.58L219.825 26.1C218.595 26.82 217.17 27.51 215.55 28.17C213.93 28.8 212.25 29.4 210.51 29.97C208.77 30.51 207.09 31.005 205.47 31.455C205.38 31.125 205.23 30.72 205.02 30.24C204.81 29.76 204.615 29.355 204.435 29.025C205.995 28.575 207.585 28.05 209.205 27.45C210.855 26.85 212.415 26.22 213.885 25.56C215.355 24.9 216.6 24.24 217.62 23.58ZM193.455 4.36503L196.245 3.28503C197.055 4.30503 197.835 5.43002 198.585 6.66003C199.365 7.86003 200.07 9.04503 200.7 10.215C201.33 11.385 201.81 12.435 202.14 13.365L199.215 14.67C198.915 13.74 198.45 12.675 197.82 11.475C197.22 10.275 196.53 9.06003 195.75 7.83003C195 6.60003 194.235 5.44503 193.455 4.36503Z" fill="white"/>
<path d="M142.245 22.95H169.965V41.445H166.545V25.74H145.575V41.535H142.245V22.95ZM144.135 29.97H167.76V32.625H144.135V29.97ZM140.535 3.87H154.935V6.615H140.535V3.87ZM135.72 10.89H156.105V13.68H135.72V10.89ZM144.135 37.08H167.76V39.87H144.135V37.08ZM145.08 4.815H148.275V9.27C148.275 10.35 148.155 11.52 147.915 12.78C147.675 14.04 147.18 15.33 146.43 16.65C145.71 17.97 144.63 19.26 143.19 20.52C141.75 21.75 139.845 22.905 137.475 23.985C137.235 23.625 136.905 23.22 136.485 22.77C136.065 22.29 135.66 21.915 135.27 21.645C137.55 20.745 139.35 19.77 140.67 18.72C141.99 17.64 142.965 16.545 143.595 15.435C144.225 14.325 144.63 13.245 144.81 12.195C144.99 11.115 145.08 10.14 145.08 9.27V4.815ZM140.76 0L143.865 0.63C143.265 2.55 142.47 4.41 141.48 6.21C140.52 7.98 139.5 9.48 138.42 10.71C138.21 10.53 137.94 10.335 137.61 10.125C137.28 9.915 136.935 9.705 136.575 9.495C136.245 9.285 135.96 9.135 135.72 9.045C136.86 7.875 137.865 6.495 138.735 4.905C139.605 3.315 140.28 1.68 140.76 0ZM147.285 14.31C147.705 14.55 148.305 14.91 149.085 15.39C149.895 15.84 150.735 16.335 151.605 16.875C152.505 17.415 153.33 17.925 154.08 18.405C154.86 18.855 155.415 19.2 155.745 19.44L153.405 21.735C152.985 21.405 152.4 20.97 151.65 20.43C150.93 19.89 150.15 19.32 149.31 18.72C148.5 18.12 147.705 17.565 146.925 17.055C146.175 16.545 145.56 16.14 145.08 15.84L147.285 14.31ZM161.145 6.84V16.425H170.505V6.84H161.145ZM157.995 3.78H173.79V19.485H157.995V3.78Z" fill="white"/>
<path d="M110.61 2.88001H130.995V6.03001H110.61V2.88001ZM110.7 14.49H127.98V17.595H110.7V14.49ZM108.945 2.88001H112.23V15.525C112.23 17.445 112.155 19.53 112.005 21.78C111.855 24 111.555 26.28 111.105 28.62C110.685 30.93 110.055 33.195 109.215 35.415C108.405 37.605 107.31 39.6 105.93 41.4C105.78 41.19 105.525 40.95 105.165 40.68C104.835 40.44 104.49 40.185 104.13 39.915C103.8 39.675 103.515 39.495 103.275 39.375C104.565 37.635 105.585 35.76 106.335 33.75C107.115 31.74 107.685 29.67 108.045 27.54C108.405 25.41 108.645 23.325 108.765 21.285C108.885 19.245 108.945 17.325 108.945 15.525V2.88001ZM115.2 16.605C116.1 19.995 117.315 23.16 118.845 26.1C120.405 29.04 122.295 31.605 124.515 33.795C126.735 35.955 129.3 37.62 132.21 38.79C131.94 39.03 131.655 39.3 131.355 39.6C131.085 39.93 130.815 40.275 130.545 40.635C130.305 40.995 130.095 41.31 129.915 41.58C126.915 40.2 124.275 38.325 121.995 35.955C119.745 33.555 117.825 30.78 116.235 27.63C114.645 24.45 113.34 21 112.32 17.28L115.2 16.605ZM127.26 14.49H127.89L128.475 14.355L130.545 15.075C129.675 19.635 128.34 23.64 126.54 27.09C124.77 30.51 122.64 33.42 120.15 35.82C117.69 38.19 115.005 40.08 112.095 41.49C111.945 41.22 111.75 40.92 111.51 40.59C111.27 40.26 111.015 39.93 110.745 39.6C110.505 39.3 110.265 39.045 110.025 38.835C112.695 37.665 115.2 35.985 117.54 33.795C119.88 31.575 121.905 28.905 123.615 25.785C125.325 22.635 126.54 19.095 127.26 15.165V14.49ZM90.81 9.76501H106.605V12.96H90.81V9.76501ZM97.56 0.13501H100.755V41.49H97.56V0.13501ZM97.425 11.79L99.54 12.51C99.18 14.31 98.715 16.185 98.145 18.135C97.575 20.055 96.93 21.945 96.21 23.805C95.52 25.665 94.77 27.405 93.96 29.025C93.15 30.615 92.325 31.965 91.485 33.075C91.305 32.625 91.035 32.115 90.675 31.545C90.315 30.945 89.985 30.45 89.685 30.06C90.495 29.04 91.275 27.825 92.025 26.415C92.805 25.005 93.54 23.475 94.23 21.825C94.92 20.175 95.535 18.495 96.075 16.785C96.615 15.075 97.065 13.41 97.425 11.79ZM100.575 16.65C100.845 16.95 101.28 17.475 101.88 18.225C102.51 18.975 103.17 19.785 103.86 20.655C104.55 21.525 105.18 22.335 105.75 23.085C106.32 23.835 106.725 24.375 106.965 24.705L104.895 27.36C104.595 26.79 104.175 26.085 103.635 25.245C103.125 24.405 102.57 23.535 101.97 22.635C101.37 21.735 100.785 20.895 100.215 20.115C99.675 19.305 99.24 18.66 98.91 18.18L100.575 16.65Z" fill="white"/>
<path d="M55.89 0.179993L59.13 1.16999C58.17 3.74999 57.03 6.29999 55.71 8.81999C54.39 11.31 52.965 13.65 51.435 15.84C49.905 18.03 48.315 19.98 46.665 21.69C46.545 21.42 46.365 21.075 46.125 20.655C45.885 20.205 45.63 19.77 45.36 19.35C45.12 18.9 44.91 18.54 44.73 18.27C46.2 16.8 47.625 15.105 49.005 13.185C50.385 11.235 51.66 9.14999 52.83 6.92999C54.03 4.70999 55.05 2.45999 55.89 0.179993ZM51.3 11.835L54.63 8.50499L54.675 8.54999V41.49H51.3V11.835ZM57.555 13.41H86.175V16.74H57.555V13.41ZM72.945 14.85C73.635 18.42 74.58 21.75 75.78 24.84C77.01 27.93 78.525 30.645 80.325 32.985C82.155 35.325 84.33 37.185 86.85 38.565C86.58 38.775 86.28 39.045 85.95 39.375C85.62 39.735 85.305 40.095 85.005 40.455C84.735 40.815 84.495 41.16 84.285 41.49C81.735 39.87 79.53 37.785 77.67 35.235C75.81 32.655 74.25 29.7 72.99 26.37C71.76 23.04 70.77 19.425 70.02 15.525L72.945 14.85ZM76.275 3.01499L78.84 1.52999C79.53 2.33999 80.22 3.22499 80.91 4.18499C81.63 5.11499 82.29 6.02999 82.89 6.92999C83.52 7.79999 84.015 8.59499 84.375 9.31499L81.63 11.025C81.27 10.335 80.79 9.52499 80.19 8.59499C79.62 7.66499 78.99 6.70499 78.3 5.71499C77.61 4.72499 76.935 3.82499 76.275 3.01499ZM69.48 0.224992H72.855V10.665C72.855 13.095 72.705 15.645 72.405 18.315C72.135 20.955 71.55 23.64 70.65 26.37C69.78 29.07 68.46 31.71 66.69 34.29C64.92 36.84 62.565 39.24 59.625 41.49C59.295 41.16 58.86 40.785 58.32 40.365C57.81 39.945 57.315 39.585 56.835 39.285C59.685 37.125 61.95 34.83 63.63 32.4C65.34 29.97 66.615 27.495 67.455 24.975C68.295 22.425 68.835 19.935 69.075 17.505C69.345 15.075 69.48 12.795 69.48 10.665V0.224992Z" fill="white"/>
<path d="M24.885 19.71H28.26V36.495C28.26 37.215 28.38 37.695 28.62 37.935C28.89 38.145 29.475 38.25 30.375 38.25C30.585 38.25 30.945 38.25 31.455 38.25C31.995 38.25 32.58 38.25 33.21 38.25C33.87 38.25 34.47 38.25 35.01 38.25C35.58 38.25 36 38.25 36.27 38.25C36.87 38.25 37.32 38.07 37.62 37.71C37.92 37.35 38.13 36.63 38.25 35.55C38.37 34.47 38.46 32.85 38.52 30.69C38.76 30.9 39.06 31.095 39.42 31.275C39.81 31.455 40.2 31.62 40.59 31.77C41.01 31.92 41.37 32.04 41.67 32.13C41.52 34.56 41.295 36.465 40.995 37.845C40.695 39.195 40.185 40.125 39.465 40.635C38.775 41.175 37.8 41.445 36.54 41.445C36.33 41.445 35.91 41.445 35.28 41.445C34.65 41.445 33.96 41.445 33.21 41.445C32.49 41.445 31.83 41.445 31.23 41.445C30.63 41.445 30.225 41.445 30.015 41.445C28.665 41.445 27.615 41.295 26.865 40.995C26.115 40.725 25.59 40.23 25.29 39.51C25.02 38.79 24.885 37.785 24.885 36.495V19.71ZM13.005 19.935H16.56C16.38 22.485 16.05 24.87 15.57 27.09C15.12 29.31 14.385 31.335 13.365 33.165C12.375 34.965 10.965 36.57 9.135 37.98C7.335 39.39 4.995 40.575 2.115 41.535C1.995 41.235 1.815 40.905 1.575 40.545C1.335 40.185 1.08 39.825 0.81 39.465C0.54 39.135 0.27 38.865 0 38.655C2.7 37.845 4.86 36.825 6.48 35.595C8.13 34.365 9.39 32.97 10.26 31.41C11.16 29.82 11.79 28.065 12.15 26.145C12.54 24.225 12.825 22.155 13.005 19.935ZM4.68 3.46501L7.74 2.34001C8.49 3.48001 9.24 4.72501 9.99 6.07501C10.74 7.39501 11.4 8.70001 11.97 9.99001C12.57 11.28 13.005 12.435 13.275 13.455L9.99 14.715C9.75 13.725 9.345 12.585 8.775 11.295C8.235 9.97501 7.605 8.64001 6.885 7.29001C6.195 5.91001 5.46 4.63501 4.68 3.46501ZM34.245 1.84501L37.755 3.10501C37.125 4.39501 36.45 5.74501 35.73 7.15501C35.01 8.56501 34.275 9.91501 33.525 11.205C32.805 12.495 32.115 13.62 31.455 14.58L28.575 13.455C29.235 12.435 29.91 11.25 30.6 9.90001C31.32 8.55001 31.995 7.17001 32.625 5.76001C33.285 4.32001 33.825 3.01501 34.245 1.84501ZM0.945 17.325H41.13V20.52H0.945V17.325ZM19.125 0.13501H22.545V18.63H19.125V0.13501Z" fill="white"/>
</svg>
