<svg width="1181" height="187" viewBox="0 0 1181 187" fill="none" xmlns="http://www.w3.org/2000/svg">
<path d="M5.86806 83.9583V2.70834H16.1597V83.9583H5.86806Z" fill="white"/>
<path d="M101.376 86.6667L44.5007 25.7292V83.9583H34.7507V0L91.6257 60.9375V2.70834H101.376V86.6667Z" fill="white"/>
<path d="M111.884 11.9167V2.70834H165.509V11.9167H143.842V83.9583H133.551V11.9167H111.884Z" fill="white"/>
<path d="M176.06 83.9583V2.70834H216.143V11.9167H186.351V29.25H209.824V38.4583H186.351V74.75H216.143V83.9583H176.06Z" fill="white"/>
<path d="M227.735 83.9583V2.70834H238.026V74.75H266.193V83.9583H227.735Z" fill="white"/>
<path d="M276.744 83.9583V2.70834H287.035V74.75H315.202V83.9583H276.744Z" fill="white"/>
<path d="M326.836 83.9583V2.70834H337.128V83.9583H326.836Z" fill="white"/>
<path d="M392.101 85.5833C386.202 85.5833 380.696 84.5 375.58 82.3333C370.464 80.1065 365.95 77.0671 362.038 73.2153C358.186 69.3032 355.177 64.8194 353.01 59.7639C350.844 54.6482 349.76 49.1713 349.76 43.3333C349.76 37.4954 350.844 32.0486 353.01 26.9931C355.237 21.8773 358.277 17.3935 362.128 13.5417C366.04 9.62963 370.554 6.59028 375.67 4.42362C380.786 2.19677 386.293 1.08334 392.191 1.08334C397.969 1.08334 403.385 2.16667 408.441 4.33334C413.497 6.43982 417.95 9.3588 421.802 13.0903L418.823 25.5486C416.054 21.0949 412.323 17.544 407.628 14.8958C402.994 12.1875 397.848 10.8333 392.191 10.8333C386.233 10.8333 380.846 12.3079 376.031 15.2569C371.277 18.1458 367.485 22.0579 364.656 26.9931C361.828 31.8681 360.413 37.3148 360.413 43.3333C360.413 49.2315 361.797 54.6482 364.566 59.5833C367.395 64.5185 371.186 68.4607 375.941 71.4097C380.756 74.3588 386.142 75.8333 392.101 75.8333C395.471 75.8333 398.661 75.4421 401.67 74.6597C404.74 73.8171 407.538 72.6435 410.066 71.1389V49.8333H387.677V40.625H419.996V76.375C416.325 79.4445 412.052 81.7616 407.177 83.3264C402.362 84.831 397.337 85.5833 392.101 85.5833Z" fill="white"/>
<path d="M435.323 83.9583V2.70834H475.407V11.9167H445.615V29.25H469.087V38.4583H445.615V74.75H475.407V83.9583H435.323Z" fill="white"/>
<path d="M553.623 86.6667L496.748 25.7292V83.9583H486.998V0L543.873 60.9375V2.70834H553.623V86.6667Z" fill="white"/>
<path d="M564.132 11.9167V2.70834H617.757V11.9167H596.09V83.9583H585.798V11.9167H564.132Z" fill="white"/>
<path d="M667.662 85.0417C662.847 85.0417 658.484 84.0787 654.572 82.1528C650.72 80.2269 647.651 77.8796 645.364 75.1111L648.343 62.6528C650.028 66.0232 652.556 69.0625 655.926 71.7708C659.297 74.4792 663.329 75.8333 668.023 75.8333C672.297 75.8333 675.817 74.4792 678.586 71.7708C681.415 69.0625 682.829 65.7222 682.829 61.75C682.829 58.8611 682.137 56.4838 680.753 54.6181C679.368 52.7523 677.803 51.2778 676.058 50.1944C674.313 49.1111 672.928 48.3287 671.905 47.8472L661.975 42.7917C660.41 41.9491 658.454 40.7755 656.107 39.2708C653.82 37.7662 651.803 35.6898 650.058 33.0417C648.313 30.3935 647.44 26.963 647.44 22.75C647.44 18.6574 648.373 15.0162 650.239 11.8264C652.165 8.63658 654.813 6.13889 658.183 4.33334C661.614 2.52778 665.526 1.62501 669.919 1.62501C674.253 1.62501 678.074 2.40741 681.384 3.97223C684.695 5.47686 687.283 7.04167 689.148 8.66667L686.169 21.125C684.665 18.5972 682.438 16.2199 679.489 13.9931C676.54 11.7662 673.199 10.6528 669.468 10.6528C665.857 10.6528 662.968 11.7361 660.801 13.9028C658.634 16.0093 657.551 18.6273 657.551 21.7569C657.551 24.1644 658.093 26.1505 659.176 27.7153C660.32 29.2801 661.584 30.5139 662.968 31.4167C664.412 32.3194 665.586 33.0116 666.489 33.4931L676.6 38.5486C677.803 39.1505 679.308 39.9931 681.114 41.0764C682.979 42.1597 684.815 43.6042 686.621 45.4097C688.426 47.1551 689.931 49.3218 691.134 51.9097C692.338 54.4375 692.94 57.5069 692.94 61.1181C692.94 65.7523 691.827 69.875 689.6 73.4861C687.433 77.0972 684.454 79.9259 680.662 81.9722C676.871 84.0185 672.537 85.0417 667.662 85.0417Z" fill="white"/>
<path d="M740.962 85.5833C735.124 85.5833 729.617 84.5 724.441 82.3333C719.325 80.1065 714.811 77.0671 710.899 73.2153C707.047 69.3634 704.008 64.8796 701.781 59.7639C699.614 54.6482 698.531 49.1713 698.531 43.3333C698.531 37.4954 699.614 32.0185 701.781 26.9028C704.008 21.787 707.047 17.3032 710.899 13.4514C714.811 9.59954 719.325 6.59028 724.441 4.42362C729.617 2.19677 735.124 1.08334 740.962 1.08334C746.86 1.08334 752.367 2.19677 757.482 4.42362C762.598 6.59028 767.082 9.59954 770.934 13.4514C774.846 17.3032 777.885 21.787 780.052 26.9028C782.279 32.0185 783.392 37.4954 783.392 43.3333C783.392 49.1713 782.279 54.6482 780.052 59.7639C777.885 64.8796 774.846 69.3634 770.934 73.2153C767.082 77.0671 762.598 80.1065 757.482 82.3333C752.367 84.5 746.86 85.5833 740.962 85.5833ZM740.962 75.8333C746.92 75.8333 752.307 74.3889 757.121 71.5C761.936 68.5509 765.728 64.6088 768.496 59.6736C771.325 54.7384 772.739 49.2917 772.739 43.3333C772.739 37.3148 771.325 31.8681 768.496 26.9931C765.728 22.0579 761.936 18.1458 757.121 15.2569C752.307 12.3079 746.92 10.8333 740.962 10.8333C735.003 10.8333 729.617 12.3079 724.802 15.2569C720.047 18.1458 716.256 22.0579 713.427 26.9931C710.598 31.8681 709.184 37.3148 709.184 43.3333C709.184 49.2917 710.598 54.7384 713.427 59.6736C716.256 64.6088 720.047 68.5509 724.802 71.5C729.617 74.3889 735.003 75.8333 740.962 75.8333Z" fill="white"/>
<path d="M795.012 83.9583V2.70834H805.304V74.75H833.47V83.9583H795.012Z" fill="white"/>
<path d="M834.271 83.9583L868.667 0H868.847L903.243 83.9583H892.32L882.75 59.8542H854.313L844.653 83.9583H834.271ZM857.743 51.2778H879.32L872.91 35.2083C872.128 33.162 871.375 31.1458 870.653 29.1597C869.931 27.1736 869.209 24.7963 868.486 22.0278C867.764 24.7963 867.072 27.1736 866.41 29.1597C865.748 31.0857 864.996 33.1019 864.153 35.2083L857.743 51.2778Z" fill="white"/>
<path d="M911.328 83.9583V2.70834H931.731C936.847 2.70834 941.24 3.73149 944.912 5.77778C948.583 7.82408 951.412 10.5324 953.398 13.9028C955.444 17.213 956.467 20.8542 956.467 24.8264C956.467 29.2801 955.203 33.2824 952.675 36.8333C950.148 40.3843 946.687 43.0023 942.293 44.6875L969.557 83.9583H957.55L931.731 46.5833H921.62V83.9583H911.328ZM921.62 37.9167H931.731C935.222 37.9167 938.05 37.2847 940.217 36.0208C942.444 34.6968 944.069 33.0417 945.092 31.0556C946.175 29.0093 946.717 26.9329 946.717 24.8264C946.717 21.0347 945.333 17.9352 942.564 15.5278C939.856 13.1204 936.245 11.9167 931.731 11.9167H921.62V37.9167Z" fill="white"/>
<path d="M22.2986 185.042C17.4838 185.042 13.1204 184.079 9.20833 182.153C5.35648 180.227 2.28704 177.88 0 175.111L2.97917 162.653C4.66435 166.023 7.19213 169.063 10.5625 171.771C13.9329 174.479 17.9653 175.833 22.6597 175.833C26.9329 175.833 30.4537 174.479 33.2222 171.771C36.0509 169.063 37.4653 165.722 37.4653 161.75C37.4653 158.861 36.7731 156.484 35.3889 154.618C34.0046 152.752 32.4398 151.278 30.6944 150.194C28.9491 149.111 27.5648 148.329 26.5417 147.847L16.6111 142.792C15.0463 141.949 13.0903 140.775 10.7431 139.271C8.45602 137.766 6.43982 135.69 4.69444 133.042C2.94907 130.394 2.07639 126.963 2.07639 122.75C2.07639 118.657 3.00926 115.016 4.875 111.826C6.80093 108.637 9.44907 106.139 12.8194 104.333C16.25 102.528 20.162 101.625 24.5556 101.625C28.8889 101.625 32.7106 102.407 36.0208 103.972C39.331 105.477 41.919 107.042 43.7847 108.667L40.8056 121.125C39.3009 118.597 37.0741 116.22 34.125 113.993C31.1759 111.766 27.8356 110.653 24.1042 110.653C20.4931 110.653 17.6042 111.736 15.4375 113.903C13.2708 116.009 12.1875 118.627 12.1875 121.757C12.1875 124.164 12.7292 126.15 13.8125 127.715C14.956 129.28 16.2199 130.514 17.6042 131.417C19.0486 132.319 20.2222 133.012 21.125 133.493L31.2361 138.549C32.4398 139.15 33.9444 139.993 35.75 141.076C37.6157 142.16 39.4514 143.604 41.2569 145.41C43.0625 147.155 44.5671 149.322 45.7708 151.91C46.9745 154.438 47.5764 157.507 47.5764 161.118C47.5764 165.752 46.463 169.875 44.2361 173.486C42.0694 177.097 39.0903 179.926 35.2986 181.972C31.5069 184.019 27.1736 185.042 22.2986 185.042Z" fill="white"/>
<path d="M83.8618 185.042C78.7461 185.042 74.2021 183.928 70.2299 181.701C66.2577 179.414 63.1281 176.285 60.841 172.312C58.6142 168.28 57.5007 163.646 57.5007 158.41V102.708H67.7924V158.049C67.7924 163.405 69.3271 167.708 72.3966 170.958C75.466 174.208 79.348 175.833 84.0424 175.833C88.6767 175.833 92.5285 174.238 95.598 171.049C98.7276 167.799 100.292 163.586 100.292 158.41V102.708H110.223V158.049C110.223 163.345 109.079 168.039 106.792 172.132C104.566 176.164 101.466 179.324 97.4938 181.611C93.5818 183.898 89.0378 185.042 83.8618 185.042Z" fill="white"/>
<path d="M126.433 183.958V102.708H146.836C151.951 102.708 156.345 103.731 160.016 105.778C163.688 107.824 166.516 110.532 168.502 113.903C170.549 117.213 171.572 120.854 171.572 124.826C171.572 129.28 170.308 133.282 167.78 136.833C165.252 140.384 161.792 143.002 157.398 144.688L184.662 183.958H172.655L146.836 146.583H136.725V183.958H126.433ZM136.725 137.917H146.836C150.326 137.917 153.155 137.285 155.322 136.021C157.549 134.697 159.174 133.042 160.197 131.056C161.28 129.009 161.822 126.933 161.822 124.826C161.822 121.035 160.438 117.935 157.669 115.528C154.961 113.12 151.35 111.917 146.836 111.917H136.725V137.917Z" fill="white"/>
<path d="M191.421 183.958V102.708H231.504V111.917H201.713V129.25H228.796V138.458H201.713V183.958H191.421Z" fill="white"/>
<path d="M222.555 183.958L256.951 100H257.131L291.527 183.958H280.604L271.034 159.854H242.597L232.937 183.958H222.555ZM246.027 151.278H267.604L261.194 135.208C260.412 133.162 259.659 131.146 258.937 129.16C258.215 127.174 257.493 124.796 256.77 122.028C256.048 124.796 255.356 127.174 254.694 129.16C254.032 131.086 253.28 133.102 252.437 135.208L246.027 151.278Z" fill="white"/>
<path d="M333.148 185.583C327.31 185.583 321.803 184.5 316.627 182.333C311.511 180.106 306.997 177.067 303.085 173.215C299.233 169.363 296.194 164.88 293.967 159.764C291.8 154.648 290.717 149.171 290.717 143.333C290.717 137.495 291.8 132.019 293.967 126.903C296.194 121.787 299.233 117.303 303.085 113.451C306.997 109.6 311.511 106.59 316.627 104.424C321.803 102.197 327.31 101.083 333.148 101.083C338.925 101.083 344.342 102.167 349.398 104.333C354.453 106.44 358.907 109.359 362.759 113.09L359.78 125.549C357.011 121.095 353.28 117.544 348.585 114.896C343.951 112.188 338.805 110.833 333.148 110.833C327.189 110.833 321.803 112.308 316.988 115.257C312.233 118.146 308.442 122.058 305.613 126.993C302.784 131.868 301.37 137.315 301.37 143.333C301.37 149.292 302.784 154.738 305.613 159.674C308.442 164.609 312.233 168.551 316.988 171.5C321.803 174.389 327.189 175.833 333.148 175.833C338.865 175.833 344.041 174.479 348.675 171.771C353.31 169.063 357.011 165.512 359.78 161.118L362.759 173.576C358.907 177.248 354.453 180.167 349.398 182.333C344.342 184.5 338.925 185.583 333.148 185.583Z" fill="white"/>
<path d="M372.725 183.958V102.708H412.809V111.917H383.017V129.25H406.489V138.458H383.017V174.75H412.809V183.958H372.725Z" fill="white"/>
<path d="M446.241 183.958V100L483.977 152L520.991 100V183.958H510.7V146.403C510.7 143.935 510.73 141.257 510.79 138.368C510.85 135.419 511.061 132.079 511.422 128.347C509.556 131.657 507.721 134.576 505.915 137.104C504.17 139.572 502.575 141.859 501.13 143.965L483.616 168.792L465.561 143.965C464.056 141.859 462.431 139.572 460.686 137.104C459.001 134.576 457.195 131.657 455.269 128.347C455.63 132.079 455.841 135.419 455.901 138.368C455.961 141.257 455.991 143.935 455.991 146.403V183.958H446.241Z" fill="white"/>
<path d="M528.791 183.958L563.187 100H563.368L597.764 183.958H586.84L577.271 159.854H548.833L539.173 183.958H528.791ZM552.264 151.278H573.84L567.43 135.208C566.648 133.162 565.896 131.146 565.173 129.16C564.451 127.174 563.729 124.796 563.007 122.028C562.284 124.796 561.592 127.174 560.93 129.16C560.268 131.086 559.516 133.102 558.673 135.208L552.264 151.278Z" fill="white"/>
<path d="M606.661 183.958V102.708H616.953V183.958H606.661Z" fill="white"/>
<path d="M702.169 186.667L645.294 125.729V183.958H635.544V100L692.419 160.938V102.708H702.169V186.667Z" fill="white"/>
<path d="M712.677 111.917V102.708H766.302V111.917H744.635V183.958H734.344V111.917H712.677Z" fill="white"/>
<path d="M776.853 183.958V102.708H816.936V111.917H787.144V129.25H810.617V138.458H787.144V174.75H816.936V183.958H776.853Z" fill="white"/>
<path d="M895.153 186.667L838.278 125.729V183.958H828.528V100L885.403 160.938V102.708H895.153V186.667Z" fill="white"/>
<path d="M902.953 183.958L937.349 100H937.529L971.925 183.958H961.001L951.432 159.854H922.994L913.335 183.958H902.953ZM926.425 151.278H948.001L941.592 135.208C940.809 133.162 940.057 131.146 939.335 129.16C938.612 127.174 937.89 124.796 937.168 122.028C936.446 124.796 935.754 127.174 935.092 129.16C934.43 131.086 933.677 133.102 932.835 135.208L926.425 151.278Z" fill="white"/>
<path d="M1046.36 186.667L989.489 125.729V183.958H979.739V100L1036.61 160.938V102.708H1046.36V186.667Z" fill="white"/>
<path d="M1100.39 185.583C1094.55 185.583 1089.04 184.5 1083.87 182.333C1078.75 180.106 1074.24 177.067 1070.32 173.215C1066.47 169.363 1063.43 164.88 1061.21 159.764C1059.04 154.648 1057.96 149.171 1057.96 143.333C1057.96 137.495 1059.04 132.019 1061.21 126.903C1063.43 121.787 1066.47 117.303 1070.32 113.451C1074.24 109.6 1078.75 106.59 1083.87 104.424C1089.04 102.197 1094.55 101.083 1100.39 101.083C1106.16 101.083 1111.58 102.167 1116.64 104.333C1121.69 106.44 1126.15 109.359 1130 113.09L1127.02 125.549C1124.25 121.095 1120.52 117.544 1115.82 114.896C1111.19 112.188 1106.04 110.833 1100.39 110.833C1094.43 110.833 1089.04 112.308 1084.23 115.257C1079.47 118.146 1075.68 122.058 1072.85 126.993C1070.02 131.868 1068.61 137.315 1068.61 143.333C1068.61 149.292 1070.02 154.738 1072.85 159.674C1075.68 164.609 1079.47 168.551 1084.23 171.5C1089.04 174.389 1094.43 175.833 1100.39 175.833C1106.1 175.833 1111.28 174.479 1115.91 171.771C1120.55 169.063 1124.25 165.512 1127.02 161.118L1130 173.576C1126.15 177.248 1121.69 180.167 1116.64 182.333C1111.58 184.5 1106.16 185.583 1100.39 185.583Z" fill="white"/>
<path d="M1139.96 183.958V102.708H1180.05V111.917H1150.26V129.25H1173.73V138.458H1150.26V174.75H1180.05V183.958H1139.96Z" fill="white"/>
</svg>
