<svg width="464" height="78" viewBox="0 0 464 78" fill="none" xmlns="http://www.w3.org/2000/svg">
<path d="M0 31.95V0.45H12.96C15.75 0.45 18.135 0.9 20.115 1.8C22.125 2.7 23.67 3.99 24.75 5.67C25.83 7.35 26.37 9.345 26.37 11.655C26.37 13.965 25.83 15.96 24.75 17.64C23.67 19.32 22.125 20.61 20.115 21.51C18.135 22.41 15.75 22.86 12.96 22.86H3.24L5.85 20.115V31.95H0ZM5.85 20.745L3.24 17.91H12.69C15.27 17.91 17.205 17.37 18.495 16.29C19.815 15.18 20.475 13.635 20.475 11.655C20.475 9.645 19.815 8.1 18.495 7.02C17.205 5.94 15.27 5.4 12.69 5.4H3.24L5.85 2.52V20.745Z" fill="white"/>
<path d="M35.6319 24.525L35.3169 17.595L51.8319 0.45H58.4019L44.6769 15.03L41.4369 18.585L35.6319 24.525ZM30.4119 31.95V0.45H36.2619V31.95H30.4119ZM52.3719 31.95L40.3119 17.595L44.1819 13.32L59.2119 31.95H52.3719Z" fill="white"/>
<path d="M74.5007 32.4C70.1807 32.4 66.7907 31.185 64.3307 28.755C61.9007 26.325 60.6857 22.815 60.6857 18.225V0.45H66.5357V18C66.5357 21.24 67.2257 23.595 68.6057 25.065C70.0157 26.535 71.9957 27.27 74.5457 27.27C77.0957 27.27 79.0607 26.535 80.4407 25.065C81.8207 23.595 82.5107 21.24 82.5107 18V0.45H88.2707V18.225C88.2707 22.815 87.0407 26.325 84.5807 28.755C82.1507 31.185 78.7907 32.4 74.5007 32.4Z" fill="white"/>
<path d="M92.9085 21.78V17.1H105.283V21.78H92.9085Z" fill="white"/>
<path d="M119.284 32.4C116.824 32.4 114.469 32.055 112.219 31.365C109.969 30.645 108.184 29.73 106.864 28.62L108.889 24.075C110.149 25.065 111.709 25.89 113.569 26.55C115.429 27.21 117.334 27.54 119.284 27.54C120.934 27.54 122.269 27.36 123.289 27C124.309 26.64 125.059 26.16 125.539 25.56C126.019 24.93 126.259 24.225 126.259 23.445C126.259 22.485 125.914 21.72 125.224 21.15C124.534 20.55 123.634 20.085 122.524 19.755C121.444 19.395 120.229 19.065 118.879 18.765C117.559 18.465 116.224 18.12 114.874 17.73C113.554 17.31 112.339 16.785 111.229 16.155C110.149 15.495 109.264 14.625 108.574 13.545C107.884 12.465 107.539 11.085 107.539 9.405C107.539 7.695 107.989 6.135 108.889 4.725C109.819 3.285 111.214 2.145 113.074 1.305C114.964 0.435 117.349 0 120.229 0C122.119 0 123.994 0.24 125.854 0.720001C127.714 1.2 129.334 1.89 130.714 2.79L128.869 7.335C127.459 6.495 126.004 5.88 124.504 5.49C123.004 5.07 121.564 4.86 120.184 4.86C118.564 4.86 117.244 5.055 116.224 5.445C115.234 5.835 114.499 6.345 114.019 6.975C113.569 7.605 113.344 8.325 113.344 9.135C113.344 10.095 113.674 10.875 114.334 11.475C115.024 12.045 115.909 12.495 116.989 12.825C118.099 13.155 119.329 13.485 120.679 13.815C122.029 14.115 123.364 14.46 124.684 14.85C126.034 15.24 127.249 15.75 128.329 16.38C129.439 17.01 130.324 17.865 130.984 18.945C131.674 20.025 132.019 21.39 132.019 23.04C132.019 24.72 131.554 26.28 130.624 27.72C129.724 29.13 128.329 30.27 126.439 31.14C124.549 31.98 122.164 32.4 119.284 32.4Z" fill="white"/>
<path d="M150.6 32.4C148.2 32.4 145.965 32.01 143.895 31.23C141.855 30.42 140.07 29.295 138.54 27.855C137.04 26.385 135.87 24.66 135.03 22.68C134.19 20.7 133.77 18.54 133.77 16.2C133.77 13.86 134.19 11.7 135.03 9.72C135.87 7.74 137.055 6.03 138.585 4.59C140.115 3.12 141.9 1.995 143.94 1.215C145.98 0.405 148.215 0 150.645 0C153.225 0 155.58 0.45 157.71 1.35C159.84 2.22 161.64 3.525 163.11 5.265L159.33 8.82C158.19 7.59 156.915 6.675 155.505 6.075C154.095 5.445 152.565 5.13 150.915 5.13C149.265 5.13 147.75 5.4 146.37 5.94C145.02 6.48 143.835 7.245 142.815 8.235C141.825 9.225 141.045 10.395 140.475 11.745C139.935 13.095 139.665 14.58 139.665 16.2C139.665 17.82 139.935 19.305 140.475 20.655C141.045 22.005 141.825 23.175 142.815 24.165C143.835 25.155 145.02 25.92 146.37 26.46C147.75 27 149.265 27.27 150.915 27.27C152.565 27.27 154.095 26.97 155.505 26.37C156.915 25.74 158.19 24.795 159.33 23.535L163.11 27.135C161.64 28.845 159.84 30.15 157.71 31.05C155.58 31.95 153.21 32.4 150.6 32.4Z" fill="white"/>
<path d="M166.915 31.95V0.45H172.765V27H189.235V31.95H166.915Z" fill="white"/>
<path d="M187.642 31.95L201.817 0.45H207.577L221.797 31.95H215.677L203.482 3.555H205.822L193.672 31.95H187.642ZM194.167 24.66L195.742 20.07H212.752L214.327 24.66H194.167Z" fill="white"/>
<path d="M224.003 31.95V0.45H238.763C242.543 0.45 245.423 1.2 247.403 2.7C249.383 4.17 250.373 6.15 250.373 8.64C250.373 10.32 249.983 11.76 249.203 12.96C248.423 14.13 247.373 15.045 246.053 15.705C244.763 16.335 243.353 16.65 241.823 16.65L242.633 15.03C244.403 15.03 245.993 15.36 247.403 16.02C248.813 16.65 249.923 17.58 250.733 18.81C251.573 20.04 251.993 21.57 251.993 23.4C251.993 26.1 250.958 28.2 248.888 29.7C246.818 31.2 243.743 31.95 239.663 31.95H224.003ZM229.853 27.36H239.303C241.493 27.36 243.173 27 244.343 26.28C245.513 25.56 246.098 24.405 246.098 22.815C246.098 21.255 245.513 20.115 244.343 19.395C243.173 18.645 241.493 18.27 239.303 18.27H229.403V13.725H238.133C240.173 13.725 241.733 13.365 242.813 12.645C243.923 11.925 244.478 10.845 244.478 9.405C244.478 7.935 243.923 6.84 242.813 6.12C241.733 5.4 240.173 5.04 238.133 5.04H229.853V27.36Z" fill="white"/>
<path d="M206.84 57.82H215.63V59.29H206.84V57.82ZM222.11 50.5H223.58V73.18C223.58 73.94 223.69 74.44 223.91 74.68C224.13 74.9 224.6 75.01 225.32 75.01C225.5 75.01 225.82 75.01 226.28 75.01C226.74 75.01 227.26 75.01 227.84 75.01C228.42 75.01 228.95 75.01 229.43 75.01C229.91 75.01 230.27 75.01 230.51 75.01C231.03 75.01 231.42 74.83 231.68 74.47C231.94 74.11 232.12 73.47 232.22 72.55C232.32 71.61 232.4 70.3 232.46 68.62C232.62 68.72 232.78 68.82 232.94 68.92C233.1 69.02 233.26 69.11 233.42 69.19C233.58 69.25 233.73 69.3 233.87 69.34C233.81 71.1 233.69 72.5 233.51 73.54C233.33 74.58 233.02 75.32 232.58 75.76C232.14 76.2 231.47 76.42 230.57 76.42C230.41 76.42 230.08 76.42 229.58 76.42C229.08 76.42 228.52 76.42 227.9 76.42C227.28 76.42 226.72 76.42 226.22 76.42C225.72 76.42 225.4 76.42 225.26 76.42C224.44 76.42 223.8 76.33 223.34 76.15C222.88 75.97 222.56 75.63 222.38 75.13C222.2 74.65 222.11 73.98 222.11 73.12V50.5ZM214.91 50.5H216.38V76.96H214.91V50.5ZM231.77 55.18L232.91 56.41C232.07 57.13 231.1 57.86 230 58.6C228.9 59.34 227.75 60.07 226.55 60.79C225.37 61.51 224.21 62.2 223.07 62.86C223.01 62.7 222.92 62.51 222.8 62.29C222.68 62.07 222.56 61.89 222.44 61.75C223.58 61.09 224.72 60.39 225.86 59.65C227.02 58.91 228.11 58.16 229.13 57.4C230.17 56.62 231.05 55.88 231.77 55.18ZM206.03 71.92C206.85 71.62 207.78 71.27 208.82 70.87C209.86 70.45 210.97 70 212.15 69.52C213.33 69.04 214.51 68.56 215.69 68.08L215.96 69.37C214.36 70.07 212.74 70.77 211.1 71.47C209.48 72.15 208.02 72.76 206.72 73.3L206.03 71.92Z" fill="white"/>
<path d="M235.55 58.87H261.74V60.31H235.55V58.87ZM249.68 59.44C250.38 61.92 251.31 64.24 252.47 66.4C253.63 68.56 255.02 70.45 256.64 72.07C258.26 73.67 260.09 74.92 262.13 75.82C262.01 75.92 261.88 76.05 261.74 76.21C261.62 76.37 261.49 76.53 261.35 76.69C261.23 76.85 261.13 77 261.05 77.14C258.95 76.14 257.07 74.79 255.41 73.09C253.77 71.37 252.36 69.39 251.18 67.15C250 64.89 249.03 62.44 248.27 59.8L249.68 59.44ZM247.94 49.96H249.47C249.45 51.14 249.4 52.49 249.32 54.01C249.26 55.53 249.11 57.14 248.87 58.84C248.63 60.54 248.24 62.27 247.7 64.03C247.16 65.77 246.4 67.45 245.42 69.07C244.44 70.69 243.19 72.2 241.67 73.6C240.15 75 238.28 76.18 236.06 77.14C235.94 76.96 235.77 76.76 235.55 76.54C235.35 76.32 235.15 76.14 234.95 76C237.13 75.06 238.96 73.93 240.44 72.61C241.94 71.27 243.16 69.82 244.1 68.26C245.06 66.68 245.8 65.05 246.32 63.37C246.84 61.69 247.21 60.03 247.43 58.39C247.65 56.75 247.79 55.21 247.85 53.77C247.91 52.33 247.94 51.06 247.94 49.96Z" fill="white"/>
<path d="M268.55 65.02H286.34V77.08H284.87V66.28H269.99V77.2H268.55V65.02ZM269.3 69.79H285.44V71.05H269.3V69.79ZM267.02 52.54H276.65V53.8H267.02V52.54ZM264.02 57.19H277.49V58.45H264.02V57.19ZM269.3 74.74H285.44V76H269.3V74.74ZM270.5 53.08H271.94V55.84C271.94 56.54 271.86 57.3 271.7 58.12C271.54 58.94 271.22 59.79 270.74 60.67C270.28 61.53 269.57 62.38 268.61 63.22C267.65 64.04 266.35 64.81 264.71 65.53C264.61 65.37 264.47 65.19 264.29 64.99C264.11 64.77 263.94 64.6 263.78 64.48C265.36 63.84 266.6 63.15 267.5 62.41C268.4 61.67 269.06 60.91 269.48 60.13C269.92 59.35 270.2 58.59 270.32 57.85C270.44 57.11 270.5 56.44 270.5 55.84V53.08ZM267.59 49.87L268.97 50.17C268.55 51.41 268.02 52.62 267.38 53.8C266.74 54.96 266.06 55.95 265.34 56.77C265.26 56.69 265.14 56.6 264.98 56.5C264.84 56.4 264.69 56.31 264.53 56.23C264.39 56.13 264.26 56.06 264.14 56.02C264.9 55.22 265.57 54.28 266.15 53.2C266.75 52.12 267.23 51.01 267.59 49.87ZM271.22 59.23C271.5 59.39 271.91 59.64 272.45 59.98C272.99 60.3 273.57 60.66 274.19 61.06C274.81 61.46 275.38 61.83 275.9 62.17C276.42 62.49 276.79 62.73 277.01 62.89L276.08 64C275.8 63.78 275.4 63.49 274.88 63.13C274.38 62.75 273.83 62.36 273.23 61.96C272.65 61.54 272.09 61.15 271.55 60.79C271.03 60.43 270.62 60.16 270.32 59.98L271.22 59.23ZM280.25 53.83V61.03H287.45V53.83H280.25ZM278.87 52.51H288.89V62.38H278.87V52.51Z" fill="white"/>
<path d="M300.23 70.36H301.67V74.68C301.67 75 301.79 75.21 302.03 75.31C302.27 75.43 302.83 75.49 303.71 75.49C303.93 75.49 304.32 75.49 304.88 75.49C305.46 75.49 306.1 75.49 306.8 75.49C307.5 75.49 308.15 75.49 308.75 75.49C309.37 75.49 309.82 75.49 310.1 75.49C310.56 75.49 310.9 75.42 311.12 75.28C311.36 75.16 311.53 74.89 311.63 74.47C311.73 74.03 311.8 73.37 311.84 72.49C311.94 72.57 312.07 72.65 312.23 72.73C312.39 72.81 312.55 72.88 312.71 72.94C312.87 72.98 313.01 73.01 313.13 73.03C313.07 74.07 312.95 74.86 312.77 75.4C312.61 75.96 312.33 76.34 311.93 76.54C311.55 76.74 310.98 76.84 310.22 76.84C310.12 76.84 309.84 76.84 309.38 76.84C308.94 76.84 308.42 76.84 307.82 76.84C307.24 76.84 306.65 76.84 306.05 76.84C305.47 76.84 304.96 76.84 304.52 76.84C304.08 76.84 303.81 76.84 303.71 76.84C302.81 76.84 302.1 76.78 301.58 76.66C301.08 76.56 300.73 76.35 300.53 76.03C300.33 75.71 300.23 75.26 300.23 74.68V70.36ZM302.9 69.85L303.83 69.01C304.77 69.35 305.71 69.8 306.65 70.36C307.61 70.92 308.36 71.48 308.9 72.04L307.97 73C307.43 72.46 306.68 71.9 305.72 71.32C304.78 70.72 303.84 70.23 302.9 69.85ZM313.25 71.08L314.36 70.33C315.1 70.79 315.82 71.32 316.52 71.92C317.24 72.52 317.89 73.13 318.47 73.75C319.07 74.37 319.54 74.96 319.88 75.52L318.68 76.33C318.36 75.79 317.91 75.21 317.33 74.59C316.77 73.95 316.13 73.32 315.41 72.7C314.71 72.08 313.99 71.54 313.25 71.08ZM296.72 70.54L297.95 71.02C297.51 72.02 296.95 73.01 296.27 73.99C295.59 74.95 294.72 75.73 293.66 76.33L292.52 75.52C293.54 74.96 294.4 74.23 295.1 73.33C295.8 72.41 296.34 71.48 296.72 70.54ZM295.67 60.88H316.07V68.83H295.49V67.66H314.63V62.05H295.67V60.88ZM296.57 64.21H315.14V65.35H296.57V64.21ZM293.63 51.67H305V52.81H293.63V51.67ZM294.26 54.58H304.58V55.69H294.26V54.58ZM298.7 49.9H300.08V60.4H298.7V49.9ZM306.29 51.67H318.62V52.81H306.29V51.67ZM305.93 57.52H319.16V58.66H305.93V57.52ZM306.98 54.58H318.14V55.69H306.98V54.58ZM311.63 49.9H313.04V60.4H311.63V49.9ZM293.27 57.94C294.27 57.88 295.41 57.81 296.69 57.73C297.99 57.63 299.37 57.53 300.83 57.43C302.29 57.31 303.77 57.18 305.27 57.04V58.15C303.09 58.35 300.95 58.54 298.85 58.72C296.77 58.9 294.95 59.06 293.39 59.2L293.27 57.94Z" fill="white"/>
<path d="M321.71 57.34H329.78V58.72H321.71V57.34ZM325.19 50.23H326.6V70.33H325.19V50.23ZM321.44 71.44C322.5 71.1 323.78 70.65 325.28 70.09C326.78 69.51 328.31 68.92 329.87 68.32L330.11 69.67C328.67 70.23 327.23 70.79 325.79 71.35C324.37 71.91 323.08 72.42 321.92 72.88L321.44 71.44ZM331.7 54.76H348.44V56.14H331.7V54.76ZM332 60.67H337.88V61.99H332V60.67ZM331.22 54.76H332.6V63.73C332.6 64.77 332.55 65.88 332.45 67.06C332.37 68.24 332.2 69.43 331.94 70.63C331.7 71.83 331.33 73 330.83 74.14C330.35 75.26 329.72 76.29 328.94 77.23C328.88 77.13 328.78 77.02 328.64 76.9C328.5 76.78 328.36 76.67 328.22 76.57C328.08 76.47 327.96 76.39 327.86 76.33C328.88 75.13 329.62 73.8 330.08 72.34C330.56 70.88 330.87 69.41 331.01 67.93C331.15 66.45 331.22 65.05 331.22 63.73V54.76ZM337.28 60.67H338.63C338.63 60.67 338.63 60.76 338.63 60.94C338.63 61.12 338.62 61.27 338.6 61.39C338.58 63.73 338.54 65.59 338.48 66.97C338.44 68.35 338.37 69.38 338.27 70.06C338.17 70.74 338.03 71.19 337.85 71.41C337.67 71.65 337.47 71.82 337.25 71.92C337.03 72.02 336.74 72.08 336.38 72.1C336.08 72.12 335.67 72.13 335.15 72.13C334.65 72.13 334.12 72.11 333.56 72.07C333.54 71.87 333.5 71.65 333.44 71.41C333.38 71.15 333.29 70.94 333.17 70.78C333.77 70.82 334.33 70.85 334.85 70.87C335.37 70.87 335.72 70.87 335.9 70.87C336.3 70.87 336.57 70.78 336.71 70.6C336.83 70.42 336.92 70.01 336.98 69.37C337.06 68.73 337.12 67.74 337.16 66.4C337.22 65.04 337.26 63.22 337.28 60.94V60.67ZM340.25 49.9H341.69C341.67 52.44 341.71 54.84 341.81 57.1C341.91 59.34 342.06 61.41 342.26 63.31C342.46 65.21 342.7 66.91 342.98 68.41C343.26 69.89 343.58 71.16 343.94 72.22C344.3 73.28 344.7 74.09 345.14 74.65C345.58 75.19 346.05 75.46 346.55 75.46C346.91 75.46 347.17 75.06 347.33 74.26C347.49 73.44 347.6 72.11 347.66 70.27C347.82 70.41 348.01 70.55 348.23 70.69C348.47 70.83 348.68 70.93 348.86 70.99C348.78 72.45 348.65 73.61 348.47 74.47C348.31 75.33 348.06 75.95 347.72 76.33C347.4 76.71 346.95 76.9 346.37 76.9C345.65 76.9 344.99 76.58 344.39 75.94C343.81 75.32 343.3 74.43 342.86 73.27C342.42 72.11 342.03 70.72 341.69 69.1C341.37 67.46 341.11 65.64 340.91 63.64C340.71 61.62 340.55 59.46 340.43 57.16C340.33 54.84 340.27 52.42 340.25 49.9ZM342.59 51.01L343.55 50.26C344.27 50.74 345.01 51.29 345.77 51.91C346.55 52.53 347.15 53.08 347.57 53.56L346.55 54.43C346.15 53.93 345.57 53.36 344.81 52.72C344.05 52.08 343.31 51.51 342.59 51.01ZM346.28 59.71L347.66 59.95C346.66 63.79 345.26 67.13 343.46 69.97C341.68 72.79 339.45 75.12 336.77 76.96C336.69 76.88 336.58 76.77 336.44 76.63C336.32 76.49 336.19 76.35 336.05 76.21C335.91 76.09 335.78 75.99 335.66 75.91C338.36 74.21 340.57 71.99 342.29 69.25C344.03 66.51 345.36 63.33 346.28 59.71Z" fill="white"/>
<path d="M362.93 49.75H364.43V55.12H362.93V49.75ZM362.93 55.57H364.43V77.29H362.93V55.57ZM350.45 54.28H377.15V55.69H350.45V54.28ZM353.66 60.34H373.31V61.75H355.07V73.39H353.66V60.34ZM372.74 60.34H374.21V71.17C374.21 71.69 374.13 72.08 373.97 72.34C373.83 72.6 373.54 72.8 373.1 72.94C372.66 73.06 372.01 73.14 371.15 73.18C370.29 73.2 369.18 73.21 367.82 73.21C367.8 72.97 367.73 72.72 367.61 72.46C367.51 72.2 367.41 71.97 367.31 71.77C368.09 71.79 368.8 71.81 369.44 71.83C370.1 71.83 370.65 71.83 371.09 71.83C371.53 71.81 371.85 71.8 372.05 71.8C372.33 71.78 372.51 71.73 372.59 71.65C372.69 71.55 372.74 71.39 372.74 71.17V60.34Z" fill="white"/>
<path d="M393.83 71.02L394.58 69.97C395.94 70.51 397.29 71.11 398.63 71.77C399.97 72.43 401.22 73.11 402.38 73.81C403.54 74.51 404.53 75.19 405.35 75.85L404.42 76.96C403.6 76.28 402.62 75.6 401.48 74.92C400.36 74.22 399.14 73.54 397.82 72.88C396.52 72.2 395.19 71.58 393.83 71.02ZM390.77 50.26L392.18 49.84C392.6 50.46 393.02 51.14 393.44 51.88C393.86 52.62 394.16 53.25 394.34 53.77L392.9 54.31C392.7 53.77 392.4 53.12 392 52.36C391.6 51.6 391.19 50.9 390.77 50.26ZM380.51 53.68H404.66V59.32H403.19V55.06H381.95V59.32H380.51V53.68ZM393.02 56.71H394.52C394.44 58.99 394.3 61.07 394.1 62.95C393.92 64.83 393.58 66.52 393.08 68.02C392.58 69.52 391.84 70.85 390.86 72.01C389.9 73.17 388.61 74.16 386.99 74.98C385.39 75.82 383.37 76.51 380.93 77.05C380.87 76.85 380.75 76.62 380.57 76.36C380.41 76.12 380.25 75.92 380.09 75.76C382.47 75.28 384.43 74.66 385.97 73.9C387.51 73.14 388.74 72.22 389.66 71.14C390.6 70.06 391.29 68.82 391.73 67.42C392.19 66 392.5 64.4 392.66 62.62C392.84 60.84 392.96 58.87 393.02 56.71ZM379.79 67.6H405.53V68.92H379.79V67.6ZM384.92 58.06L385.85 57.13C386.39 57.45 386.94 57.81 387.5 58.21C388.08 58.61 388.62 59.02 389.12 59.44C389.62 59.84 390.03 60.22 390.35 60.58L389.39 61.63C389.11 61.27 388.72 60.88 388.22 60.46C387.72 60.04 387.18 59.62 386.6 59.2C386.04 58.76 385.48 58.38 384.92 58.06ZM381.98 62.8L382.88 61.84C383.46 62.14 384.05 62.5 384.65 62.92C385.27 63.32 385.85 63.74 386.39 64.18C386.93 64.6 387.36 64.99 387.68 65.35L386.78 66.49C386.44 66.09 386 65.67 385.46 65.23C384.94 64.79 384.37 64.36 383.75 63.94C383.15 63.5 382.56 63.12 381.98 62.8Z" fill="white"/>
<path d="M417.23 64H418.58C418.58 64 418.58 64.09 418.58 64.27C418.58 64.45 418.57 64.6 418.55 64.72C418.37 67.3 418.19 69.37 418.01 70.93C417.83 72.47 417.63 73.65 417.41 74.47C417.19 75.27 416.92 75.82 416.6 76.12C416.38 76.38 416.13 76.56 415.85 76.66C415.59 76.76 415.25 76.83 414.83 76.87C414.47 76.87 413.96 76.86 413.3 76.84C412.66 76.84 411.98 76.81 411.26 76.75C411.24 76.55 411.19 76.33 411.11 76.09C411.05 75.85 410.95 75.63 410.81 75.43C411.61 75.51 412.34 75.56 413 75.58C413.68 75.6 414.15 75.61 414.41 75.61C414.67 75.61 414.88 75.59 415.04 75.55C415.2 75.51 415.35 75.42 415.49 75.28C415.73 75.02 415.95 74.51 416.15 73.75C416.37 72.97 416.56 71.82 416.72 70.3C416.9 68.78 417.07 66.77 417.23 64.27V64ZM407.51 70.87C408.57 70.61 409.81 70.28 411.23 69.88C412.65 69.48 414.11 69.06 415.61 68.62L415.76 69.85C414.38 70.25 413.01 70.66 411.65 71.08C410.29 71.5 409.04 71.87 407.9 72.19L407.51 70.87ZM408.62 51.43H416.57V52.72H408.62V51.43ZM416.09 51.43H417.41C417.35 52.47 417.26 53.58 417.14 54.76C417.04 55.94 416.93 57.12 416.81 58.3C416.69 59.46 416.57 60.57 416.45 61.63C416.35 62.67 416.25 63.58 416.15 64.36L414.77 64.57C414.89 63.73 415.01 62.77 415.13 61.69C415.27 60.61 415.4 59.47 415.52 58.27C415.64 57.07 415.75 55.88 415.85 54.7C415.95 53.52 416.03 52.43 416.09 51.43ZM409.94 55.09L411.23 55.21C411.15 56.27 411.05 57.43 410.93 58.69C410.83 59.93 410.72 61.13 410.6 62.29C410.48 63.43 410.35 64.43 410.21 65.29H408.92C409.06 64.41 409.19 63.38 409.31 62.2C409.43 61 409.55 59.78 409.67 58.54C409.79 57.28 409.88 56.13 409.94 55.09ZM409.43 64H417.56V65.29H409.43V64ZM427.04 50.92C427.64 52.02 428.4 53.15 429.32 54.31C430.26 55.47 431.26 56.57 432.32 57.61C433.4 58.63 434.44 59.5 435.44 60.22C435.34 60.32 435.23 60.44 435.11 60.58C434.99 60.72 434.88 60.87 434.78 61.03C434.7 61.17 434.63 61.31 434.57 61.45C433.55 60.65 432.49 59.7 431.39 58.6C430.31 57.5 429.29 56.34 428.33 55.12C427.39 53.9 426.61 52.73 425.99 51.61L427.04 50.92ZM426.62 49.78L427.91 50.17C427.25 51.73 426.44 53.21 425.48 54.61C424.52 56.01 423.47 57.3 422.33 58.48C421.21 59.64 420.04 60.66 418.82 61.54C418.76 61.44 418.67 61.32 418.55 61.18C418.43 61.04 418.31 60.9 418.19 60.76C418.09 60.62 417.98 60.5 417.86 60.4C419.1 59.6 420.27 58.66 421.37 57.58C422.47 56.48 423.47 55.28 424.37 53.98C425.27 52.66 426.02 51.26 426.62 49.78ZM422.42 59.29H431.18V60.61H422.42V59.29ZM420.5 63.85L421.67 63.58C422.01 64.34 422.32 65.16 422.6 66.04C422.9 66.92 423.16 67.78 423.38 68.62C423.6 69.44 423.75 70.18 423.83 70.84L422.63 71.14C422.53 70.48 422.37 69.73 422.15 68.89C421.93 68.05 421.68 67.2 421.4 66.34C421.12 65.46 420.82 64.63 420.5 63.85ZM425.84 63.13L427.04 62.98C427.24 63.72 427.43 64.53 427.61 65.41C427.79 66.29 427.94 67.14 428.06 67.96C428.2 68.78 428.29 69.52 428.33 70.18L427.1 70.39C427.06 69.73 426.97 68.99 426.83 68.17C426.71 67.33 426.56 66.47 426.38 65.59C426.22 64.71 426.04 63.89 425.84 63.13ZM432.77 63.55L434.15 63.94C433.67 65.1 433.13 66.35 432.53 67.69C431.95 69.01 431.35 70.3 430.73 71.56C430.13 72.82 429.54 73.92 428.96 74.86L427.88 74.44C428.28 73.76 428.71 72.97 429.17 72.07C429.63 71.15 430.08 70.19 430.52 69.19C430.96 68.19 431.38 67.21 431.78 66.25C432.18 65.27 432.51 64.37 432.77 63.55ZM419.42 74.26H434.54V75.61H419.42V74.26Z" fill="white"/>
<path d="M449.36 64.81H450.83V75.46H449.36V64.81ZM440.33 57.31H460.28V58.63H440.33V57.31ZM436.97 74.98H463.49V76.3H436.97V74.98ZM439.73 68.98H460.7V70.33H439.73V68.98ZM447.05 57.91L448.46 58.39C448.04 59.13 447.57 59.9 447.05 60.7C446.55 61.48 446.04 62.24 445.52 62.98C445 63.72 444.5 64.37 444.02 64.93L442.91 64.45C443.39 63.87 443.88 63.2 444.38 62.44C444.88 61.66 445.36 60.87 445.82 60.07C446.3 59.27 446.71 58.55 447.05 57.91ZM439.22 63.97C440.84 63.95 442.76 63.91 444.98 63.85C447.2 63.79 449.56 63.72 452.06 63.64C454.56 63.56 457.07 63.48 459.59 63.4L459.5 64.66C457.06 64.76 454.6 64.86 452.12 64.96C449.66 65.06 447.33 65.15 445.13 65.23C442.93 65.29 440.99 65.34 439.31 65.38L439.22 63.97ZM453.92 60.76L454.97 59.95C455.87 60.49 456.78 61.1 457.7 61.78C458.64 62.44 459.51 63.12 460.31 63.82C461.11 64.52 461.76 65.17 462.26 65.77L461.15 66.67C460.67 66.07 460.03 65.42 459.23 64.72C458.45 64 457.59 63.3 456.65 62.62C455.73 61.92 454.82 61.3 453.92 60.76ZM449.36 49.9H450.83V53.29H449.36V49.9ZM437.45 52.39H462.98V57.52H461.54V53.74H438.86V57.52H437.45V52.39Z" fill="white"/>
</svg>
