<svg width="76" height="37" viewBox="0 0 76 37" fill="none" xmlns="http://www.w3.org/2000/svg">
<path d="M35.0501 24.151C34.9654 24.5498 35.0564 24.8837 35.086 25.2108C35.1557 25.9854 35.0507 26.7421 34.9144 27.4958C34.6596 28.9083 34.096 30.1885 33.237 31.3367C32.8221 31.8909 32.3364 32.3719 31.7795 32.778C31.5897 32.9167 31.3734 33.0104 31.1306 33.0224C30.7172 33.0434 30.5513 32.9 30.5388 32.4849C30.5295 32.1715 30.5487 31.8569 30.5373 31.5434C30.4843 30.0775 30.1151 28.7058 29.3174 27.4644C28.0965 25.5646 26.3219 24.4933 24.1718 23.9851C23.0367 23.7166 21.8818 23.624 20.7191 23.6135C18.4677 23.5926 16.2156 23.5968 13.9647 23.5455C12.1427 23.5036 10.3327 23.3074 8.58659 22.7474C6.78956 22.1706 5.14436 21.3128 3.67179 20.0992C1.69797 18.4721 0.494748 16.42 0.104768 13.8922C-0.127661 12.3844 0.0314518 10.9043 0.534267 9.46194C1.10988 7.80971 2.07859 6.41967 3.28597 5.17408C4.42159 4.00176 5.69865 3.0189 7.14626 2.28829C8.70098 1.50326 10.3425 0.957918 12.072 0.689435C13.4379 0.477476 14.8091 0.419382 16.1881 0.421475C22.7803 0.430896 29.3726 0.430372 35.9648 0.434559C36.1379 0.434559 36.3121 0.430897 36.4837 0.450261C36.6693 0.471719 36.8446 0.539754 36.9169 0.73549C36.9876 0.927038 36.9153 1.09294 36.791 1.24158C36.4775 1.6163 36.0943 1.9188 35.7438 2.2548C34.6602 3.29523 33.5739 4.33357 32.483 5.36615C31.1524 6.62535 29.8452 7.90967 28.4834 9.13589C27.8277 9.72624 27.0763 9.95704 26.2231 9.95704C23.0091 9.95547 19.7957 9.9539 16.5817 9.96071C15.7773 9.96228 14.9703 9.92459 14.1711 10.0654C13.6537 10.1564 13.1691 10.3166 12.7219 10.607C11.6716 11.29 11.6253 12.5267 12.6278 13.2783C13.2575 13.7498 13.9792 13.9366 14.7431 13.9796C17.1911 14.1172 19.6428 14.0659 22.0929 14.0973C23.6721 14.1177 25.2388 14.2794 26.7581 14.7573C28.3856 15.2691 29.9159 15.9872 31.2086 17.116C32.5101 18.2523 33.5599 19.5988 34.2156 21.2254C34.2411 21.2882 34.2504 21.3631 34.3518 21.3992C34.4147 21.2568 34.3757 21.114 34.3575 20.9737C34.0851 18.8588 34.071 16.7523 34.5536 14.6605C35.0746 12.4011 36.1442 10.4202 37.533 8.59056C38.5439 7.25861 39.7273 6.10199 41.0168 5.05528C42.5419 3.81806 44.2282 2.85142 46.0242 2.05958C48.3412 1.03799 50.7684 0.472765 53.2674 0.187012C54.818 0.00959435 56.3779 -0.0375077 57.9363 0.0284353C60.2184 0.125256 62.4736 0.434037 64.6699 1.08143C66.3599 1.57967 67.9947 2.21816 69.527 3.11258C70.6684 3.77881 71.7744 4.4911 72.7852 5.34417C73.5345 5.97639 74.2484 6.64995 74.8942 7.39154C75.0216 7.53756 75.1355 7.70137 75.0528 7.91176C74.9743 8.11168 74.786 8.15512 74.6046 8.1724C73.795 8.24828 72.9817 8.29277 72.1747 8.38854C70.1505 8.62981 68.1501 8.9972 66.2065 9.63308C65.5887 9.8351 64.9606 10.0047 64.3569 10.248C64.0413 10.3752 63.7434 10.303 63.4516 10.1721C62.8651 9.90837 62.2593 9.70217 61.6447 9.51585C59.9293 8.99563 58.1781 8.88468 56.4008 9.00663C54.6038 9.13014 52.9419 9.68699 51.3779 10.5631C50.0613 11.3005 49.0068 12.3336 48.1093 13.5394C47.2487 14.6955 46.7236 16.005 46.5416 17.4212C46.2306 19.8401 46.8229 22.0262 48.4535 23.8721C50.1232 25.7614 52.2446 26.7678 54.7234 27.0687C55.9781 27.221 57.2312 27.2184 58.4781 27.0462C59.6902 26.8787 60.8793 26.5872 62.0129 26.1136C62.5417 25.8927 63.0611 25.8509 63.6092 25.9917C65.6319 26.5119 67.679 26.9222 69.7127 27.3948C70.9528 27.6826 72.1955 27.96 73.4341 28.2552C73.6738 28.3122 73.9567 28.3441 74.0342 28.6409C74.1085 28.9266 73.8792 29.0873 73.7092 29.2516C72.3921 30.5234 70.9372 31.6136 69.3877 32.5823C67.7752 33.5903 66.0588 34.3696 64.267 34.984C62.4159 35.6188 60.507 35.9941 58.566 36.2259C57.7049 36.329 56.8423 36.3997 55.9791 36.4133C53.8966 36.4462 51.8287 36.2892 49.7898 35.8287C48.0708 35.4403 46.3892 34.9479 44.7804 34.2084C43.1009 33.4364 41.5363 32.4876 40.1116 31.3037C38.4565 29.9283 37.1092 28.2986 36.0631 26.414C35.7027 25.765 35.4609 25.0637 35.1583 24.3891C35.1313 24.329 35.1032 24.2693 35.0496 24.1526L35.0501 24.151Z" fill="white" fill-opacity="0.85"/>
<path d="M23.4105 26.9871C24.8197 26.985 26.0463 27.4733 27.0711 28.4268C28.1225 29.4055 28.7465 30.6176 28.655 32.0867C28.5489 33.7897 27.7086 35.0839 26.2584 35.9579C24.5274 37.0015 22.7226 37.0319 20.9531 36.1259C19.5612 35.4131 18.6304 34.2445 18.3657 32.6613C18.1307 31.2551 18.5119 29.9875 19.4462 28.8989C20.3156 27.8862 21.3795 27.2205 22.7117 27.0326C22.942 27.0002 23.1771 27.0012 23.41 26.9866L23.4105 26.9871Z" fill="white" fill-opacity="0.85"/>
</svg>
