<?xml version="1.0" encoding="UTF-8"?>
<svg id="Layer_1" data-name="Layer 1" xmlns="http://www.w3.org/2000/svg" version="1.1" viewBox="0 0 383.4 106">
  <defs>
    <style>
      .cls-1 {
        fill: #fff;
        stroke-width: 0px;
      }
    </style>
  </defs>
  <path class="cls-1" d="M1.2,16V1.5h1.8v13h6.8v1.6H1.2Z"/>
  <path class="cls-1" d="M15.8,16.2c-1,0-1.8-.2-2.6-.7-.7-.5-1.3-1.1-1.7-2-.4-.8-.6-1.8-.6-3s.2-2.1.6-3c.4-.8,1-1.5,1.7-2s1.6-.7,2.6-.7,1.8.2,2.6.7c.7.5,1.3,1.1,1.7,2,.4.8.6,1.8.6,3s-.2,2.1-.6,3c-.4.8-1,1.5-1.7,2-.7.5-1.6.7-2.6.7ZM15.8,14.7c.7,0,1.4-.2,1.8-.6.5-.4.8-.9,1.1-1.5s.3-1.3.3-2,0-1.4-.3-2c-.2-.6-.6-1.1-1.1-1.5s-1.1-.6-1.8-.6-1.4.2-1.8.6c-.5.4-.8.9-1.1,1.5-.2.6-.3,1.3-.3,2s0,1.4.3,2,.6,1.1,1.1,1.5c.5.4,1.1.6,1.8.6Z"/>
  <path class="cls-1" d="M22.5,16V5.1h1.6v1.6h0c.2-.5.6-1,1.1-1.3s1.1-.5,1.8-.5.3,0,.5,0h.4v1.7h-1c-.5,0-1,0-1.4.3-.4.2-.7.5-1,.9-.2.4-.4.8-.4,1.3v6.9h-1.7Z"/>
  <path class="cls-1" d="M33.4,16.2c-1.1,0-2-.2-2.7-.7-.8-.5-1.3-1.1-1.8-2-.4-.8-.6-1.8-.6-2.9s.2-2.1.6-3c.4-.9,1-1.5,1.7-2s1.6-.7,2.6-.7,1.1,0,1.7.3c.6.2,1.1.5,1.5.9.5.4.8,1,1.1,1.7.3.7.4,1.6.4,2.6v.7h-8.4v-1.4h6.7c0-.6,0-1.2-.4-1.6-.2-.5-.6-.9-1-1.1-.4-.3-1-.4-1.6-.4s-1.2.2-1.7.5-.9.8-1.1,1.3c-.3.5-.4,1.1-.4,1.7v1c0,.8,0,1.5.4,2.1.3.6.7,1,1.2,1.3s1.1.4,1.8.4.8,0,1.2-.2c.4-.1.7-.3.9-.6.3-.3.5-.6.6-1l1.6.5c-.2.5-.5,1-.9,1.4s-.9.7-1.5,1c-.6.2-1.3.3-2,.3h.1Z"/>
  <path class="cls-1" d="M39.7,16V5.1h1.6v1.7h0c.2-.6.6-1,1.1-1.4.5-.3,1.1-.5,1.8-.5s1.3.2,1.8.5.9.8,1.1,1.4h0c.3-.6.7-1,1.3-1.3.6-.3,1.2-.5,2-.5s1.8.3,2.4.9.9,1.6.9,2.8v7.3h-1.7v-7.3c0-.8-.2-1.4-.7-1.7-.4-.3-1-.5-1.6-.5s-1.4.2-1.8.7-.6,1-.6,1.7v7.1h-1.7v-7.5c0-.6-.2-1.1-.6-1.5s-.9-.6-1.6-.6-.8,0-1.2.3c-.4.2-.7.6-.9,1-.2.4-.3.9-.3,1.4v6.8h-1.7.2Z"/>
  <path class="cls-1" d="M63.1,1.5v14.5h-1.8V1.5h1.8Z"/>
  <path class="cls-1" d="M65.6,20.1V5.1h1.6v1.7h.2c0-.2.3-.4.5-.7.2-.3.5-.6,1-.8.4-.2,1-.4,1.7-.4s1.7.2,2.4.7c.7.5,1.2,1.1,1.6,2,.4.8.6,1.8.6,3s-.2,2.2-.6,3-.9,1.5-1.6,2-1.5.7-2.4.7-1.3-.1-1.7-.3c-.4-.2-.7-.5-1-.8-.2-.3-.4-.6-.5-.8h0v5.8h-1.7ZM67.2,10.6c0,.8,0,1.6.4,2.2.2.6.6,1.1,1.1,1.5s1,.5,1.7.5,1.3-.2,1.8-.6c.5-.4.8-.9,1.1-1.5.2-.6.4-1.3.4-2.1s0-1.5-.4-2.1c-.2-.6-.6-1.1-1.1-1.5s-1.1-.5-1.8-.5-1.3.2-1.7.5c-.5.3-.8.8-1.1,1.4-.2.6-.4,1.3-.4,2.1h0Z"/>
  <path class="cls-1" d="M84.7,7.5l-1.5.4c0-.3-.2-.5-.4-.7s-.4-.4-.7-.6-.7-.2-1.2-.2-1.2.2-1.7.5c-.4.3-.7.7-.7,1.2s.2.7.5,1c.3.2.8.4,1.4.6l1.6.4c1,.2,1.7.6,2.2,1.1s.7,1.1.7,1.9-.2,1.2-.5,1.7c-.4.5-.9.9-1.5,1.2-.6.3-1.4.4-2.2.4s-2-.2-2.8-.7c-.7-.5-1.2-1.2-1.4-2.1l1.6-.4c.2.6.4,1,.9,1.3.4.3,1,.4,1.7.4s1.4-.2,1.9-.5.7-.7.7-1.2-.1-.7-.4-1c-.3-.3-.7-.5-1.2-.6l-1.8-.4c-1-.2-1.7-.6-2.2-1.1s-.7-1.1-.7-1.9.2-1.2.5-1.6c.4-.5.8-.8,1.4-1.1.6-.3,1.3-.4,2.1-.4s1.9.2,2.5.7,1.1,1.1,1.3,1.9v-.2Z"/>
  <path class="cls-1" d="M93.5,11.5v-6.4h1.7v10.9h-1.7v-1.8h-.1c-.3.6-.7,1-1.2,1.4s-1.2.6-2,.6-1.3-.1-1.8-.4c-.5-.3-.9-.8-1.2-1.4-.3-.6-.5-1.4-.5-2.3v-6.9h1.7v6.8c0,.8.2,1.4.7,1.9.4.5,1,.7,1.7.7s.8-.1,1.3-.3c.4-.2.8-.5,1.1-1,.3-.4.4-1,.4-1.7h0Z"/>
  <path class="cls-1" d="M97.4,16V5.1h1.6v1.7h.1c.2-.6.6-1,1.1-1.4.5-.3,1.1-.5,1.8-.5s1.3.2,1.8.5.9.8,1.1,1.4h.1c.3-.6.7-1,1.3-1.3s1.2-.5,2-.5,1.8.3,2.4.9c.6.6.9,1.6.9,2.8v7.3h-1.7v-7.3c0-.8-.2-1.4-.7-1.7-.4-.3-1-.5-1.6-.5s-1.4.2-1.8.7c-.4.5-.6,1-.6,1.7v7.1h-1.7v-7.5c0-.6-.2-1.1-.6-1.5-.4-.4-.9-.6-1.6-.6s-.8,0-1.2.3c-.4.2-.7.6-.9,1s-.3.9-.3,1.4v6.8h-1.7.2Z"/>
  <path class="cls-1" d="M123.5,16h-4.5V1.5h4.7c1.4,0,2.6.3,3.6.9,1,.6,1.8,1.4,2.3,2.5s.8,2.4.8,3.9-.3,2.8-.8,3.9-1.3,1.9-2.4,2.5c-1,.6-2.3.9-3.8.9h0ZM120.8,14.4h2.6c1.2,0,2.2-.2,3-.7s1.4-1.1,1.8-2c.4-.9.6-1.9.6-3.1s-.2-2.2-.6-3c-.4-.9-1-1.5-1.7-2-.8-.5-1.7-.7-2.8-.7h-2.8v11.4h-.1Z"/>
  <path class="cls-1" d="M136.8,16.2c-1,0-1.8-.2-2.6-.7-.7-.5-1.3-1.1-1.7-2-.4-.8-.6-1.8-.6-3s.2-2.1.6-3c.4-.8,1-1.5,1.7-2s1.6-.7,2.6-.7,1.8.2,2.6.7c.7.5,1.3,1.1,1.7,2,.4.8.6,1.8.6,3s-.2,2.1-.6,3c-.4.8-1,1.5-1.7,2-.7.5-1.6.7-2.6.7ZM136.8,14.7c.7,0,1.4-.2,1.8-.6.5-.4.8-.9,1.1-1.5s.3-1.3.3-2-.1-1.4-.3-2c-.2-.6-.6-1.1-1.1-1.5s-1.1-.6-1.8-.6-1.4.2-1.8.6c-.5.4-.8.9-1.1,1.5-.2.6-.3,1.3-.3,2s.1,1.4.3,2,.6,1.1,1.1,1.5,1.1.6,1.8.6Z"/>
  <path class="cls-1" d="M145.2,1.5v14.5h-1.7V1.5h1.7Z"/>
  <path class="cls-1" d="M151.9,16.2c-1,0-1.8-.2-2.6-.7-.7-.5-1.3-1.1-1.7-2-.4-.8-.6-1.8-.6-3s.2-2.1.6-3c.4-.8,1-1.5,1.7-2s1.6-.7,2.6-.7,1.8.2,2.6.7c.7.5,1.3,1.1,1.7,2,.4.8.6,1.8.6,3s-.2,2.1-.6,3c-.4.8-1,1.5-1.7,2-.7.5-1.6.7-2.6.7ZM151.9,14.7c.7,0,1.4-.2,1.8-.6.5-.4.8-.9,1.1-1.5.2-.6.3-1.3.3-2s-.1-1.4-.3-2c-.2-.6-.6-1.1-1.1-1.5s-1.1-.6-1.8-.6-1.4.2-1.8.6c-.5.4-.8.9-1.1,1.5-.2.6-.3,1.3-.3,2s.1,1.4.3,2,.6,1.1,1.1,1.5,1.1.6,1.8.6Z"/>
  <path class="cls-1" d="M158.6,16V5.1h1.6v1.6h.1c.2-.5.6-1,1.1-1.3s1.1-.5,1.8-.5.3,0,.5,0h.4v1.7h-1c-.5,0-1,0-1.4.3-.4.2-.7.5-1,.9-.2.4-.4.8-.4,1.3v6.9h-1.7Z"/>
  <path class="cls-1" d="M178.3,5.1c0-.7-.4-1.3-1-1.7s-1.4-.6-2.2-.6-1.2,0-1.7.3-.9.5-1.1.9c-.3.4-.4.8-.4,1.2s0,.7.3,1c.2.3.4.5.7.7s.6.3.9.4c.3,0,.6.2.9.3l1.5.4c.4,0,.8.2,1.3.4s.9.4,1.3.7c.4.3.8.7,1.1,1.2s.4,1,.4,1.7-.2,1.5-.6,2.1c-.4.6-1,1.1-1.8,1.5s-1.7.6-2.8.6-1.9-.2-2.7-.5-1.4-.8-1.8-1.4c-.4-.6-.7-1.3-.7-2.1h1.8c0,.5.2,1,.6,1.4.3.4.7.6,1.2.8s1,.3,1.6.3,1.3-.1,1.8-.3,1-.5,1.3-.9.5-.9.5-1.4-.1-.9-.4-1.2c-.3-.3-.6-.5-1.1-.7-.4-.2-.9-.4-1.4-.5l-1.8-.5c-1.1-.3-2-.8-2.7-1.4s-1-1.4-1-2.4.2-1.5.7-2.1c.4-.6,1-1.1,1.8-1.4s1.6-.5,2.5-.5,1.8.2,2.5.5c.7.3,1.3.8,1.7,1.4s.7,1.2.7,2h-1.7l-.2-.2Z"/>
  <path class="cls-1" d="M182,16V5.1h1.7v10.9h-1.7ZM182.9,3.3c-.3,0-.6,0-.8-.3s-.3-.5-.3-.8.1-.6.3-.8c.2-.2.5-.3.8-.3s.6.1.8.3c.2.2.4.5.4.8s-.1.6-.4.8c-.2.2-.5.3-.8.3Z"/>
  <path class="cls-1" d="M190.7,5.1v1.4h-5.7v-1.4h5.7ZM186.7,2.5h1.7v10.4c0,.5,0,.8.2,1.1.1.2.3.4.5.5.2,0,.5.1.7.1h.8l.3,1.5c-.1,0-.3,0-.5.1h-.8c-.5,0-.9-.1-1.4-.3-.4-.2-.8-.5-1.1-.9s-.4-.9-.4-1.6V2.5Z"/>
  <path class="cls-1" d="M198.1,16h-1.8l5.3-14.5h1.8l5.3,14.5h-1.8l-4.3-12.2h-.1l-4.3,12.2h0ZM198.8,10.3h7.4v1.6h-7.4v-1.6Z"/>
  <path class="cls-1" d="M210,16V5.1h1.6v1.7h.1c.2-.6.6-1,1.1-1.4.5-.3,1.1-.5,1.8-.5s1.3.2,1.8.5.9.8,1.1,1.4h.1c.3-.6.7-1,1.3-1.3.6-.3,1.2-.5,2-.5s1.8.3,2.4.9.9,1.6.9,2.8v7.3h-1.7v-7.3c0-.8-.2-1.4-.7-1.7-.4-.3-1-.5-1.6-.5s-1.4.2-1.8.7-.6,1-.6,1.7v7.1h-1.7v-7.5c0-.6-.2-1.1-.6-1.5s-.9-.6-1.6-.6-.8,0-1.2.3c-.4.2-.7.6-.9,1-.2.4-.3.9-.3,1.4v6.8h-1.7.2Z"/>
  <path class="cls-1" d="M231.2,16.2c-1.1,0-2-.2-2.7-.7-.8-.5-1.3-1.1-1.8-2-.4-.8-.6-1.8-.6-2.9s.2-2.1.6-3c.4-.9,1-1.5,1.7-2s1.6-.7,2.6-.7,1.1,0,1.7.3c.6.2,1.1.5,1.5.9.5.4.8,1,1.1,1.7.3.7.4,1.6.4,2.6v.7h-8.4v-1.4h6.7c0-.6-.1-1.2-.4-1.6-.2-.5-.6-.9-1-1.1-.4-.3-1-.4-1.6-.4s-1.2.2-1.7.5-.9.8-1.1,1.3c-.3.5-.4,1.1-.4,1.7v1c0,.8.1,1.5.4,2.1.3.6.7,1,1.2,1.3s1.1.4,1.8.4.8,0,1.2-.2c.4-.1.7-.3.9-.6.3-.3.5-.6.6-1l1.6.5c-.2.5-.5,1-.9,1.4s-.9.7-1.5,1c-.6.2-1.3.3-2,.3h0Z"/>
  <path class="cls-1" d="M242.2,5.1v1.4h-5.7v-1.4h5.7ZM238.2,2.5h1.7v10.4c0,.5,0,.8.2,1.1.1.2.3.4.5.5.2,0,.5.1.7.1h.8l.3,1.5c-.1,0-.3,0-.5.1h-.8c-.5,0-.9-.1-1.4-.3-.4-.2-.8-.5-1.1-.9-.3-.4-.4-.9-.4-1.6V2.5h0Z"/>
  <path class="cls-1" d="M246.4,14v.8c-.2.5-.3,1.1-.5,1.7-.2.6-.3,1.2-.5,1.7s-.3,1-.4,1.3h-1.3c0-.3.1-.7.2-1.2,0-.5.2-1.1.3-1.7.1-.6.2-1.2.3-1.9v-.8h1.9Z"/>
  <path class="cls-1" d="M265.4,6h-1.8c-.1-.5-.3-1-.5-1.3-.3-.4-.6-.7-.9-1-.4-.3-.8-.5-1.2-.6-.4,0-.9-.2-1.4-.2-.9,0-1.7.2-2.4.7-.7.4-1.3,1.1-1.7,2-.4.9-.6,1.9-.6,3.2s.2,2.3.6,3.2,1,1.5,1.7,2c.7.4,1.5.7,2.4.7s.9,0,1.4-.2c.4-.1.9-.3,1.2-.6.4-.3.7-.6.9-1,.3-.4.4-.8.5-1.3h1.8c-.1.7-.4,1.4-.7,2-.4.6-.8,1.1-1.3,1.5s-1.1.7-1.8.9c-.6.2-1.3.3-2.1.3-1.2,0-2.3-.3-3.3-.9-1-.6-1.7-1.5-2.3-2.6-.6-1.1-.8-2.4-.8-4s.3-2.9.8-4c.6-1.1,1.3-2,2.3-2.6,1-.6,2.1-.9,3.3-.9s1.4.1,2.1.3c.6.2,1.2.5,1.8.9.5.4,1,.9,1.3,1.5.4.6.6,1.2.7,2Z"/>
  <path class="cls-1" d="M271.7,16.2c-1,0-1.8-.2-2.6-.7-.7-.5-1.3-1.1-1.7-2-.4-.8-.6-1.8-.6-3s.2-2.1.6-3c.4-.8,1-1.5,1.7-2s1.6-.7,2.6-.7,1.8.2,2.6.7c.7.5,1.3,1.1,1.7,2,.4.8.6,1.8.6,3s-.2,2.1-.6,3c-.4.8-1,1.5-1.7,2-.7.5-1.6.7-2.6.7ZM271.7,14.7c.7,0,1.4-.2,1.8-.6.5-.4.8-.9,1.1-1.5s.3-1.3.3-2-.1-1.4-.3-2c-.2-.6-.6-1.1-1.1-1.5s-1.1-.6-1.8-.6-1.4.2-1.8.6c-.5.4-.8.9-1.1,1.5-.2.6-.3,1.3-.3,2s.1,1.4.3,2,.6,1.1,1.1,1.5,1.1.6,1.8.6Z"/>
  <path class="cls-1" d="M280.1,9.4v6.6h-1.7V5.1h1.6v1.7h.1c.3-.6.6-1,1.2-1.3.5-.3,1.2-.5,2-.5s1.4.2,1.9.5c.6.3,1,.8,1.3,1.4s.5,1.4.5,2.3v6.9h-1.7v-6.8c0-.9-.2-1.5-.7-2-.4-.5-1.1-.7-1.8-.7s-1,0-1.4.3c-.4.2-.7.6-1,1-.2.4-.4,1-.4,1.6h.1Z"/>
  <path class="cls-1" d="M297,7.5l-1.5.4c0-.3-.2-.5-.4-.7-.2-.2-.4-.4-.7-.6-.3-.2-.7-.2-1.2-.2s-1.2.2-1.7.5c-.4.3-.7.7-.7,1.2s.2.7.5,1c.3.2.8.4,1.4.6l1.6.4c1,.2,1.7.6,2.2,1.1s.7,1.1.7,1.9-.2,1.2-.5,1.7c-.4.5-.9.9-1.5,1.2-.6.3-1.4.4-2.2.4s-2-.2-2.8-.7c-.7-.5-1.2-1.2-1.4-2.1l1.6-.4c.2.6.4,1,.9,1.3.4.3,1,.4,1.7.4s1.4-.2,1.9-.5.7-.7.7-1.2-.1-.7-.4-1-.7-.5-1.2-.6l-1.8-.4c-1-.2-1.7-.6-2.2-1.1s-.7-1.1-.7-1.9.2-1.2.5-1.6c.4-.5.8-.8,1.4-1.1.6-.3,1.3-.4,2.1-.4s1.9.2,2.5.7,1.1,1.1,1.3,1.9v-.2Z"/>
  <path class="cls-1" d="M303.5,16.2c-1.1,0-2-.2-2.7-.7-.8-.5-1.3-1.1-1.8-2-.4-.8-.6-1.8-.6-2.9s.2-2.1.6-3c.4-.9,1-1.5,1.7-2s1.6-.7,2.6-.7,1.1,0,1.7.3c.6.2,1.1.5,1.5.9.5.4.8,1,1.1,1.7.3.7.4,1.6.4,2.6v.7h-8.4v-1.4h6.7c0-.6-.1-1.2-.4-1.6-.2-.5-.6-.9-1-1.1-.4-.3-1-.4-1.6-.4s-1.2.2-1.7.5-.9.8-1.1,1.3c-.3.5-.4,1.1-.4,1.7v1c0,.8.1,1.5.4,2.1.3.6.7,1,1.2,1.3s1.1.4,1.8.4.8,0,1.2-.2c.4-.1.7-.3.9-.6.3-.3.5-.6.6-1l1.6.5c-.2.5-.5,1-.9,1.4s-.9.7-1.5,1c-.6.2-1.3.3-2,.3h0Z"/>
  <path class="cls-1" d="M314.2,16.2c-1,0-1.9-.2-2.6-.7-.7-.5-1.3-1.1-1.7-2-.4-.8-.6-1.8-.6-2.9s.2-2.1.6-2.9c.4-.9,1-1.5,1.7-2s1.6-.7,2.6-.7,1.5,0,2.1.4,1.1.7,1.5,1.2.6,1.1.7,1.8h-1.7c-.1-.5-.4-.9-.9-1.3-.4-.4-1-.6-1.8-.6s-1.2.2-1.7.5-.9.8-1.1,1.4c-.3.6-.4,1.3-.4,2.2s.1,1.6.4,2.2c.3.6.6,1.1,1.1,1.5.5.3,1.1.5,1.7.5s.8,0,1.2-.2c.4-.2.7-.4.9-.7.2-.3.4-.6.5-1h1.7c0,.6-.3,1.2-.7,1.7-.4.5-.9.9-1.5,1.2s-1.3.4-2.1.4h0Z"/>
  <path class="cls-1" d="M324.9,5.1v1.4h-5.7v-1.4h5.7ZM320.9,2.5h1.7v10.4c0,.5,0,.8.2,1.1.1.2.3.4.5.5.2,0,.5.1.7.1h.8l.3,1.5c-.1,0-.3,0-.5.1h-.8c-.5,0-.9-.1-1.4-.3s-.8-.5-1.1-.9c-.3-.4-.4-.9-.4-1.6V2.5h0Z"/>
  <path class="cls-1" d="M331.1,16.2c-1.1,0-2-.2-2.7-.7-.8-.5-1.3-1.1-1.8-2-.4-.8-.6-1.8-.6-2.9s.2-2.1.6-3c.4-.9,1-1.5,1.7-2s1.6-.7,2.6-.7,1.1,0,1.7.3c.6.2,1.1.5,1.5.9.5.4.8,1,1.1,1.7.3.7.4,1.6.4,2.6v.7h-8.4v-1.4h6.7c0-.6-.1-1.2-.4-1.6-.2-.5-.6-.9-1-1.1-.4-.3-1-.4-1.6-.4s-1.2.2-1.7.5-.9.8-1.1,1.3c-.3.5-.4,1.1-.4,1.7v1c0,.8.1,1.5.4,2.1.3.6.7,1,1.2,1.3s1.1.4,1.8.4.8,0,1.2-.2c.4-.1.7-.3.9-.6.3-.3.5-.6.6-1l1.6.5c-.2.5-.5,1-.9,1.4s-.9.7-1.5,1c-.6.2-1.3.3-2,.3h0Z"/>
  <path class="cls-1" d="M342.1,5.1v1.4h-5.7v-1.4h5.7ZM338.1,2.5h1.7v10.4c0,.5,0,.8.2,1.1.1.2.3.4.5.5.2,0,.5.1.7.1h.8l.3,1.5c-.1,0-.3,0-.5.1h-.8c-.5,0-.9-.1-1.4-.3s-.8-.5-1.1-.9c-.3-.4-.4-.9-.4-1.6V2.5h0Z"/>
  <path class="cls-1" d="M350.7,11.5v-6.4h1.7v10.9h-1.7v-1.8h-.1c-.3.6-.7,1-1.2,1.4s-1.2.6-2,.6-1.3-.1-1.8-.4c-.5-.3-.9-.8-1.2-1.4-.3-.6-.5-1.4-.5-2.3v-6.9h1.7v6.8c0,.8.2,1.4.7,1.9s1,.7,1.7.7.8-.1,1.3-.3c.4-.2.8-.5,1.1-1,.3-.4.4-1,.4-1.7h-.1Z"/>
  <path class="cls-1" d="M359.2,16.2c-1.1,0-2-.2-2.7-.7-.8-.5-1.3-1.1-1.8-2-.4-.8-.6-1.8-.6-2.9s.2-2.1.6-3c.4-.9,1-1.5,1.7-2s1.6-.7,2.6-.7,1.1,0,1.7.3c.6.2,1.1.5,1.5.9.5.4.8,1,1.1,1.7.3.7.4,1.6.4,2.6v.7h-8.4v-1.4h6.7c0-.6-.1-1.2-.4-1.6-.2-.5-.6-.9-1-1.1-.4-.3-1-.4-1.6-.4s-1.2.2-1.7.5-.9.8-1.1,1.3c-.3.5-.4,1.1-.4,1.7v1c0,.8.1,1.5.4,2.1.3.6.7,1,1.2,1.3s1.1.4,1.8.4.8,0,1.2-.2c.4-.1.7-.3.9-.6.3-.3.5-.6.6-1l1.6.5c-.2.5-.5,1-.9,1.4s-.9.7-1.5,1c-.6.2-1.3.3-2,.3h0Z"/>
  <path class="cls-1" d="M365.5,16V5.1h1.6v1.6h.1c.2-.5.6-1,1.1-1.3s1.1-.5,1.8-.5.3,0,.5,0h.4v1.7h-1c-.5,0-1,0-1.4.3-.4.2-.7.5-1,.9-.2.4-.4.8-.4,1.3v6.9h-1.7Z"/>
  <path class="cls-1" d="M1.8,44H0l5.3-14.5h1.8l5.3,14.5h-1.8l-4.3-12.2h0l-4.3,12.2h-.1ZM2.4,38.3h7.4v1.6H2.4v-1.6Z"/>
  <path class="cls-1" d="M17.8,44.2c-.9,0-1.7-.2-2.4-.7-.7-.5-1.2-1.1-1.6-2-.4-.8-.6-1.8-.6-3s.2-2.1.6-3c.4-.8.9-1.5,1.6-2s1.5-.7,2.4-.7,1.3,0,1.7.4c.4.2.7.5,1,.8.2.3.4.5.5.7h0v-5.4h1.7v14.5h-1.6v-1.7h-.2c0,.2-.3.4-.5.8-.2.3-.6.6-1,.8s-1,.3-1.7.3v.2ZM18,42.7c.7,0,1.2-.2,1.7-.5.5-.4.8-.8,1.1-1.5.2-.6.4-1.4.4-2.2s0-1.5-.4-2.1c-.2-.6-.6-1.1-1.1-1.4-.5-.3-1-.5-1.7-.5s-1.3.2-1.8.5c-.5.4-.8.8-1.1,1.5-.2.6-.3,1.3-.3,2.1s0,1.5.4,2.1c.2.6.6,1.1,1.1,1.5s1.1.6,1.8.6h0Z"/>
  <path class="cls-1" d="M25.3,44v-10.9h1.7v10.9h-1.7ZM26.1,31.3c-.3,0-.6-.1-.8-.3-.2-.2-.3-.5-.3-.8s0-.6.3-.8c.2-.2.5-.3.8-.3s.6.1.8.3c.2.2.4.5.4.8s0,.6-.4.8c-.2.2-.5.3-.8.3Z"/>
  <path class="cls-1" d="M29.2,48.1v-15h1.6v1.7h.2c0-.2.3-.4.5-.7s.5-.6,1-.8c.4-.2,1-.4,1.7-.4s1.7.2,2.4.7c.7.5,1.2,1.1,1.6,2,.4.8.6,1.8.6,3s-.2,2.2-.6,3-.9,1.5-1.6,2-1.5.7-2.4.7-1.3,0-1.7-.3c-.4-.2-.7-.5-1-.8-.2-.3-.4-.6-.5-.8h0v5.8h-1.7ZM30.9,38.6c0,.8,0,1.6.4,2.2.2.6.6,1.1,1.1,1.5s1,.5,1.7.5,1.3-.2,1.8-.6c.5-.4.8-.9,1.1-1.5.2-.6.4-1.3.4-2.1s0-1.5-.4-2.1c-.2-.6-.6-1.1-1.1-1.5s-1.1-.5-1.8-.5-1.3.2-1.7.5c-.5.3-.8.8-1.1,1.4-.2.6-.4,1.3-.4,2.1h0Z"/>
  <path class="cls-1" d="M40.6,44v-10.9h1.7v10.9h-1.7ZM41.5,31.3c-.3,0-.6-.1-.8-.3-.2-.2-.3-.5-.3-.8s0-.6.3-.8c.2-.2.5-.3.8-.3s.6.1.8.3c.2.2.4.5.4.8s0,.6-.4.8c-.2.2-.5.3-.8.3Z"/>
  <path class="cls-1" d="M52.3,35.5l-1.5.4c0-.3-.2-.5-.4-.7-.2-.2-.4-.4-.7-.6-.3-.2-.7-.2-1.2-.2s-1.2.2-1.7.5c-.4.3-.7.7-.7,1.2s.2.7.5,1c.3.2.8.4,1.4.6l1.6.4c1,.2,1.7.6,2.2,1.1s.7,1.1.7,1.9-.2,1.2-.5,1.7c-.4.5-.9.9-1.5,1.2s-1.4.4-2.2.4-2-.2-2.8-.7c-.7-.5-1.2-1.2-1.4-2.1l1.6-.4c.2.6.4,1,.9,1.3.4.3,1,.4,1.7.4s1.4-.2,1.9-.5.7-.7.7-1.2,0-.7-.4-1-.7-.5-1.2-.6l-1.8-.4c-1-.2-1.7-.6-2.2-1.1s-.7-1.1-.7-1.9.2-1.2.5-1.6c.4-.5.8-.8,1.4-1.1s1.3-.4,2.1-.4,1.9.2,2.5.7,1.1,1.1,1.3,1.9v-.2Z"/>
  <path class="cls-1" d="M58.6,44.2c-1,0-1.9-.2-2.6-.7s-1.3-1.1-1.7-2c-.4-.8-.6-1.8-.6-2.9s.2-2.1.6-2.9c.4-.9,1-1.5,1.7-2s1.6-.7,2.6-.7,1.5,0,2.1.4c.6.3,1.1.7,1.5,1.2s.6,1.1.7,1.8h-1.7c0-.5-.4-.9-.9-1.3-.4-.4-1-.6-1.8-.6s-1.2.2-1.7.5-.9.8-1.1,1.4c-.3.6-.4,1.3-.4,2.2s0,1.6.4,2.2c.3.6.6,1.1,1.1,1.5.5.3,1.1.5,1.7.5s.8,0,1.2-.2c.4-.2.7-.4.9-.7s.4-.6.5-1h1.7c0,.6-.3,1.2-.7,1.7-.4.5-.9.9-1.5,1.2s-1.3.4-2.1.4h.1Z"/>
  <path class="cls-1" d="M64.6,44v-10.9h1.7v10.9h-1.7ZM65.4,31.3c-.3,0-.6-.1-.8-.3-.2-.2-.3-.5-.3-.8s0-.6.3-.8c.2-.2.5-.3.8-.3s.6.1.8.3c.2.2.4.5.4.8s0,.6-.4.8c-.2.2-.5.3-.8.3Z"/>
  <path class="cls-1" d="M70.2,37.4v6.6h-1.7v-10.9h1.6v1.7h0c.3-.6.6-1,1.2-1.3.5-.3,1.2-.5,2-.5s1.4.2,1.9.5c.6.3,1,.8,1.3,1.4.3.6.5,1.4.5,2.3v6.9h-1.7v-6.8c0-.9-.2-1.5-.7-2-.4-.5-1.1-.7-1.8-.7s-1,0-1.4.3-.7.6-1,1c-.2.4-.4,1-.4,1.6h0Z"/>
  <path class="cls-1" d="M83.8,48.3c-.8,0-1.5,0-2.1-.3s-1.1-.5-1.5-.8-.7-.7-.9-1.1l1.3-.9c.2.2.3.4.6.7.2.3.5.5,1,.7.4.2.9.3,1.6.3s1.6-.2,2.2-.6c.6-.4.9-1.1.9-2v-2.2h-.1c-.1.2-.3.4-.5.7s-.5.5-1,.8c-.4.2-1,.3-1.7.3s-1.7-.2-2.4-.6c-.7-.4-1.2-1-1.7-1.8-.4-.8-.6-1.8-.6-2.9s.2-2.1.6-2.9c.4-.8.9-1.5,1.6-1.9.7-.5,1.5-.7,2.4-.7s1.3,0,1.7.4c.4.2.7.5,1,.8.2.3.4.5.5.7h.2v-1.7h1.6v11.2c0,.9-.2,1.7-.6,2.3-.4.6-1,1-1.7,1.3s-1.5.4-2.4.4v-.2ZM83.8,42.3c.7,0,1.2-.2,1.7-.5s.8-.8,1.1-1.3c.2-.6.4-1.3.4-2.1s-.1-1.5-.4-2.1-.6-1.1-1.1-1.4c-.5-.3-1-.5-1.7-.5s-1.3.2-1.8.5c-.5.4-.8.8-1.1,1.4-.2.6-.3,1.3-.3,2s.1,1.4.4,2c.2.6.6,1,1.1,1.4.5.3,1.1.5,1.8.5h0Z"/>
  <path class="cls-1" d="M95.9,44v-14.5h8.8v1.6h-7v4.9h6.6v1.6h-6.6v4.9h7.1v1.6h-8.9Z"/>
  <path class="cls-1" d="M108.5,29.5v14.5h-1.7v-14.5h1.7Z"/>
  <path class="cls-1" d="M110.7,44v-10.9h1.7v10.9h-1.7ZM111.6,31.3c-.3,0-.6-.1-.8-.3-.2-.2-.3-.5-.3-.8s.1-.6.3-.8c.2-.2.5-.3.8-.3s.6.1.8.3c.2.2.4.5.4.8s-.1.6-.4.8c-.2.2-.5.3-.8.3Z"/>
  <path class="cls-1" d="M119.4,33.1v1.4h-5.7v-1.4h5.7ZM115.4,30.5h1.7v10.4c0,.5,0,.8.2,1.1.1.2.3.4.5.5.2,0,.5,0,.7,0h.8l.3,1.5c-.1,0-.3,0-.5,0h-.8c-.5,0-.9,0-1.4-.3-.4-.2-.8-.5-1.1-.9s-.4-.9-.4-1.6c0,0,0-10.9,0-10.9Z"/>
  <path class="cls-1" d="M123.6,42v.8c-.2.5-.3,1.1-.5,1.7-.2.6-.3,1.2-.5,1.7s-.3,1-.4,1.3h-1.3c0-.3.1-.7.2-1.2,0-.5.2-1.1.3-1.7.1-.6.2-1.2.3-1.9v-.8h1.9Z"/>
  <path class="cls-1" d="M139,33.1c0-.7-.4-1.3-1-1.7-.6-.4-1.3-.6-2.2-.6s-1.2.1-1.7.3c-.5.2-.9.5-1.1.9-.3.4-.4.8-.4,1.2s0,.7.3,1c.2.3.4.5.7.7s.6.3.9.4c.3,0,.6.2.9.3l1.5.4c.4,0,.8.2,1.3.4s.9.4,1.3.7c.4.3.8.7,1.1,1.2s.4,1,.4,1.7-.2,1.5-.6,2.1c-.4.6-1,1.1-1.8,1.5s-1.7.6-2.8.6-1.9-.2-2.7-.5-1.4-.8-1.8-1.4c-.4-.6-.7-1.3-.7-2.1h1.8c0,.5.2,1,.6,1.4.3.4.7.6,1.2.8s1,.3,1.6.3,1.3,0,1.8-.3,1-.5,1.3-.9.5-.9.5-1.4-.1-.9-.4-1.2c-.3-.3-.6-.5-1.1-.7s-.9-.4-1.4-.5l-1.8-.5c-1.1-.3-2-.8-2.7-1.4-.7-.6-1-1.4-1-2.4s.2-1.5.7-2.1c.4-.6,1-1.1,1.8-1.4s1.6-.5,2.5-.5,1.8.2,2.5.5,1.3.8,1.7,1.4.7,1.2.7,2h-1.7l-.2-.2Z"/>
  <path class="cls-1" d="M147.3,44.2c-1.1,0-2-.2-2.7-.7-.8-.5-1.3-1.1-1.8-2-.4-.8-.6-1.8-.6-2.9s.2-2.1.6-3c.4-.9,1-1.5,1.7-2s1.6-.7,2.6-.7,1.1,0,1.7.3,1.1.5,1.5.9c.5.4.8,1,1.1,1.7s.4,1.6.4,2.6v.7h-8.4v-1.4h6.7c0-.6-.1-1.2-.4-1.6-.2-.5-.6-.9-1-1.1-.4-.3-1-.4-1.6-.4s-1.2.2-1.7.5-.9.8-1.1,1.3c-.3.5-.4,1.1-.4,1.7v1c0,.8.1,1.5.4,2.1.3.6.7,1,1.2,1.3s1.1.4,1.8.4.8,0,1.2-.2c.4,0,.7-.3.9-.6.3-.3.5-.6.6-1l1.6.5c-.2.5-.5,1-.9,1.4s-.9.7-1.5,1c-.6.2-1.3.3-2,.3h0Z"/>
  <path class="cls-1" d="M157.7,44.2c-.9,0-1.7-.2-2.4-.7s-1.2-1.1-1.6-2c-.4-.8-.6-1.8-.6-3s.2-2.1.6-3c.4-.8.9-1.5,1.6-2,.7-.5,1.5-.7,2.4-.7s1.3,0,1.7.4c.4.2.7.5,1,.8.2.3.4.5.5.7h.1v-5.4h1.7v14.5h-1.6v-1.7h-.2c-.1.2-.3.4-.5.8-.2.3-.6.6-1,.8s-1,.3-1.7.3v.2ZM157.9,42.7c.7,0,1.2-.2,1.7-.5.5-.4.8-.8,1.1-1.5.2-.6.4-1.4.4-2.2s-.1-1.5-.4-2.1c-.2-.6-.6-1.1-1.1-1.4-.5-.3-1-.5-1.7-.5s-1.3.2-1.8.5c-.5.4-.8.8-1.1,1.5-.2.6-.3,1.3-.3,2.1s.1,1.5.4,2.1c.2.6.6,1.1,1.1,1.5s1.1.6,1.8.6h0Z"/>
  <path class="cls-1" d="M174.7,44h-4.5v-14.5h4.7c1.4,0,2.6.3,3.6.9s1.8,1.4,2.3,2.5c.5,1.1.8,2.4.8,3.9s-.3,2.8-.8,3.9c-.5,1.1-1.3,1.9-2.4,2.5-1,.6-2.3.9-3.8.9h0ZM172,42.4h2.6c1.2,0,2.2-.2,3-.7s1.4-1.1,1.8-2c.4-.9.6-1.9.6-3.1s-.2-2.2-.6-3c-.4-.9-1-1.5-1.7-2-.8-.5-1.7-.7-2.8-.7h-2.8v11.4h-.1Z"/>
  <path class="cls-1" d="M183.6,44v-10.9h1.7v10.9h-1.7ZM184.4,31.3c-.3,0-.6-.1-.8-.3-.2-.2-.3-.5-.3-.8s.1-.6.3-.8c.2-.2.5-.3.8-.3s.6.1.8.3c.2.2.4.5.4.8s-.1.6-.4.8c-.2.2-.5.3-.8.3Z"/>
  <path class="cls-1" d="M190.7,44.3c-.7,0-1.3,0-1.9-.4-.6-.3-1-.6-1.3-1.1s-.5-1.1-.5-1.8.1-1.1.4-1.5c.2-.4.6-.7,1-.9s.9-.4,1.4-.5,1-.2,1.5-.3c.7,0,1.2,0,1.6-.2.4,0,.7,0,.9-.2.2,0,.3-.3.3-.6h0c0-.8-.2-1.3-.6-1.7-.4-.4-1-.6-1.7-.6s-1.4.2-1.9.5c-.5.4-.8.7-1,1.1l-1.6-.6c.3-.7.7-1.2,1.1-1.5.5-.4,1-.6,1.6-.8s1.1-.2,1.7-.2.8,0,1.2,0c.5,0,.9.2,1.3.5.4.3.8.6,1.1,1.2.3.5.4,1.2.4,2.1v7.2h-1.7v-1.5h0c-.1.2-.3.5-.6.8s-.6.5-1.1.7c-.4.2-1,.3-1.6.3h0ZM191,42.8c.7,0,1.2,0,1.7-.4.5-.3.8-.6,1-1s.4-.8.4-1.3v-1.5s-.2.2-.5.2-.5,0-.8.2c-.3,0-.6,0-.9,0h-.7c-.4,0-.8,0-1.2.3-.4,0-.7.3-.9.6-.2.2-.3.6-.3,1s.2,1,.6,1.3c.4.3,1,.4,1.7.4h-.1Z"/>
  <path class="cls-1" d="M198,44v-10.9h1.6v1.7h.1c.2-.6.6-1,1.1-1.4.5-.3,1.1-.5,1.8-.5s1.3.2,1.8.5.9.8,1.1,1.4h.1c.3-.6.7-1,1.3-1.3.6-.3,1.2-.5,2-.5s1.8.3,2.4.9c.6.6.9,1.6.9,2.8v7.3h-1.7v-7.3c0-.8-.2-1.4-.7-1.7-.4-.3-1-.5-1.6-.5s-1.4.2-1.8.7c-.4.5-.6,1-.6,1.7v7.1h-1.7v-7.5c0-.6-.2-1.1-.6-1.5-.4-.4-.9-.6-1.6-.6s-.8,0-1.2.3-.7.6-.9,1-.3.9-.3,1.4v6.8h-1.7.2Z"/>
  <path class="cls-1" d="M231.2,29.5v14.5h-1.7l-7.9-11.4h-.1v11.4h-1.8v-14.5h1.7l8,11.4h.1v-11.4h1.7,0Z"/>
  <path class="cls-1" d="M235.3,37.4v6.6h-1.7v-10.9h1.6v1.7h.1c.3-.6.6-1,1.2-1.3.5-.3,1.2-.5,2-.5s1.4.2,1.9.5c.6.3,1,.8,1.3,1.4.3.6.5,1.4.5,2.3v6.9h-1.7v-6.8c0-.9-.2-1.5-.7-2-.4-.5-1.1-.7-1.8-.7s-1,0-1.4.3-.7.6-1,1c-.2.4-.4,1-.4,1.6h.1Z"/>
  <path class="cls-1" d="M244.6,44v-10.9h1.7v10.9h-1.7ZM245.4,31.3c-.3,0-.6-.1-.8-.3-.2-.2-.3-.5-.3-.8s.1-.6.3-.8c.2-.2.5-.3.8-.3s.6.1.8.3c.2.2.4.5.4.8s-.1.6-.4.8c-.2.2-.5.3-.8.3Z"/>
  <path class="cls-1" d="M248.7,44v-14.5h1.7v5.4h.1c.1-.2.3-.4.5-.7s.5-.6,1-.8c.4-.2,1-.4,1.7-.4s1.7.2,2.4.7c.7.5,1.2,1.1,1.6,2s.6,1.8.6,3-.2,2.2-.6,3-.9,1.5-1.6,2-1.5.7-2.4.7-1.3,0-1.7-.3c-.4-.2-.7-.5-1-.8-.2-.3-.4-.6-.5-.8h-.2v1.7h-1.6v-.2ZM250.4,38.6c0,.8.1,1.6.4,2.2.2.6.6,1.1,1.1,1.5s1,.5,1.7.5,1.3-.2,1.8-.6c.5-.4.8-.9,1.1-1.5.2-.6.4-1.3.4-2.1s-.1-1.5-.4-2.1c-.2-.6-.6-1.1-1.1-1.5s-1.1-.5-1.8-.5-1.3.2-1.7.5c-.5.3-.8.8-1.1,1.4-.2.6-.4,1.3-.4,2.1h0Z"/>
  <path class="cls-1" d="M261.8,37.4v6.6h-1.7v-14.5h1.7v5.3h.1c.3-.6.6-1,1.2-1.3.5-.3,1.2-.5,2.1-.5s1.4,0,2,.4c.6.3,1,.7,1.3,1.4.3.6.5,1.4.5,2.3v6.9h-1.7v-6.8c0-.9-.2-1.5-.7-2-.4-.5-1.1-.7-1.9-.7s-1,0-1.5.3c-.4.2-.8.6-1,1s-.4,1-.4,1.6Z"/>
  <path class="cls-1" d="M276.2,44v-14.5h8.8v1.6h-7v4.9h6.6v1.6h-6.6v4.9h7.1v1.6h-8.9Z"/>
  <path class="cls-1" d="M294,39.5v-6.4h1.7v10.9h-1.7v-1.8h-.1c-.3.6-.7,1-1.2,1.4s-1.2.6-2,.6-1.3,0-1.8-.4c-.5-.3-.9-.8-1.2-1.4-.3-.6-.5-1.4-.5-2.3v-6.9h1.7v6.8c0,.8.2,1.4.7,1.9.4.5,1,.7,1.7.7s.8,0,1.3-.3c.4-.2.8-.5,1.1-1,.3-.4.4-1,.4-1.7h-.1Z"/>
  <path class="cls-1" d="M298,44v-10.9h1.7v10.9h-1.7ZM298.8,31.3c-.3,0-.6-.1-.8-.3-.2-.2-.3-.5-.3-.8s.1-.6.3-.8c.2-.2.5-.3.8-.3s.6.1.8.3c.2.2.4.5.4.8s-.1.6-.4.8c-.2.2-.5.3-.8.3Z"/>
  <path class="cls-1" d="M309.6,35.5l-1.5.4c0-.3-.2-.5-.4-.7-.2-.2-.4-.4-.7-.6-.3-.2-.7-.2-1.2-.2s-1.2.2-1.7.5c-.4.3-.7.7-.7,1.2s.2.7.5,1c.3.2.8.4,1.4.6l1.6.4c1,.2,1.7.6,2.2,1.1s.7,1.1.7,1.9-.2,1.2-.5,1.7c-.4.5-.9.9-1.5,1.2s-1.4.4-2.2.4-2-.2-2.8-.7c-.7-.5-1.2-1.2-1.4-2.1l1.6-.4c.2.6.4,1,.9,1.3.4.3,1,.4,1.7.4s1.4-.2,1.9-.5.7-.7.7-1.2-.1-.7-.4-1-.7-.5-1.2-.6l-1.8-.4c-1-.2-1.7-.6-2.2-1.1s-.7-1.1-.7-1.9.2-1.2.5-1.6c.4-.5.8-.8,1.4-1.1s1.3-.4,2.1-.4,1.9.2,2.5.7,1.1,1.1,1.3,1.9v-.2Z"/>
  <path class="cls-1" d="M311.5,44v-10.9h1.6v1.7h.1c.2-.6.6-1,1.1-1.4.5-.3,1.1-.5,1.8-.5s1.3.2,1.8.5.9.8,1.1,1.4h.1c.3-.6.7-1,1.3-1.3.6-.3,1.2-.5,2-.5s1.8.3,2.4.9c.6.6.9,1.6.9,2.8v7.3h-1.7v-7.3c0-.8-.2-1.4-.7-1.7-.4-.3-1-.5-1.6-.5s-1.4.2-1.8.7-.6,1-.6,1.7v7.1h-1.7v-7.5c0-.6-.2-1.1-.6-1.5s-.9-.6-1.6-.6-.8,0-1.2.3c-.4.2-.7.6-.9,1-.2.4-.3.9-.3,1.4v6.8h-1.7.2Z"/>
  <path class="cls-1" d="M332.6,44.2c-1,0-1.8-.2-2.6-.7-.7-.5-1.3-1.1-1.7-2-.4-.8-.6-1.8-.6-3s.2-2.1.6-3c.4-.8,1-1.5,1.7-2s1.6-.7,2.6-.7,1.8.2,2.6.7c.7.5,1.3,1.1,1.7,2,.4.8.6,1.8.6,3s-.2,2.1-.6,3c-.4.8-1,1.5-1.7,2s-1.6.7-2.6.7ZM332.6,42.7c.7,0,1.4-.2,1.8-.6.5-.4.8-.9,1.1-1.5s.3-1.3.3-2-.1-1.4-.3-2c-.2-.6-.6-1.1-1.1-1.5s-1.1-.6-1.8-.6-1.4.2-1.8.6c-.5.4-.8.9-1.1,1.5-.2.6-.3,1.3-.3,2s.1,1.4.3,2c.2.6.6,1.1,1.1,1.5s1.1.6,1.8.6Z"/>
  <path class="cls-1" d="M343.4,44.2c-.9,0-1.7-.2-2.4-.7-.7-.5-1.2-1.1-1.6-2-.4-.8-.6-1.8-.6-3s.2-2.1.6-3,.9-1.5,1.6-2,1.5-.7,2.4-.7,1.3,0,1.7.4c.4.2.7.5,1,.8.2.3.4.5.5.7h.1v-5.4h1.7v14.5h-1.6v-1.7h-.2c-.1.2-.3.4-.5.8-.2.3-.6.6-1,.8s-1,.3-1.7.3v.2ZM343.6,42.7c.7,0,1.2-.2,1.7-.5.5-.4.8-.8,1.1-1.5.2-.6.4-1.4.4-2.2s-.1-1.5-.4-2.1c-.2-.6-.6-1.1-1.1-1.4-.5-.3-1-.5-1.7-.5s-1.3.2-1.8.5c-.5.4-.8.8-1.1,1.5-.2.6-.3,1.3-.3,2.1s.1,1.5.4,2.1c.2.6.6,1.1,1.1,1.5s1.1.6,1.8.6h-.1Z"/>
  <path class="cls-1" d="M.4,59v-1.6h10.9v1.6h-4.6v13h-1.8v-13H.3h0Z"/>
  <path class="cls-1" d="M13,72v-10.9h1.7v10.9s-1.7,0-1.7,0ZM13.8,59.3c-.3,0-.6,0-.8-.3s-.3-.5-.3-.8,0-.6.3-.8.5-.3.8-.3.6,0,.8.3c.2.2.4.5.4.8s0,.6-.4.8c-.2.2-.5.3-.8.3Z"/>
  <path class="cls-1" d="M18.6,65.4v6.6h-1.7v-10.9h1.6v1.7h0c.3-.6.6-1,1.2-1.3.5-.3,1.2-.5,2-.5s1.4.2,1.9.5c.6.3,1,.8,1.3,1.4.3.6.5,1.4.5,2.3v6.9h-1.7v-6.8c0-.9-.2-1.5-.7-2-.4-.5-1.1-.7-1.8-.7s-1,0-1.4.3-.7.6-1,1c-.2.4-.4,1-.4,1.6h0Z"/>
  <path class="cls-1" d="M32.2,72.2c-1,0-1.9-.2-2.6-.7s-1.3-1.1-1.7-2c-.4-.8-.6-1.8-.6-2.9s.2-2.1.6-2.9c.4-.9,1-1.5,1.7-2s1.6-.7,2.6-.7,1.5,0,2.1.4c.6.3,1.1.7,1.5,1.2s.6,1.1.7,1.8h-1.7c0-.5-.4-.9-.9-1.3-.4-.4-1-.6-1.8-.6s-1.2.2-1.7.5-.9.8-1.1,1.4c-.3.6-.4,1.3-.4,2.2s0,1.6.4,2.2.6,1.1,1.1,1.5c.5.3,1.1.5,1.7.5s.8,0,1.2-.2c.4-.2.7-.4.9-.7.2-.3.4-.6.5-1h1.7c0,.6-.3,1.2-.7,1.7-.4.5-.9.9-1.5,1.2-.6.3-1.3.4-2.1.4h.1Z"/>
  <path class="cls-1" d="M38.2,72v-10.9h1.7v10.9h-1.7ZM39,59.3c-.3,0-.6,0-.8-.3-.2-.2-.3-.5-.3-.8s0-.6.3-.8c.2-.2.5-.3.8-.3s.6,0,.8.3c.2.2.4.5.4.8s0,.6-.4.8c-.2.2-.5.3-.8.3Z"/>
  <path class="cls-1" d="M46.2,72.2c-.9,0-1.7-.2-2.4-.7-.7-.5-1.2-1.1-1.6-2-.4-.8-.6-1.8-.6-3s.2-2.1.6-3c.4-.8.9-1.5,1.6-2s1.5-.7,2.4-.7,1.3,0,1.7.4c.4.2.7.5,1,.8.2.3.4.5.5.7h0v-5.4h1.7v14.5h-1.6v-1.7h-.2c0,.2-.3.4-.5.8-.2.3-.6.6-1,.8-.4.2-1,.3-1.7.3v.2ZM46.5,70.7c.7,0,1.2-.2,1.7-.5.5-.4.8-.8,1.1-1.5.2-.6.4-1.4.4-2.2s0-1.5-.4-2.1c-.2-.6-.6-1.1-1.1-1.4-.5-.3-1-.5-1.7-.5s-1.3.2-1.8.5c-.5.4-.8.8-1.1,1.5-.2.6-.3,1.3-.3,2.1s0,1.5.4,2.1c.2.6.6,1.1,1.1,1.5s1.1.6,1.8.6h0Z"/>
  <path class="cls-1" d="M60.6,67.5v-6.4h1.7v10.9h-1.7v-1.8h0c-.3.6-.7,1-1.2,1.4s-1.2.6-2,.6-1.3,0-1.8-.4-.9-.8-1.2-1.4c-.3-.6-.5-1.4-.5-2.3v-6.9h1.7v6.8c0,.8.2,1.4.7,1.9.4.5,1,.7,1.7.7s.8,0,1.3-.3c.4-.2.8-.5,1.1-1,.3-.4.4-1,.4-1.7h0Z"/>
  <path class="cls-1" d="M66.2,65.4v6.6h-1.7v-10.9h1.6v1.7h0c.3-.6.6-1,1.2-1.3.5-.3,1.2-.5,2-.5s1.4.2,1.9.5c.6.3,1,.8,1.3,1.4.3.6.5,1.4.5,2.3v6.9h-1.7v-6.8c0-.9-.2-1.5-.7-2-.4-.5-1.1-.7-1.8-.7s-1,0-1.4.3-.7.6-1,1c-.2.4-.4,1-.4,1.6h0Z"/>
  <path class="cls-1" d="M80.2,61.1v1.4h-5.7v-1.4h5.7ZM76.2,58.5h1.7v10.4c0,.5,0,.8.2,1.1,0,.2.3.4.5.5.2,0,.5,0,.7,0h.8l.3,1.5c-.1,0-.3,0-.5,0h-.8c-.5,0-.9,0-1.4-.3-.5-.2-.8-.5-1.1-.9-.3-.4-.4-.9-.4-1.6,0,0,0-10.9,0-10.9Z"/>
  <path class="cls-1" d="M96.5,57.5h1.8v9.6c0,1-.2,1.9-.7,2.7-.5.8-1.1,1.4-2,1.8-.8.4-1.8.7-3,.7s-2.1-.2-3-.7c-.8-.4-1.5-1.1-2-1.8-.5-.8-.7-1.7-.7-2.7v-9.6h1.8v9.5c0,.7.2,1.3.5,1.9.3.5.8,1,1.3,1.3.6.3,1.3.5,2.1.5s1.5-.2,2.1-.5,1-.8,1.3-1.3c.3-.6.5-1.2.5-1.9v-9.5h0Z"/>
  <path class="cls-1" d="M105.5,61.1v1.4h-5.7v-1.4h5.7ZM101.5,58.5h1.7v10.4c0,.5,0,.8.2,1.1.1.2.3.4.5.5.2,0,.5,0,.7,0h.8l.3,1.5c-.1,0-.3,0-.5,0h-.8c-.5,0-.9,0-1.4-.3-.4-.2-.8-.5-1.1-.9s-.4-.9-.4-1.6c0,0,0-10.9,0-10.9Z"/>
  <path class="cls-1" d="M112.3,72v-14.5h1.8v13h6.8v1.6h-8.6Z"/>
  <path class="cls-1" d="M125.7,72.3c-.7,0-1.3,0-1.9-.4-.6-.3-1-.6-1.3-1.1s-.5-1.1-.5-1.8.1-1.1.4-1.5c.2-.4.6-.7,1-.9.4-.2.9-.4,1.4-.5s1-.2,1.5-.3c.7,0,1.2,0,1.6-.2.4,0,.7,0,.9-.2s.3-.3.3-.6h0c0-.8-.2-1.3-.6-1.7-.4-.4-1-.6-1.7-.6s-1.4.2-1.9.5c-.5.4-.8.7-1,1.1l-1.6-.6c.3-.7.7-1.2,1.1-1.5.5-.4,1-.6,1.6-.8s1.1-.2,1.7-.2.8,0,1.2,0c.5,0,.9.2,1.3.5.4.3.8.6,1.1,1.2.3.5.4,1.2.4,2.1v7.2h-1.7v-1.5h0c-.1.2-.3.5-.6.8s-.6.5-1.1.7c-.4.2-1,.3-1.6.3h0ZM126,70.8c.7,0,1.2,0,1.7-.4s.8-.6,1-1,.4-.8.4-1.3v-1.5s-.2.2-.5.2-.5,0-.8.2c-.3,0-.6,0-.9,0h-.7c-.4,0-.8,0-1.2.3-.4,0-.7.3-.9.6-.2.2-.3.6-.3,1s.2,1,.6,1.3c.4.3,1,.4,1.7.4h-.1Z"/>
  <path class="cls-1" d="M137.4,72.2c-1,0-1.8-.2-2.6-.7-.7-.5-1.3-1.1-1.7-2-.4-.8-.6-1.8-.6-3s.2-2.1.6-3c.4-.8,1-1.5,1.7-2s1.6-.7,2.6-.7,1.8.2,2.6.7c.7.5,1.3,1.1,1.7,2,.4.8.6,1.8.6,3s-.2,2.1-.6,3c-.4.8-1,1.5-1.7,2s-1.6.7-2.6.7ZM137.4,70.7c.7,0,1.4-.2,1.8-.6.5-.4.8-.9,1.1-1.5.2-.6.3-1.3.3-2s-.1-1.4-.3-2-.6-1.1-1.1-1.5-1.1-.6-1.8-.6-1.4.2-1.8.6c-.5.4-.8.9-1.1,1.5-.2.6-.3,1.3-.3,2s.1,1.4.3,2,.6,1.1,1.1,1.5,1.1.6,1.8.6Z"/>
  <path class="cls-1" d="M144.1,72v-10.9h1.6v1.6h.1c.2-.5.6-1,1.1-1.3s1.1-.5,1.8-.5.3,0,.5,0h.4v1.7h-1c-.5,0-1,0-1.4.3s-.7.5-1,.9c-.2.4-.4.8-.4,1.3v6.9h-1.7Z"/>
  <path class="cls-1" d="M155,72.2c-1.1,0-2-.2-2.7-.7-.8-.5-1.3-1.1-1.8-2-.4-.8-.6-1.8-.6-2.9s.2-2.1.6-3c.4-.9,1-1.5,1.7-2s1.6-.7,2.6-.7,1.1,0,1.7.3c.6.2,1.1.5,1.5.9.5.4.8,1,1.1,1.7s.4,1.6.4,2.6v.7h-8.4v-1.4h6.7c0-.6-.1-1.2-.4-1.6-.2-.5-.6-.9-1-1.1-.4-.3-1-.4-1.6-.4s-1.2.2-1.7.5-.9.8-1.1,1.3c-.3.5-.4,1.1-.4,1.7v1c0,.8.1,1.5.4,2.1.3.6.7,1,1.2,1.3s1.1.4,1.8.4.8,0,1.2-.2c.4,0,.7-.3.9-.6.3-.3.5-.6.6-1l1.6.5c-.2.5-.5,1-.9,1.4s-.9.7-1.5,1c-.6.2-1.3.3-2,.3h0Z"/>
  <path class="cls-1" d="M165.9,72.2c-1.1,0-2-.2-2.7-.7-.8-.5-1.3-1.1-1.8-2-.4-.8-.6-1.8-.6-2.9s.2-2.1.6-3c.4-.9,1-1.5,1.7-2s1.6-.7,2.6-.7,1.1,0,1.7.3,1.1.5,1.5.9c.5.4.8,1,1.1,1.7s.4,1.6.4,2.6v.7h-8.4v-1.4h6.7c0-.6-.1-1.2-.4-1.6-.2-.5-.6-.9-1-1.1-.4-.3-1-.4-1.6-.4s-1.2.2-1.7.5-.9.8-1.1,1.3c-.3.5-.4,1.1-.4,1.7v1c0,.8.1,1.5.4,2.1.3.6.7,1,1.2,1.3s1.1.4,1.8.4.8,0,1.2-.2c.4,0,.7-.3.9-.6.3-.3.5-.6.6-1l1.6.5c-.2.5-.5,1-.9,1.4s-.9.7-1.5,1c-.6.2-1.3.3-2,.3h0Z"/>
  <path class="cls-1" d="M176.9,61.1v1.4h-5.7v-1.4h5.7ZM172.9,58.5h1.7v10.4c0,.5,0,.8.2,1.1.1.2.3.4.5.5.2,0,.5,0,.7,0h.8l.3,1.5c-.1,0-.3,0-.5,0h-.8c-.5,0-.9,0-1.4-.3-.4-.2-.8-.5-1.1-.9s-.4-.9-.4-1.6c0,0,0-10.9,0-10.9Z"/>
  <path class="cls-1" d="M188.1,72h-4.5v-14.5h4.7c1.4,0,2.6.3,3.6.9,1,.6,1.8,1.4,2.3,2.5s.8,2.4.8,3.9-.3,2.8-.8,3.9-1.3,1.9-2.4,2.5c-1,.6-2.3.9-3.8.9h0ZM185.4,70.4h2.6c1.2,0,2.2-.2,3-.7s1.4-1.1,1.8-2c.4-.9.6-1.9.6-3.1s-.2-2.2-.6-3c-.4-.9-1-1.5-1.7-2-.8-.5-1.7-.7-2.8-.7h-2.8v11.4h-.1Z"/>
  <path class="cls-1" d="M201.4,72.2c-1,0-1.8-.2-2.6-.7-.7-.5-1.3-1.1-1.7-2-.4-.8-.6-1.8-.6-3s.2-2.1.6-3c.4-.8,1-1.5,1.7-2s1.6-.7,2.6-.7,1.8.2,2.6.7c.7.5,1.3,1.1,1.7,2,.4.8.6,1.8.6,3s-.2,2.1-.6,3c-.4.8-1,1.5-1.7,2s-1.6.7-2.6.7ZM201.4,70.7c.7,0,1.4-.2,1.8-.6.5-.4.8-.9,1.1-1.5.2-.6.3-1.3.3-2s-.1-1.4-.3-2-.6-1.1-1.1-1.5-1.1-.6-1.8-.6-1.4.2-1.8.6c-.5.4-.8.9-1.1,1.5-.2.6-.3,1.3-.3,2s.1,1.4.3,2,.6,1.1,1.1,1.5,1.1.6,1.8.6Z"/>
  <path class="cls-1" d="M209.8,57.5v14.5h-1.7v-14.5h1.7Z"/>
  <path class="cls-1" d="M216.5,72.2c-1,0-1.8-.2-2.6-.7-.7-.5-1.3-1.1-1.7-2-.4-.8-.6-1.8-.6-3s.2-2.1.6-3c.4-.8,1-1.5,1.7-2s1.6-.7,2.6-.7,1.8.2,2.6.7c.7.5,1.3,1.1,1.7,2,.4.8.6,1.8.6,3s-.2,2.1-.6,3c-.4.8-1,1.5-1.7,2s-1.6.7-2.6.7ZM216.5,70.7c.7,0,1.4-.2,1.8-.6.5-.4.8-.9,1.1-1.5s.3-1.3.3-2-.1-1.4-.3-2c-.2-.6-.6-1.1-1.1-1.5s-1.1-.6-1.8-.6-1.4.2-1.8.6c-.5.4-.8.9-1.1,1.5-.2.6-.3,1.3-.3,2s.1,1.4.3,2c.2.6.6,1.1,1.1,1.5s1.1.6,1.8.6Z"/>
  <path class="cls-1" d="M223.2,72v-10.9h1.6v1.6h.1c.2-.5.6-1,1.1-1.3s1.1-.5,1.8-.5.3,0,.5,0h.4v1.7h-1c-.5,0-1,0-1.4.3s-.7.5-1,.9c-.2.4-.4.8-.4,1.3v6.9h-1.7Z"/>
  <path class="cls-1" d="M234.1,72.2c-1.1,0-2-.2-2.7-.7-.8-.5-1.3-1.1-1.8-2-.4-.8-.6-1.8-.6-2.9s.2-2.1.6-3,1-1.5,1.7-2,1.6-.7,2.6-.7,1.1,0,1.7.3c.6.2,1.1.5,1.5.9.5.4.8,1,1.1,1.7.3.7.4,1.6.4,2.6v.7h-8.4v-1.4h6.7c0-.6-.1-1.2-.4-1.6-.2-.5-.6-.9-1-1.1-.4-.3-1-.4-1.6-.4s-1.2.2-1.7.5-.9.8-1.1,1.3c-.3.5-.4,1.1-.4,1.7v1c0,.8.1,1.5.4,2.1s.7,1,1.2,1.3,1.1.4,1.8.4.8,0,1.2-.2c.4,0,.7-.3.9-.6.3-.3.5-.6.6-1l1.6.5c-.2.5-.5,1-.9,1.4s-.9.7-1.5,1c-.6.2-1.3.3-2,.3h0Z"/>
  <path class="cls-1" d="M245.4,72v-14.5h8.8v1.6h-7v4.9h6.6v1.6h-6.6v4.9h7.1v1.6h-8.9Z"/>
  <path class="cls-1" d="M263.2,67.5v-6.4h1.7v10.9h-1.7v-1.8h-.1c-.3.6-.7,1-1.2,1.4s-1.2.6-2,.6-1.3,0-1.8-.4-.9-.8-1.2-1.4c-.3-.6-.5-1.4-.5-2.3v-6.9h1.7v6.8c0,.8.2,1.4.7,1.9s1,.7,1.7.7.8,0,1.3-.3c.4-.2.8-.5,1.1-1,.3-.4.4-1,.4-1.7h-.1Z"/>
  <path class="cls-1" d="M267.1,72v-10.9h1.7v10.9h-1.7ZM268,59.3c-.3,0-.6,0-.8-.3-.2-.2-.3-.5-.3-.8s.1-.6.3-.8c.2-.2.5-.3.8-.3s.6,0,.8.3c.2.2.4.5.4.8s-.1.6-.4.8c-.2.2-.5.3-.8.3Z"/>
  <path class="cls-1" d="M278.8,63.5l-1.5.4c0-.3-.2-.5-.4-.7-.2-.2-.4-.4-.7-.6-.3-.2-.7-.2-1.2-.2s-1.2.2-1.7.5c-.4.3-.7.7-.7,1.2s.2.7.5,1c.3.2.8.4,1.4.6l1.6.4c1,.2,1.7.6,2.2,1.1s.7,1.1.7,1.9-.2,1.2-.5,1.7c-.4.5-.9.9-1.5,1.2-.6.3-1.4.4-2.2.4s-2-.2-2.8-.7c-.7-.5-1.2-1.2-1.4-2.1l1.6-.4c.2.6.4,1,.9,1.3.4.3,1,.4,1.7.4s1.4-.2,1.9-.5.7-.7.7-1.2-.1-.7-.4-1-.7-.5-1.2-.6l-1.8-.4c-1-.2-1.7-.6-2.2-1.1s-.7-1.1-.7-1.9.2-1.2.5-1.6c.4-.5.8-.8,1.4-1.1s1.3-.4,2.1-.4,1.9.2,2.5.7,1.1,1.1,1.3,1.9v-.2Z"/>
  <path class="cls-1" d="M280.7,72v-10.9h1.6v1.7h.1c.2-.6.6-1,1.1-1.4.5-.3,1.1-.5,1.8-.5s1.3.2,1.8.5.9.8,1.1,1.4h.1c.3-.6.7-1,1.3-1.3.6-.3,1.2-.5,2-.5s1.8.3,2.4.9c.6.6.9,1.6.9,2.8v7.3h-1.7v-7.3c0-.8-.2-1.4-.7-1.7-.4-.3-1-.5-1.6-.5s-1.4.2-1.8.7-.6,1-.6,1.7v7.1h-1.7v-7.5c0-.6-.2-1.1-.6-1.5s-.9-.6-1.6-.6-.8,0-1.2.3c-.4.2-.7.6-.9,1-.2.4-.3.9-.3,1.4v6.8h-1.7.2Z"/>
  <path class="cls-1" d="M301.8,72.2c-1,0-1.8-.2-2.6-.7-.7-.5-1.3-1.1-1.7-2-.4-.8-.6-1.8-.6-3s.2-2.1.6-3c.4-.8,1-1.5,1.7-2s1.6-.7,2.6-.7,1.8.2,2.6.7c.7.5,1.3,1.1,1.7,2,.4.8.6,1.8.6,3s-.2,2.1-.6,3c-.4.8-1,1.5-1.7,2s-1.6.7-2.6.7ZM301.8,70.7c.7,0,1.4-.2,1.8-.6.5-.4.8-.9,1.1-1.5.2-.6.3-1.3.3-2s-.1-1.4-.3-2c-.2-.6-.6-1.1-1.1-1.5s-1.1-.6-1.8-.6-1.4.2-1.8.6c-.5.4-.8.9-1.1,1.5-.2.6-.3,1.3-.3,2s.1,1.4.3,2,.6,1.1,1.1,1.5,1.1.6,1.8.6Z"/>
  <path class="cls-1" d="M312.6,72.2c-.9,0-1.7-.2-2.4-.7-.7-.5-1.2-1.1-1.6-2-.4-.8-.6-1.8-.6-3s.2-2.1.6-3,.9-1.5,1.6-2,1.5-.7,2.4-.7,1.3,0,1.7.4c.4.2.7.5,1,.8.2.3.4.5.5.7h.1v-5.4h1.7v14.5h-1.6v-1.7h-.2c-.1.2-.3.4-.5.8-.2.3-.6.6-1,.8-.4.2-1,.3-1.7.3v.2ZM312.8,70.7c.7,0,1.2-.2,1.7-.5.5-.4.8-.8,1.1-1.5.2-.6.4-1.4.4-2.2s-.1-1.5-.4-2.1c-.2-.6-.6-1.1-1.1-1.4-.5-.3-1-.5-1.7-.5s-1.3.2-1.8.5c-.5.4-.8.8-1.1,1.5-.2.6-.3,1.3-.3,2.1s.1,1.5.4,2.1c.2.6.6,1.1,1.1,1.5s1.1.6,1.8.6h-.1Z"/>
  <path class="cls-1" d="M325.1,57.5h2.1l4.9,12.1h.2l4.9-12.1h2.1v14.5h-1.6v-11.1h-.1l-4.5,11.1h-1.6l-4.5-11.1h-.1v11.1h-1.6v-14.5h-.2Z"/>
  <path class="cls-1" d="M345.1,72.3c-.7,0-1.3,0-1.9-.4s-1-.6-1.3-1.1-.5-1.1-.5-1.8.1-1.1.4-1.5c.2-.4.6-.7,1-.9.4-.2.9-.4,1.4-.5s1-.2,1.5-.3c.7,0,1.2,0,1.6-.2.4,0,.7,0,.9-.2.2,0,.3-.3.3-.6h0c0-.8-.2-1.3-.6-1.7s-1-.6-1.7-.6-1.4.2-1.9.5c-.5.4-.8.7-1,1.1l-1.6-.6c.3-.7.7-1.2,1.1-1.5.5-.4,1-.6,1.6-.8s1.1-.2,1.7-.2.8,0,1.2,0c.5,0,.9.2,1.3.5s.8.6,1.1,1.2c.3.5.4,1.2.4,2.1v7.2h-1.7v-1.5h0c-.1.2-.3.5-.6.8-.3.3-.6.5-1.1.7-.4.2-1,.3-1.6.3h0ZM345.4,70.8c.7,0,1.2,0,1.7-.4s.8-.6,1-1,.4-.8.4-1.3v-1.5s-.2.2-.5.2-.5,0-.8.2c-.3,0-.6,0-.9,0h-.7c-.4,0-.8,0-1.2.3-.4,0-.7.3-.9.6-.2.2-.3.6-.3,1s.2,1,.6,1.3,1,.4,1.7.4h-.1Z"/>
  <path class="cls-1" d="M356.8,76.3c-.8,0-1.5,0-2.1-.3-.6-.2-1.1-.5-1.5-.8s-.7-.7-.9-1.1l1.3-.9c.2.2.3.4.6.7.2.3.5.5,1,.7.4.2.9.3,1.6.3s1.6-.2,2.2-.6.9-1.1.9-2v-2.2h-.1c-.1.2-.3.4-.5.7-.2.3-.5.5-1,.8-.4.2-1,.3-1.7.3s-1.7-.2-2.4-.6c-.7-.4-1.2-1-1.7-1.8-.4-.8-.6-1.8-.6-2.9s.2-2.1.6-2.9c.4-.8.9-1.5,1.6-1.9.7-.5,1.5-.7,2.4-.7s1.3,0,1.7.4c.4.2.7.5,1,.8.2.3.4.5.5.7h.2v-1.7h1.6v11.2c0,.9-.2,1.7-.6,2.3-.4.6-1,1-1.7,1.3s-1.5.4-2.4.4v-.2ZM356.7,70.3c.7,0,1.2-.2,1.7-.5s.8-.8,1.1-1.3c.2-.6.4-1.3.4-2.1s-.1-1.5-.4-2.1c-.2-.6-.6-1.1-1.1-1.4s-1-.5-1.7-.5-1.3.2-1.8.5c-.5.4-.8.8-1.1,1.4-.2.6-.3,1.3-.3,2s.1,1.4.4,2c.2.6.6,1,1.1,1.4.5.3,1.1.5,1.8.5h-.1Z"/>
  <path class="cls-1" d="M365.4,65.4v6.6h-1.7v-10.9h1.6v1.7h.1c.3-.6.6-1,1.2-1.3.5-.3,1.2-.5,2-.5s1.4.2,1.9.5c.6.3,1,.8,1.3,1.4.3.6.5,1.4.5,2.3v6.9h-1.7v-6.8c0-.9-.2-1.5-.7-2-.4-.5-1.1-.7-1.8-.7s-1,0-1.4.3-.7.6-1,1c-.2.4-.4,1-.4,1.6h.1Z"/>
  <path class="cls-1" d="M377.9,72.3c-.7,0-1.3,0-1.9-.4s-1-.6-1.3-1.1-.5-1.1-.5-1.8.1-1.1.4-1.5c.2-.4.6-.7,1-.9.4-.2.9-.4,1.4-.5s1-.2,1.5-.3c.7,0,1.2,0,1.6-.2.4,0,.7,0,.9-.2.2,0,.3-.3.3-.6h0c0-.8-.2-1.3-.6-1.7s-1-.6-1.7-.6-1.4.2-1.9.5c-.5.4-.8.7-1,1.1l-1.6-.6c.3-.7.7-1.2,1.1-1.5.5-.4,1-.6,1.6-.8s1.1-.2,1.7-.2.8,0,1.2,0c.5,0,.9.2,1.3.5s.8.6,1.1,1.2c.3.5.4,1.2.4,2.1v7.2h-1.7v-1.5h0c-.1.2-.3.5-.6.8-.3.3-.6.5-1.1.7-.4.2-1,.3-1.6.3h0ZM378.1,70.8c.7,0,1.2,0,1.7-.4s.8-.6,1-1,.4-.8.4-1.3v-1.5s-.2.2-.5.2-.5,0-.8.2c-.3,0-.6,0-.9,0h-.7c-.4,0-.8,0-1.2.3-.4,0-.7.3-.9.6-.2.2-.3.6-.3,1s.2,1,.6,1.3,1,.4,1.7.4h-.1Z"/>
  <path class="cls-1" d="M1.8,100H0l5.3-14.5h1.8l5.3,14.5h-1.8l-4.3-12.2h0l-4.3,12.2h-.1ZM2.4,94.3h7.4v1.6H2.4v-1.6Z"/>
  <path class="cls-1" d="M15.3,85.5v14.5h-1.7v-14.5h1.7Z"/>
  <path class="cls-1" d="M17.6,100v-10.9h1.7v10.9h-1.7ZM18.4,87.3c-.3,0-.6,0-.8-.3s-.3-.5-.3-.8,0-.6.3-.8.5-.3.8-.3.6,0,.8.3.4.5.4.8,0,.6-.4.8c-.2.2-.5.3-.8.3Z"/>
  <path class="cls-1" d="M29,104.1v-5.8h0c0,.2-.3.4-.5.8-.2.3-.6.6-1,.8-.4.2-1,.3-1.7.3s-1.7-.2-2.4-.7c-.7-.5-1.2-1.1-1.6-2-.4-.8-.6-1.8-.6-3s.2-2.1.6-3c.4-.8.9-1.5,1.6-2s1.5-.7,2.4-.7,1.3,0,1.7.4c.4.2.7.5,1,.8.2.3.4.5.5.7h.2v-1.7h1.6v15h-1.7ZM25.9,98.7c.7,0,1.2-.2,1.7-.5.5-.4.8-.8,1.1-1.5.2-.6.4-1.4.4-2.2s0-1.5-.4-2.1c-.2-.6-.6-1.1-1.1-1.4s-1-.5-1.7-.5-1.3.2-1.8.5c-.5.4-.8.8-1.1,1.5-.2.6-.3,1.3-.3,2.1s0,1.5.4,2.1c.2.6.6,1.1,1.1,1.5s1.1.6,1.8.6h0Z"/>
  <path class="cls-1" d="M39.8,95.5v-6.4h1.7v10.9h-1.7v-1.8h0c-.3.6-.7,1-1.2,1.4s-1.2.6-2,.6-1.3,0-1.8-.4-.9-.8-1.2-1.4c-.3-.6-.5-1.4-.5-2.3v-6.9h1.7v6.8c0,.8.2,1.4.7,1.9.4.5,1,.7,1.7.7s.8,0,1.3-.3c.4-.2.8-.5,1.1-1,.3-.4.4-1,.4-1.7h0Z"/>
  <path class="cls-1" d="M47,100.3c-.7,0-1.3,0-1.9-.4s-1-.6-1.3-1.1-.5-1.1-.5-1.8,0-1.1.4-1.5c.2-.4.6-.7,1-.9.4-.2.9-.4,1.4-.5s1-.2,1.5-.3c.7,0,1.2,0,1.6-.2.4,0,.7,0,.9-.2.2,0,.3-.3.3-.6h0c0-.8-.2-1.3-.6-1.7-.4-.4-1-.6-1.7-.6s-1.4.2-1.9.5c-.5.4-.8.7-1,1.1l-1.6-.6c.3-.7.7-1.2,1.1-1.5.5-.4,1-.6,1.6-.8.6-.2,1.1-.2,1.7-.2s.8,0,1.2,0c.5,0,.9.2,1.3.5s.8.6,1.1,1.2c.3.5.4,1.2.4,2.1v7.2h-1.7v-1.5h0c0,.2-.3.5-.6.8-.3.3-.6.5-1.1.7-.4.2-1,.3-1.6.3h0ZM47.2,98.8c.7,0,1.2,0,1.7-.4s.8-.6,1-1,.4-.8.4-1.3v-1.5s-.2.2-.5.2-.5,0-.8.2c-.3,0-.6,0-.9,0h-.7c-.4,0-.8,0-1.2.3-.4,0-.7.3-.9.6-.2.2-.3.6-.3,1s.2,1,.6,1.3,1,.4,1.7.4h0Z"/>
  <path class="cls-1" d="M54.2,100v-10.9h1.6v1.7h0c.2-.6.6-1,1.1-1.4.5-.3,1.1-.5,1.8-.5s1.3.2,1.8.5.9.8,1.1,1.4h0c.3-.6.7-1,1.3-1.3.6-.3,1.2-.5,2-.5s1.8.3,2.4.9.9,1.6.9,2.8v7.3h-1.7v-7.3c0-.8-.2-1.4-.7-1.7-.4-.3-1-.5-1.6-.5s-1.4.2-1.8.7-.6,1-.6,1.7v7.1h-1.7v-7.5c0-.6-.2-1.1-.6-1.5s-.9-.6-1.6-.6-.8,0-1.2.3c-.4.2-.7.6-.9,1-.2.4-.3.9-.3,1.4v6.8h-1.7.2Z"/>
  <path class="cls-1" d="M75.9,100v-14.5h8.8v1.6h-7v4.9h6.6v1.6h-6.6v4.9h7.1v1.6h-8.9Z"/>
  <path class="cls-1" d="M86.8,100v-10.9h1.6v1.6h.1c.2-.5.6-1,1.1-1.3s1.1-.5,1.8-.5.3,0,.5,0h.4v1.7h-1c-.5,0-1,0-1.4.3-.4.2-.7.5-1,.9-.2.4-.4.8-.4,1.3v6.9h-1.7Z"/>
  <path class="cls-1" d="M96.6,100.3c-.7,0-1.3,0-1.9-.4-.6-.3-1-.6-1.3-1.1s-.5-1.1-.5-1.8.1-1.1.4-1.5c.2-.4.6-.7,1-.9.4-.2.9-.4,1.4-.5s1-.2,1.5-.3c.7,0,1.2,0,1.6-.2.4,0,.7,0,.9-.2s.3-.3.3-.6h0c0-.8-.2-1.3-.6-1.7-.4-.4-1-.6-1.7-.6s-1.4.2-1.9.5c-.5.4-.8.7-1,1.1l-1.6-.6c.3-.7.7-1.2,1.1-1.5.5-.4,1-.6,1.6-.8.6-.2,1.1-.2,1.7-.2s.8,0,1.2,0c.5,0,.9.2,1.3.5.4.3.8.6,1.1,1.2s.4,1.2.4,2.1v7.2h-1.7v-1.5h0c-.1.2-.3.5-.6.8s-.6.5-1.1.7c-.4.2-1,.3-1.6.3h0ZM96.9,98.8c.7,0,1.2,0,1.7-.4s.8-.6,1-1,.4-.8.4-1.3v-1.5s-.2.2-.5.2-.5,0-.8.2c-.3,0-.6,0-.9,0h-.7c-.4,0-.8,0-1.2.3-.4,0-.7.3-.9.6-.2.2-.3.6-.3,1s.2,1,.6,1.3c.4.3,1,.4,1.7.4h-.1Z"/>
  <path class="cls-1" d="M108.6,89.1v1.4h-5.7v-1.4h5.7ZM104.6,86.5h1.7v10.4c0,.5,0,.8.2,1.1.1.2.3.4.5.5.2,0,.5,0,.7,0h.8l.3,1.5c-.1,0-.3,0-.5,0h-.8c-.5,0-.9,0-1.4-.3-.4-.2-.8-.5-1.1-.9s-.4-.9-.4-1.6c0,0,0-10.9,0-10.9Z"/>
  <path class="cls-1" d="M123.4,89.1c0-.7-.4-1.3-1-1.7-.6-.4-1.3-.6-2.2-.6s-1.2,0-1.7.3c-.5.2-.9.5-1.1.9-.3.4-.4.8-.4,1.2s0,.7.3,1c.2.3.4.5.7.7s.6.3.9.4c.3,0,.6.2.9.3l1.5.4c.4,0,.8.2,1.3.4.5.2.9.4,1.3.7.4.3.8.7,1.1,1.2s.4,1,.4,1.7-.2,1.5-.6,2.1c-.4.6-1,1.1-1.8,1.5s-1.7.6-2.8.6-1.9-.2-2.7-.5-1.4-.8-1.8-1.4c-.4-.6-.7-1.3-.7-2.1h1.8c0,.5.2,1,.6,1.4.3.4.7.6,1.2.8.5.2,1,.3,1.6.3s1.3,0,1.8-.3c.5-.2,1-.5,1.3-.9s.5-.9.5-1.4-.1-.9-.4-1.2c-.3-.3-.6-.5-1.1-.7-.4-.2-.9-.4-1.4-.5l-1.8-.5c-1.1-.3-2-.8-2.7-1.4s-1-1.4-1-2.4.2-1.5.7-2.1c.4-.6,1-1.1,1.8-1.4s1.6-.5,2.5-.5,1.8.2,2.5.5,1.3.8,1.7,1.4.7,1.2.7,2h-1.7l-.2-.2Z"/>
  <path class="cls-1" d="M131.7,100.2c-1.1,0-2-.2-2.7-.7-.8-.5-1.3-1.1-1.8-2-.4-.8-.6-1.8-.6-2.9s.2-2.1.6-3c.4-.9,1-1.5,1.7-2s1.6-.7,2.6-.7,1.1,0,1.7.3,1.1.5,1.5.9c.5.4.8,1,1.1,1.7s.4,1.6.4,2.6v.7h-8.4v-1.4h6.7c0-.6-.1-1.2-.4-1.6-.2-.5-.6-.9-1-1.1-.4-.3-1-.4-1.6-.4s-1.2.2-1.7.5-.9.8-1.1,1.3c-.3.5-.4,1.1-.4,1.7v1c0,.8.1,1.5.4,2.1.3.6.7,1,1.2,1.3s1.1.4,1.8.4.8,0,1.2-.2c.4,0,.7-.3.9-.6.3-.3.5-.6.6-1l1.6.5c-.2.5-.5,1-.9,1.4s-.9.7-1.5,1c-.6.2-1.3.3-2,.3h0Z"/>
  <path class="cls-1" d="M142.1,100.2c-.9,0-1.7-.2-2.4-.7s-1.2-1.1-1.6-2c-.4-.8-.6-1.8-.6-3s.2-2.1.6-3c.4-.8.9-1.5,1.6-2,.7-.5,1.5-.7,2.4-.7s1.3,0,1.7.4c.4.2.7.5,1,.8.2.3.4.5.5.7h.1v-5.4h1.7v14.5h-1.6v-1.7h-.2c-.1.2-.3.4-.5.8-.2.3-.6.6-1,.8-.4.2-1,.3-1.7.3v.2ZM142.3,98.7c.7,0,1.2-.2,1.7-.5.5-.4.8-.8,1.1-1.5.2-.6.4-1.4.4-2.2s-.1-1.5-.4-2.1c-.2-.6-.6-1.1-1.1-1.4s-1-.5-1.7-.5-1.3.2-1.8.5c-.5.4-.8.8-1.1,1.5-.2.6-.3,1.3-.3,2.1s.1,1.5.4,2.1c.2.6.6,1.1,1.1,1.5s1.1.6,1.8.6h0Z"/>
  <path class="cls-1" d="M159.1,100h-4.5v-14.5h4.7c1.4,0,2.6.3,3.6.9s1.8,1.4,2.3,2.5.8,2.4.8,3.9-.3,2.8-.8,3.9-1.3,1.9-2.4,2.5c-1,.6-2.3.9-3.8.9h0ZM156.4,98.4h2.6c1.2,0,2.2-.2,3-.7s1.4-1.1,1.8-2c.4-.9.6-1.9.6-3.1s-.2-2.2-.6-3c-.4-.9-1-1.5-1.7-2-.8-.5-1.7-.7-2.8-.7h-2.8v11.4h-.1Z"/>
  <path class="cls-1" d="M168,100v-10.9h1.7v10.9h-1.7ZM168.9,87.3c-.3,0-.6,0-.8-.3-.2-.2-.3-.5-.3-.8s.1-.6.3-.8c.2-.2.5-.3.8-.3s.6,0,.8.3c.2.2.4.5.4.8s-.1.6-.4.8c-.2.2-.5.3-.8.3Z"/>
  <path class="cls-1" d="M175.2,100.3c-.7,0-1.3,0-1.9-.4-.6-.3-1-.6-1.3-1.1s-.5-1.1-.5-1.8.1-1.1.4-1.5c.2-.4.6-.7,1-.9.4-.2.9-.4,1.4-.5s1-.2,1.5-.3c.7,0,1.2,0,1.6-.2.4,0,.7,0,.9-.2s.3-.3.3-.6h0c0-.8-.2-1.3-.6-1.7-.4-.4-1-.6-1.7-.6s-1.4.2-1.9.5c-.5.4-.8.7-1,1.1l-1.6-.6c.3-.7.7-1.2,1.1-1.5.5-.4,1-.6,1.6-.8.6-.2,1.1-.2,1.7-.2s.8,0,1.2,0c.5,0,.9.2,1.3.5.4.3.8.6,1.1,1.2.3.5.4,1.2.4,2.1v7.2h-1.7v-1.5h0c-.1.2-.3.5-.6.8s-.6.5-1.1.7c-.4.2-1,.3-1.6.3h0ZM175.4,98.8c.7,0,1.2,0,1.7-.4s.8-.6,1-1,.4-.8.4-1.3v-1.5s-.2.2-.5.2-.5,0-.8.2c-.3,0-.6,0-.9,0h-.7c-.4,0-.8,0-1.2.3-.4,0-.7.3-.9.6-.2.2-.3.6-.3,1s.2,1,.6,1.3c.4.3,1,.4,1.7.4h-.1Z"/>
  <path class="cls-1" d="M182.4,100v-10.9h1.6v1.7h.1c.2-.6.6-1,1.1-1.4.5-.3,1.1-.5,1.8-.5s1.3.2,1.8.5.9.8,1.1,1.4h.1c.3-.6.7-1,1.3-1.3s1.2-.5,2-.5,1.8.3,2.4.9c.6.6.9,1.6.9,2.8v7.3h-1.7v-7.3c0-.8-.2-1.4-.7-1.7-.4-.3-1-.5-1.6-.5s-1.4.2-1.8.7c-.4.5-.6,1-.6,1.7v7.1h-1.7v-7.5c0-.6-.2-1.1-.6-1.5-.4-.4-.9-.6-1.6-.6s-.8,0-1.2.3c-.4.2-.7.6-.9,1s-.3.9-.3,1.4v6.8h-1.7.2Z"/>
</svg>