<svg width="150" height="47" viewBox="0 0 150 47" fill="none" xmlns="http://www.w3.org/2000/svg">
<path d="M79.8934 4.79403C79.7868 3.89441 79.3548 3.19602 78.5972 2.69886C77.8396 2.2017 76.9104 1.95312 75.8096 1.95312C75.0046 1.95312 74.3003 2.08333 73.6966 2.34375C73.0989 2.60417 72.6313 2.96224 72.2939 3.41797C71.9625 3.8737 71.7968 4.39157 71.7968 4.97159C71.7968 5.45691 71.9122 5.87417 72.143 6.22337C72.3798 6.56664 72.6816 6.85369 73.0486 7.08451C73.4155 7.30942 73.8002 7.49586 74.2027 7.64382C74.6051 7.78587 74.9751 7.90127 75.3124 7.99005L77.159 8.48721C77.6325 8.6115 78.1592 8.78314 78.7393 9.00213C79.3252 9.22112 79.8845 9.52 80.4172 9.89879C80.9558 10.2717 81.3996 10.7511 81.7488 11.337C82.098 11.9229 82.2726 12.642 82.2726 13.4943C82.2726 14.4768 82.0152 15.3646 81.5003 16.1577C80.9913 16.9508 80.2455 17.5811 79.263 18.0486C78.2865 18.5162 77.0998 18.75 75.703 18.75C74.401 18.75 73.2735 18.5399 72.3206 18.1197C71.3736 17.6995 70.6279 17.1135 70.0834 16.3619C69.5448 15.6102 69.24 14.7372 69.1689 13.7429H71.4417C71.5009 14.4294 71.7317 14.9976 72.1341 15.4474C72.5425 15.8913 73.0574 16.2228 73.6789 16.4418C74.3063 16.6548 74.981 16.7614 75.703 16.7614C76.5435 16.7614 77.2981 16.6252 77.9669 16.353C78.6357 16.0748 79.1654 15.6901 79.556 15.1989C79.9466 14.7017 80.142 14.1217 80.142 13.4588C80.142 12.8551 79.9733 12.3639 79.6359 11.9851C79.2986 11.6063 78.8547 11.2985 78.3042 11.0618C77.7538 10.825 77.159 10.6179 76.5198 10.4403L74.2826 9.80113C72.8621 9.39275 71.7376 8.80978 70.909 8.0522C70.0804 7.29462 69.6661 6.30327 69.6661 5.07812C69.6661 4.06013 69.9413 3.17235 70.4917 2.41477C71.0481 1.65128 71.7938 1.05942 72.729 0.639198C73.67 0.213062 74.7205 0 75.8806 0C77.0525 0 78.0941 0.210108 79.0056 0.630325C79.917 1.04462 80.6391 1.6128 81.1718 2.33487C81.7104 3.05693 81.9945 3.87665 82.0241 4.79403H79.8934Z" fill="white"/>
<path d="M84.8926 0.248573H87.5204L93.6994 15.3409H93.9125L100.091 0.248573H102.719V18.4304H100.66V4.61648H100.482L94.8002 18.4304H92.8116L87.1298 4.61648H86.9522V18.4304H84.8926V0.248573Z" fill="white"/>
<path d="M106.88 18.4304H104.571L111.247 0.248573H113.52L120.196 18.4304H117.888L112.455 3.125H112.313L106.88 18.4304ZM107.732 11.3281H117.036V13.2812H107.732V11.3281Z" fill="white"/>
<path d="M122.028 18.4304V0.248573H128.172C129.592 0.248573 130.758 0.491241 131.67 0.976562C132.581 1.45597 133.256 2.11589 133.694 2.95632C134.132 3.79676 134.351 4.7526 134.351 5.82386C134.351 6.89512 134.132 7.84505 133.694 8.67365C133.256 9.50224 132.584 10.1533 131.679 10.6268C130.773 11.0943 129.616 11.3281 128.207 11.3281H123.236V9.33949H128.136C129.107 9.33949 129.888 9.19744 130.48 8.91335C131.078 8.62926 131.51 8.2268 131.776 7.70596C132.048 7.17921 132.185 6.55184 132.185 5.82386C132.185 5.09588 132.048 4.45963 131.776 3.91512C131.504 3.37062 131.069 2.9504 130.471 2.65447C129.873 2.35263 129.083 2.2017 128.101 2.2017H124.23V18.4304H122.028ZM130.587 10.2628L135.061 18.4304H132.504L128.101 10.2628H130.587Z" fill="white"/>
<path d="M136.025 2.2017V0.248573H149.662V2.2017H143.944V18.4304H141.743V2.2017H136.025Z" fill="white"/>
<path d="M0 28.2486H2.62784L8.80682 43.3409H9.01989L15.1989 28.2486H17.8267V46.4304H15.767V32.6165H15.5895L9.90767 46.4304H7.91903L2.23721 32.6165H2.05966V46.4304H0V28.2486Z" fill="white"/>
<path d="M36.5821 37.3395C36.5821 39.2571 36.2359 40.9143 35.5434 42.3111C34.8509 43.7079 33.901 44.785 32.6936 45.5426C31.4862 46.3002 30.1072 46.679 28.5565 46.679C27.0059 46.679 25.6269 46.3002 24.4195 45.5426C23.2121 44.785 22.2622 43.7079 21.5697 42.3111C20.8772 40.9143 20.531 39.2571 20.531 37.3395C20.531 35.4219 20.8772 33.7647 21.5697 32.3679C22.2622 30.9711 23.2121 29.8939 24.4195 29.1364C25.6269 28.3788 27.0059 28 28.5565 28C30.1072 28 31.4862 28.3788 32.6936 29.1364C33.901 29.8939 34.8509 30.9711 35.5434 32.3679C36.2359 33.7647 36.5821 35.4219 36.5821 37.3395ZM34.4514 37.3395C34.4514 35.7651 34.1881 34.4364 33.6613 33.3533C33.1405 32.2702 32.4332 31.4505 31.5395 30.8942C30.6517 30.3378 29.6574 30.0597 28.5565 30.0597C27.4557 30.0597 26.4584 30.3378 25.5647 30.8942C24.6769 31.4505 23.9697 32.2702 23.4429 33.3533C22.9221 34.4364 22.6617 35.7651 22.6617 37.3395C22.6617 38.9138 22.9221 40.2425 23.4429 41.3256C23.9697 42.4087 24.6769 43.2285 25.5647 43.7848C26.4584 44.3411 27.4557 44.6193 28.5565 44.6193C29.6574 44.6193 30.6517 44.3411 31.5395 43.7848C32.4332 43.2285 33.1405 42.4087 33.6613 41.3256C34.1881 40.2425 34.4514 38.9138 34.4514 37.3395Z" fill="white"/>
<path d="M53.7018 28.2486V46.4304H51.5711L41.6634 32.1548H41.4859V46.4304H39.2842V28.2486H41.4149L51.358 42.5597H51.5356V28.2486H53.7018Z" fill="white"/>
<path d="M59.3091 28.2486V46.4304H57.1074V28.2486H59.3091Z" fill="white"/>
<path d="M61.7293 30.2017V28.2486H75.3657V30.2017H69.6483V46.4304H67.4466V30.2017H61.7293Z" fill="white"/>
<path d="M92.3477 37.3395C92.3477 39.2571 92.0015 40.9143 91.309 42.3111C90.6166 43.7079 89.6666 44.785 88.4592 45.5426C87.2519 46.3002 85.8728 46.679 84.3222 46.679C82.7715 46.679 81.3925 46.3002 80.1851 45.5426C78.9777 44.785 78.0278 43.7079 77.3353 42.3111C76.6428 40.9143 76.2966 39.2571 76.2966 37.3395C76.2966 35.4219 76.6428 33.7647 77.3353 32.3679C78.0278 30.9711 78.9777 29.8939 80.1851 29.1364C81.3925 28.3788 82.7715 28 84.3222 28C85.8728 28 87.2519 28.3788 88.4592 29.1364C89.6666 29.8939 90.6166 30.9711 91.309 32.3679C92.0015 33.7647 92.3477 35.4219 92.3477 37.3395ZM90.2171 37.3395C90.2171 35.7651 89.9537 34.4364 89.4269 33.3533C88.9061 32.2702 88.1988 31.4505 87.3051 30.8942C86.4173 30.3378 85.423 30.0597 84.3222 30.0597C83.2213 30.0597 82.224 30.3378 81.3303 30.8942C80.4426 31.4505 79.7353 32.2702 79.2085 33.3533C78.6877 34.4364 78.4273 35.7651 78.4273 37.3395C78.4273 38.9138 78.6877 40.2425 79.2085 41.3256C79.7353 42.4087 80.4426 43.2285 81.3303 43.7848C82.224 44.3411 83.2213 44.6193 84.3222 44.6193C85.423 44.6193 86.4173 44.3411 87.3051 43.7848C88.1988 43.2285 88.9061 42.4087 89.4269 41.3256C89.9537 40.2425 90.2171 38.9138 90.2171 37.3395Z" fill="white"/>
<path d="M95.0498 46.4304V28.2486H101.193C102.614 28.2486 103.78 28.4912 104.691 28.9766C105.603 29.456 106.277 30.1159 106.715 30.9563C107.153 31.7968 107.372 32.7526 107.372 33.8239C107.372 34.8951 107.153 35.845 106.715 36.6736C106.277 37.5022 105.606 38.1533 104.7 38.6268C103.794 39.0943 102.637 39.3281 101.229 39.3281H96.2572V37.3395H101.158C102.128 37.3395 102.91 37.1974 103.502 36.9134C104.099 36.6293 104.531 36.2268 104.798 35.706C105.07 35.1792 105.206 34.5518 105.206 33.8239C105.206 33.0959 105.07 32.4596 104.798 31.9151C104.525 31.3706 104.09 30.9504 103.493 30.6545C102.895 30.3526 102.105 30.2017 101.122 30.2017H97.2515V46.4304H95.0498ZM103.608 38.2628L108.082 46.4304H105.526L101.122 38.2628H103.608Z" fill="white"/>
<path d="M112.243 28.2486V46.4304H110.041V28.2486H112.243Z" fill="white"/>
<path d="M130.075 28.2486V46.4304H127.944L118.036 32.1548H117.859V46.4304H115.657V28.2486H117.788L127.731 42.5597H127.909V28.2486H130.075Z" fill="white"/>
<path d="M145.909 33.9304C145.714 33.3326 145.457 32.797 145.137 32.3235C144.823 31.8441 144.448 31.4357 144.01 31.0984C143.578 30.761 143.086 30.5035 142.536 30.326C141.985 30.1484 141.382 30.0597 140.725 30.0597C139.648 30.0597 138.668 30.3378 137.786 30.8942C136.904 31.4505 136.203 32.2702 135.682 33.3533C135.161 34.4364 134.901 35.7651 134.901 37.3395C134.901 38.9138 135.164 40.2425 135.691 41.3256C136.218 42.4087 136.931 43.2285 137.831 43.7848C138.73 44.3411 139.742 44.6193 140.867 44.6193C141.909 44.6193 142.826 44.3974 143.619 43.9535C144.418 43.5037 145.039 42.8704 145.483 42.0536C145.933 41.2309 146.158 40.2633 146.158 39.1506L146.833 39.2926H141.364V37.3395H148.289V39.2926C148.289 40.79 147.969 42.0921 147.33 43.1989C146.697 44.3056 145.821 45.1638 144.702 45.7734C143.589 46.3771 142.311 46.679 140.867 46.679C139.257 46.679 137.842 46.3002 136.623 45.5426C135.41 44.785 134.463 43.7079 133.782 42.3111C133.108 40.9143 132.77 39.2571 132.77 37.3395C132.77 35.9013 132.963 34.6081 133.347 33.4599C133.738 32.3058 134.288 31.3233 134.999 30.5124C135.709 29.7016 136.549 29.0801 137.52 28.6481C138.491 28.216 139.559 28 140.725 28C141.684 28 142.577 28.145 143.406 28.435C144.24 28.7191 144.983 29.1245 145.634 29.6513C146.291 30.1721 146.839 30.7965 147.277 31.5245C147.715 32.2466 148.016 33.0485 148.182 33.9304H145.909Z" fill="white"/>
</svg>
