<svg width="145" height="19" viewBox="0 0 145 19" fill="none" xmlns="http://www.w3.org/2000/svg">
<path d="M6.17898 18.679C5.0071 18.679 3.96248 18.4777 3.0451 18.0753C2.13364 17.6728 1.40862 17.1135 0.870028 16.3974C0.337358 15.6753 0.0473484 14.8378 0 13.8849H2.23722C2.28456 14.4709 2.4858 14.9769 2.84091 15.4031C3.19602 15.8233 3.66063 16.1488 4.23473 16.3796C4.80883 16.6104 5.44508 16.7259 6.14347 16.7259C6.92472 16.7259 7.61719 16.5897 8.22088 16.3175C8.82457 16.0452 9.29806 15.6664 9.64134 15.1811C9.98461 14.6958 10.1562 14.1335 10.1562 13.4943C10.1562 12.8255 9.99053 12.2366 9.65909 11.7276C9.32765 11.2127 8.84233 10.8103 8.20312 10.5202C7.56392 10.2302 6.78267 10.0852 5.85938 10.0852H4.40341V8.1321H5.85938C6.58144 8.1321 7.21473 8.00189 7.75923 7.74148C8.30966 7.48106 8.73876 7.11411 9.04652 6.64062C9.3602 6.16714 9.51705 5.6108 9.51705 4.97159C9.51705 4.35606 9.38092 3.82043 9.10867 3.3647C8.83641 2.90897 8.4517 2.55386 7.95455 2.29936C7.4633 2.04486 6.88329 1.91761 6.21449 1.91761C5.58712 1.91761 4.99527 2.03303 4.43892 2.26385C3.88849 2.48876 3.43868 2.81724 3.08949 3.24929C2.74029 3.67543 2.5509 4.19034 2.52131 4.79403H0.390625C0.426136 3.84115 0.713187 3.00663 1.25178 2.29048C1.79036 1.56842 2.49467 1.00616 3.3647 0.603694C4.24065 0.201231 5.20242 0 6.25 0C7.37453 0 8.33925 0.227865 9.14418 0.683594C9.9491 1.1334 10.5676 1.72822 10.9996 2.46804C11.4317 3.20786 11.6477 4.00687 11.6477 4.86506C11.6477 5.88897 11.3784 6.76196 10.8398 7.48402C10.3072 8.20608 9.58215 8.7062 8.66477 8.98438V9.12642C9.81297 9.31581 10.7096 9.8041 11.3548 10.5913C11.9999 11.3725 12.3224 12.3402 12.3224 13.4943C12.3224 14.4827 12.0531 15.3705 11.5146 16.1577C10.9819 16.9389 10.2539 17.5545 9.33061 18.0043C8.40732 18.4541 7.35677 18.679 6.17898 18.679Z" fill="white"/>
<path d="M20.8839 18.4304H15.2731V0.24858H21.1325C22.8962 0.24858 24.4054 0.612571 25.6602 1.34055C26.9149 2.06262 27.8767 3.10133 28.5455 4.45668C29.2143 5.80611 29.5487 7.42187 29.5487 9.30398C29.5487 11.1979 29.2113 12.8285 28.5366 14.1957C27.8619 15.5569 26.8794 16.6045 25.5891 17.3384C24.2989 18.0664 22.7305 18.4304 20.8839 18.4304ZM17.4748 16.4773H20.7418C22.2451 16.4773 23.491 16.1873 24.4794 15.6072C25.4678 15.0272 26.2047 14.2016 26.69 13.1303C27.1753 12.0591 27.418 10.7836 27.418 9.30398C27.418 7.83617 27.1783 6.57256 26.6989 5.51314C26.2195 4.4478 25.5033 3.63104 24.5504 3.06285C23.5975 2.48875 22.4109 2.2017 20.9904 2.2017H17.4748V16.4773Z" fill="white"/>
<path d="M38.2731 18.4304V0.24858H44.4165C45.8429 0.24858 47.0089 0.506037 47.9144 1.02095C48.8259 1.52995 49.5006 2.21946 49.9386 3.08949C50.3765 3.95952 50.5955 4.93016 50.5955 6.00142C50.5955 7.07268 50.3765 8.04628 49.9386 8.92223C49.5065 9.79818 48.8377 10.4966 47.9322 11.0174C47.0266 11.5323 45.8666 11.7898 44.4521 11.7898H40.0486V9.83665H44.381C45.3576 9.83665 46.1418 9.66797 46.7337 9.33061C47.3255 8.99325 47.7546 8.53752 48.021 7.96342C48.2932 7.3834 48.4293 6.7294 48.4293 6.00142C48.4293 5.27344 48.2932 4.6224 48.021 4.0483C47.7546 3.4742 47.3226 3.02438 46.7248 2.69886C46.127 2.36742 45.3339 2.2017 44.3455 2.2017H40.4748V18.4304H38.2731Z" fill="white"/>
<path d="M53.1422 18.4304V0.24858H59.2857C60.7061 0.24858 61.8721 0.491241 62.7836 0.976562C63.695 1.45597 64.3697 2.11589 64.8077 2.95632C65.2457 3.79676 65.4647 4.7526 65.4647 5.82386C65.4647 6.89512 65.2457 7.84505 64.8077 8.67365C64.3697 9.50225 63.698 10.1533 62.7924 10.6268C61.8869 11.0943 60.7298 11.3281 59.3212 11.3281H54.3496V9.33949H59.2502C60.2208 9.33949 61.0021 9.19744 61.5939 8.91335C62.1917 8.62926 62.6238 8.2268 62.8901 7.70597C63.1623 7.17921 63.2985 6.55185 63.2985 5.82386C63.2985 5.09588 63.1623 4.45964 62.8901 3.91513C62.6178 3.37062 62.1828 2.9504 61.585 2.65447C60.9873 2.35263 60.1971 2.2017 59.2147 2.2017H55.3439V18.4304H53.1422ZM61.7005 10.2628L66.1749 18.4304H63.6181L59.2147 10.2628H61.7005Z" fill="white"/>
<path d="M70.3351 0.24858V18.4304H68.1334V0.24858H70.3351Z" fill="white"/>
<path d="M88.1673 0.24858V18.4304H86.0366L76.1289 4.15483H75.9513V18.4304H73.7496V0.24858H75.8803L85.8235 14.5597H86.0011V0.24858H88.1673Z" fill="white"/>
<path d="M90.5786 2.2017V0.24858H104.215V2.2017H98.4976V18.4304H96.2959V2.2017H90.5786Z" fill="white"/>
<path d="M108.815 0.24858V18.4304H106.613V0.24858H108.815Z" fill="white"/>
<path d="M126.647 0.24858V18.4304H124.516L114.608 4.15483H114.431V18.4304H112.229V0.24858H114.36L124.303 14.5597H124.481V0.24858H126.647Z" fill="white"/>
<path d="M142.481 5.9304C142.286 5.33262 142.029 4.79699 141.709 4.32351C141.395 3.84411 141.019 3.43572 140.581 3.09837C140.149 2.76101 139.658 2.50355 139.108 2.32599C138.557 2.14844 137.954 2.05966 137.297 2.05966C136.22 2.05966 135.24 2.33783 134.358 2.89418C133.476 3.45052 132.775 4.27024 132.254 5.35334C131.733 6.43644 131.473 7.76515 131.473 9.33949C131.473 10.9138 131.736 12.2425 132.263 13.3256C132.79 14.4087 133.503 15.2285 134.403 15.7848C135.302 16.3411 136.314 16.6193 137.439 16.6193C138.48 16.6193 139.398 16.3974 140.191 15.9535C140.99 15.5037 141.611 14.8704 142.055 14.0536C142.505 13.2309 142.73 12.2633 142.73 11.1506L143.405 11.2926H137.936V9.33949H144.861V11.2926C144.861 12.79 144.541 14.0921 143.902 15.1989C143.269 16.3056 142.393 17.1638 141.274 17.7734C140.161 18.3771 138.883 18.679 137.439 18.679C135.829 18.679 134.414 18.3002 133.195 17.5426C131.982 16.785 131.035 15.7079 130.354 14.3111C129.68 12.9143 129.342 11.2571 129.342 9.33949C129.342 7.90128 129.534 6.60807 129.919 5.45987C130.31 4.30575 130.86 3.32327 131.57 2.51243C132.281 1.70159 133.121 1.08014 134.092 0.648083C135.062 0.216028 136.131 0 137.297 0C138.255 0 139.149 0.145005 139.978 0.435014C140.812 0.719105 141.555 1.12453 142.206 1.65128C142.863 2.17211 143.411 2.79652 143.849 3.5245C144.287 4.24657 144.588 5.04853 144.754 5.9304H142.481Z" fill="white"/>
</svg>
