<svg width="684" height="99" viewBox="0 0 684 99" fill="none" xmlns="http://www.w3.org/2000/svg">
<path d="M656.869 60.9583V56.3542H683.682V60.9583H672.848V96.9792H667.702V60.9583H656.869Z" fill="white"/>
<path d="M637.427 97.7917C634.508 97.7917 631.755 97.25 629.167 96.1667C626.609 95.0532 624.352 93.5336 622.396 91.6076C620.47 89.6817 618.95 87.4398 617.837 84.8819C616.754 82.3241 616.212 79.5856 616.212 76.6667C616.212 73.7477 616.754 71.0092 617.837 68.4514C618.95 65.8935 620.47 63.6516 622.396 61.7257C624.352 59.7998 626.609 58.2951 629.167 57.2118C631.755 56.0984 634.508 55.5417 637.427 55.5417C640.376 55.5417 643.13 56.0984 645.688 57.2118C648.245 58.2951 650.487 59.7998 652.413 61.7257C654.369 63.6516 655.889 65.8935 656.972 68.4514C658.086 71.0092 658.642 73.7477 658.642 76.6667C658.642 79.5856 658.086 82.3241 656.972 84.8819C655.889 87.4398 654.369 89.6817 652.413 91.6076C650.487 93.5336 648.245 95.0532 645.688 96.1667C643.13 97.25 640.376 97.7917 637.427 97.7917ZM637.427 92.9167C640.406 92.9167 643.1 92.1944 645.507 90.75C647.914 89.2755 649.81 87.3044 651.195 84.8368C652.609 82.3692 653.316 79.6458 653.316 76.6667C653.316 73.6574 652.609 70.934 651.195 68.4965C649.81 66.0289 647.914 64.0729 645.507 62.6285C643.1 61.1539 640.406 60.4167 637.427 60.4167C634.448 60.4167 631.755 61.1539 629.347 62.6285C626.97 64.0729 625.074 66.0289 623.66 68.4965C622.245 70.934 621.538 73.6574 621.538 76.6667C621.538 79.6458 622.245 82.3692 623.66 84.8368C625.074 87.3044 626.97 89.2755 629.347 90.75C631.755 92.1944 634.448 92.9167 637.427 92.9167Z" fill="white"/>
<path d="M587.958 96.9792V56.3542H599.333C601.921 56.3542 603.967 56.8657 605.472 57.8889C607.007 58.912 608.105 60.1609 608.767 61.6354C609.429 63.0798 609.76 64.4491 609.76 65.743C609.76 67.2176 609.414 68.5717 608.722 69.8055C608.06 71.0092 607.157 72.0023 606.014 72.7847C608.21 73.7778 609.986 75.2674 611.34 77.2535C612.724 79.2396 613.416 81.4965 613.416 84.0243C613.416 86.1609 612.875 88.2222 611.791 90.2083C610.738 92.1944 609.158 93.8194 607.052 95.0833C604.975 96.3472 602.402 96.9792 599.333 96.9792H587.958ZM593.104 92.375H598.972C601.199 92.375 602.989 91.9386 604.343 91.066C605.698 90.1933 606.691 89.0949 607.323 87.7708C607.955 86.4467 608.271 85.1377 608.271 83.8437C608.271 82.5799 607.97 81.2859 607.368 79.9618C606.766 78.6377 605.788 77.5393 604.434 76.6667C603.08 75.7639 601.259 75.3125 598.972 75.3125H593.104V92.375ZM593.104 70.9792H598.927C600.702 70.9792 602.132 70.5579 603.215 69.7153C604.328 68.8426 604.885 67.6088 604.885 66.0139C604.885 64.3588 604.343 63.1099 603.26 62.2673C602.177 61.3947 600.792 60.9583 599.107 60.9583H593.104V70.9792Z" fill="white"/>
<path d="M560.933 97.7917C558.014 97.7917 555.26 97.25 552.672 96.1667C550.114 95.0532 547.858 93.5336 545.901 91.6076C543.976 89.6817 542.456 87.4398 541.342 84.8819C540.259 82.3241 539.717 79.5856 539.717 76.6667C539.717 73.7477 540.259 71.0092 541.342 68.4514C542.456 65.8935 543.976 63.6516 545.901 61.7257C547.858 59.7998 550.114 58.2951 552.672 57.2118C555.26 56.0984 558.014 55.5417 560.933 55.5417C563.882 55.5417 566.635 56.0984 569.193 57.2118C571.751 58.2951 573.993 59.7998 575.919 61.7257C577.875 63.6516 579.395 65.8935 580.478 68.4514C581.591 71.0092 582.148 73.7477 582.148 76.6667C582.148 79.5856 581.591 82.3241 580.478 84.8819C579.395 87.4398 577.875 89.6817 575.919 91.6076C573.993 93.5336 571.751 95.0532 569.193 96.1667C566.635 97.25 563.882 97.7917 560.933 97.7917ZM560.933 92.9167C563.912 92.9167 566.605 92.1944 569.013 90.75C571.42 89.2755 573.316 87.3044 574.7 84.8368C576.114 82.3692 576.822 79.6458 576.822 76.6667C576.822 73.6574 576.114 70.934 574.7 68.4965C573.316 66.0289 571.42 64.0729 569.013 62.6285C566.605 61.1539 563.912 60.4167 560.933 60.4167C557.954 60.4167 555.26 61.1539 552.853 62.6285C550.476 64.0729 548.58 66.0289 547.165 68.4965C545.751 70.934 545.044 73.6574 545.044 76.6667C545.044 79.6458 545.751 82.3692 547.165 84.8368C548.58 87.3044 550.476 89.2755 552.853 90.75C555.26 92.1944 557.954 92.9167 560.933 92.9167Z" fill="white"/>
<path d="M511.536 96.9792V56.3542H521.737C524.295 56.3542 526.492 56.8657 528.327 57.8889C530.163 58.912 531.577 60.2662 532.57 61.9514C533.594 63.6065 534.105 65.4271 534.105 67.4132C534.105 69.64 533.473 71.6412 532.209 73.4167C530.945 75.1921 529.215 76.5012 527.018 77.3437L540.65 96.9792H534.647L521.737 78.2917H516.681V96.9792H511.536ZM516.681 73.9583H521.737C523.482 73.9583 524.897 73.6424 525.98 73.0104C527.093 72.3484 527.906 71.5208 528.418 70.5278C528.959 69.5046 529.23 68.4664 529.23 67.4132C529.23 65.5174 528.538 63.9676 527.154 62.7639C525.8 61.5602 523.994 60.9583 521.737 60.9583H516.681V73.9583Z" fill="white"/>
<path d="M478.868 97.7917C475.919 97.7917 473.166 97.25 470.608 96.1667C468.05 95.0532 465.793 93.5336 463.837 91.6076C461.911 89.6516 460.407 87.4097 459.323 84.8819C458.24 82.3241 457.698 79.5856 457.698 76.6667C457.698 73.7477 458.24 71.0243 459.323 68.4965C460.437 65.9386 461.956 63.6967 463.882 61.7708C465.838 59.8148 468.095 58.2951 470.653 57.2118C473.211 56.0984 475.964 55.5417 478.913 55.5417C481.802 55.5417 484.511 56.0833 487.038 57.1667C489.566 58.2199 491.793 59.6794 493.719 61.5451L492.229 67.7743C490.845 65.5474 488.979 63.772 486.632 62.4479C484.315 61.0937 481.742 60.4167 478.913 60.4167C475.934 60.4167 473.241 61.1539 470.834 62.6285C468.456 64.0729 466.56 66.0289 465.146 68.4965C463.732 70.934 463.025 73.6574 463.025 76.6667C463.025 79.6157 463.717 82.3241 465.101 84.7917C466.515 87.2592 468.411 89.2303 470.788 90.7048C473.196 92.1794 475.889 92.9167 478.868 92.9167C480.554 92.9167 482.148 92.7211 483.653 92.3298C485.188 91.9086 486.587 91.3217 487.851 90.5694V79.9167H476.656V75.3125H492.816V93.1875C490.981 94.7222 488.844 95.8808 486.406 96.6632C483.999 97.4155 481.486 97.7917 478.868 97.7917Z" fill="white"/>
<path d="M451.902 98.3333L423.465 67.8646V96.9792H418.59V55L447.027 85.4688V56.3542H451.902V98.3333Z" fill="white"/>
<path d="M404.148 96.9792V56.3542H409.294V96.9792H404.148Z" fill="white"/>
<path d="M394.832 98.3333L366.394 67.8646V96.9792H361.519V55L389.957 85.4688V56.3542H394.832V98.3333Z" fill="white"/>
<path d="M323.126 96.9792L340.324 55H340.414L357.612 96.9792H352.15L347.366 84.9271H333.147L328.317 96.9792H323.126ZM334.862 80.6389H345.65L342.446 72.6042C342.054 71.581 341.678 70.5729 341.317 69.5799C340.956 68.5868 340.595 67.3981 340.234 66.0139C339.873 67.3981 339.527 68.5868 339.196 69.5799C338.865 70.5428 338.488 71.5509 338.067 72.6042L334.862 80.6389Z" fill="white"/>
<path d="M302.164 96.9792V56.3542H322.205V60.9583H307.31V69.625H319.046V74.2292H307.31V92.375H322.205V96.9792H302.164Z" fill="white"/>
<path d="M277.659 96.9792V56.3542H282.805V92.375H296.888V96.9792H277.659Z" fill="white"/>
<path d="M257.87 97.7917C254.951 97.7917 252.198 97.25 249.61 96.1667C247.052 95.0532 244.795 93.5336 242.839 91.6076C240.913 89.6817 239.393 87.4398 238.28 84.8819C237.197 82.3241 236.655 79.5856 236.655 76.6667C236.655 73.7477 237.197 71.0092 238.28 68.4514C239.393 65.8935 240.913 63.6516 242.839 61.7257C244.795 59.7998 247.052 58.2951 249.61 57.2118C252.198 56.0984 254.951 55.5417 257.87 55.5417C260.759 55.5417 263.468 56.0833 265.995 57.1667C268.523 58.2199 270.75 59.6794 272.676 61.5451L271.186 67.7743C269.802 65.5474 267.936 63.772 265.589 62.4479C263.272 61.0937 260.699 60.4167 257.87 60.4167C254.891 60.4167 252.198 61.1539 249.79 62.6285C247.413 64.0729 245.517 66.0289 244.103 68.4965C242.689 70.934 241.981 73.6574 241.981 76.6667C241.981 79.6458 242.689 82.3692 244.103 84.8368C245.517 87.3044 247.413 89.2755 249.79 90.75C252.198 92.1944 254.891 92.9167 257.87 92.9167C260.729 92.9167 263.317 92.2396 265.634 90.8854C267.951 89.5312 269.802 87.7558 271.186 85.559L272.676 91.7882C270.75 93.6238 268.523 95.0833 265.995 96.1667C263.468 97.25 260.759 97.7917 257.87 97.7917Z" fill="white"/>
<path d="M204.209 96.9792V56.3542H209.355V92.375H223.438V96.9792H204.209Z" fill="white"/>
<path d="M178.372 96.9792V56.3542H198.413V60.9583H183.518V69.625H195.254V74.2292H183.518V92.375H198.413V96.9792H178.372Z" fill="white"/>
<path d="M169.597 98.3333L141.159 67.8646V96.9792H136.284V55L164.722 85.4688V56.3542H169.597V98.3333Z" fill="white"/>
<path d="M97.891 96.9792L115.089 55H115.179L132.377 96.9792H126.915L122.131 84.9271H107.912L103.082 96.9792H97.891ZM109.627 80.6389H120.415L117.21 72.6042C116.819 71.581 116.443 70.5729 116.082 69.5799C115.721 68.5868 115.36 67.3981 114.999 66.0139C114.638 67.3981 114.291 68.5868 113.96 69.5799C113.629 70.5428 113.253 71.5509 112.832 72.6042L109.627 80.6389Z" fill="white"/>
<path d="M76.9285 96.9792V56.3542H86.9945C89.6727 56.3542 91.9297 56.7604 93.7653 57.5729C95.6311 58.3854 97.1357 59.4537 98.2792 60.7778C99.4227 62.0718 100.25 63.4861 100.762 65.0208C101.304 66.5555 101.574 68.0602 101.574 69.5347C101.574 70.9792 101.319 72.4687 100.807 74.0035C100.295 75.5382 99.4679 76.9676 98.3243 78.2917C97.1808 79.6157 95.6762 80.684 93.8105 81.4965C91.9447 82.309 89.6727 82.7153 86.9945 82.7153H82.0743V96.9792H76.9285ZM82.0743 78.1111H86.7236C89.1611 78.1111 91.0871 77.6898 92.5014 76.8472C93.9158 75.9745 94.9239 74.8912 95.5257 73.5972C96.1276 72.2731 96.4285 70.919 96.4285 69.5347C96.4285 68.2106 96.1276 66.8866 95.5257 65.5625C94.954 64.2384 93.9609 63.14 92.5466 62.2673C91.1623 61.3947 89.2213 60.9583 86.7236 60.9583H82.0743V78.1111Z" fill="white"/>
<path d="M45.9694 98.3333L29.6292 56.3542H35.0458L44.6153 80.8194C44.9162 81.6018 45.187 82.3542 45.4278 83.0764C45.6986 83.7685 45.9544 84.581 46.1951 85.5139C46.4359 84.581 46.6766 83.7685 46.9174 83.0764C47.1882 82.3542 47.4741 81.6018 47.775 80.8194L57.2993 56.3542H62.4L46.0597 98.3333H45.9694Z" fill="white"/>
<path d="M4.875 96.9792V56.3542H14.941C17.6192 56.3542 19.8762 56.7604 21.7118 57.5729C23.5775 58.3854 25.0822 59.4537 26.2257 60.7778C27.3692 62.0718 28.1968 63.4861 28.7083 65.0208C29.25 66.5555 29.5208 68.0602 29.5208 69.5347C29.5208 70.9792 29.265 72.4687 28.7535 74.0035C28.2419 75.5382 27.4144 76.9676 26.2708 78.2917C25.1273 79.6157 23.6227 80.684 21.7569 81.4965C19.8912 82.309 17.6192 82.7153 14.941 82.7153H10.0208V96.9792H4.875ZM10.0208 78.1111H14.6701C17.1076 78.1111 19.0336 77.6898 20.4479 76.8472C21.8623 75.9745 22.8704 74.8912 23.4722 73.5972C24.0741 72.2731 24.375 70.919 24.375 69.5347C24.375 68.2106 24.0741 66.8866 23.4722 65.5625C22.9005 64.2384 21.9074 63.14 20.4931 62.2673C19.1088 61.3947 17.1678 60.9583 14.6701 60.9583H10.0208V78.1111Z" fill="white"/>
<path d="M361.379 42.5208C358.972 42.5208 356.79 42.0393 354.834 41.0764C352.908 40.1134 351.374 38.9398 350.23 37.5556L351.72 31.3264C352.562 33.0116 353.826 34.5312 355.511 35.8854C357.197 37.2396 359.213 37.9167 361.56 37.9167C363.697 37.9167 365.457 37.2396 366.841 35.8854C368.256 34.5312 368.963 32.8611 368.963 30.875C368.963 29.4306 368.617 28.2419 367.925 27.309C367.232 26.3762 366.45 25.6389 365.577 25.0972C364.705 24.5556 364.013 24.1644 363.501 23.9236L358.536 21.3958C357.753 20.9745 356.775 20.3877 355.602 19.6354C354.458 18.8831 353.45 17.8449 352.577 16.5208C351.705 15.1968 351.268 13.4815 351.268 11.375C351.268 9.3287 351.735 7.5081 352.668 5.91319C353.631 4.31828 354.955 3.06944 356.64 2.16667C358.355 1.26389 360.311 0.8125 362.508 0.8125C364.675 0.8125 366.585 1.2037 368.241 1.98611C369.896 2.73843 371.19 3.52083 372.122 4.33333L370.633 10.5625C369.881 9.29861 368.767 8.10995 367.293 6.99652C365.818 5.8831 364.148 5.32639 362.282 5.32639C360.477 5.32639 359.032 5.86805 357.949 6.95139C356.866 8.00463 356.324 9.31366 356.324 10.8785C356.324 12.0822 356.595 13.0752 357.136 13.8576C357.708 14.64 358.34 15.2569 359.032 15.7083C359.754 16.1597 360.341 16.5058 360.793 16.7465L365.848 19.2743C366.45 19.5752 367.202 19.9965 368.105 20.5382C369.038 21.0799 369.956 21.8021 370.859 22.7049C371.761 23.5775 372.514 24.6609 373.116 25.9549C373.717 27.2187 374.018 28.7535 374.018 30.559C374.018 32.8762 373.462 34.9375 372.348 36.7431C371.265 38.5486 369.775 39.963 367.879 40.9861C365.984 42.0093 363.817 42.5208 361.379 42.5208Z" fill="white"/>
<path d="M331.472 42.5208C328.914 42.5208 326.643 41.9641 324.656 40.8507C322.67 39.7072 321.105 38.1423 319.962 36.1562C318.849 34.14 318.292 31.8229 318.292 29.2048V1.35416H323.438V29.0243C323.438 31.7025 324.205 33.8542 325.74 35.4792C327.274 37.1042 329.215 37.9167 331.563 37.9167C333.88 37.9167 335.806 37.1192 337.34 35.5243C338.905 33.8993 339.688 31.7928 339.688 29.2048V1.35416H344.653V29.0243C344.653 31.6724 344.081 34.0197 342.938 36.066C341.824 38.0822 340.274 39.662 338.288 40.8055C336.332 41.9491 334.06 42.5208 331.472 42.5208Z" fill="white"/>
<path d="M292.079 42.7917C289.16 42.7917 286.407 42.25 283.819 41.1667C281.261 40.0532 279.004 38.5336 277.048 36.6076C275.122 34.6817 273.602 32.4398 272.489 29.8819C271.405 27.3241 270.864 24.5856 270.864 21.6667C270.864 18.7477 271.405 16.0092 272.489 13.4514C273.602 10.8935 275.122 8.65161 277.048 6.72568C279.004 4.79976 281.261 3.29513 283.819 2.21179C286.407 1.09837 289.16 0.541656 292.079 0.541656C295.028 0.541656 297.782 1.09837 300.339 2.21179C302.897 3.29513 305.139 4.79976 307.065 6.72568C309.021 8.65161 310.541 10.8935 311.624 13.4514C312.738 16.0092 313.294 18.7477 313.294 21.6667C313.294 24.5856 312.738 27.3241 311.624 29.8819C310.541 32.4398 309.021 34.6817 307.065 36.6076C305.139 38.5336 302.897 40.0532 300.339 41.1667C297.782 42.25 295.028 42.7917 292.079 42.7917ZM292.079 37.9167C295.058 37.9167 297.752 37.1944 300.159 35.75C302.566 34.2755 304.462 32.3044 305.846 29.8368C307.261 27.3692 307.968 24.6458 307.968 21.6667C307.968 18.6574 307.261 15.934 305.846 13.4965C304.462 11.0289 302.566 9.0729 300.159 7.62846C297.752 6.15392 295.058 5.41666 292.079 5.41666C289.1 5.41666 286.407 6.15392 283.999 7.62846C281.622 9.0729 279.726 11.0289 278.312 13.4965C276.897 15.934 276.19 18.6574 276.19 21.6667C276.19 24.6458 276.897 27.3692 278.312 29.8368C279.726 32.3044 281.622 34.2755 283.999 35.75C286.407 37.1944 289.1 37.9167 292.079 37.9167Z" fill="white"/>
<path d="M227.693 41.9792V0L246.561 26L265.068 0V41.9792H259.922V23.2014C259.922 21.9676 259.937 20.6285 259.967 19.184C259.997 17.7095 260.103 16.0394 260.283 14.1736C259.35 15.8287 258.433 17.2882 257.53 18.5521C256.657 19.7859 255.86 20.9294 255.137 21.9826L246.38 34.3958L237.353 21.9826C236.6 20.9294 235.788 19.7859 234.915 18.5521C234.073 17.2882 233.17 15.8287 232.207 14.1736C232.387 16.0394 232.493 17.7095 232.523 19.184C232.553 20.6285 232.568 21.9676 232.568 23.2014V41.9792H227.693Z" fill="white"/>
<path d="M200.668 42.7917C197.749 42.7917 194.995 42.25 192.407 41.1667C189.849 40.0532 187.593 38.5336 185.637 36.6076C183.711 34.6817 182.191 32.4398 181.077 29.8819C179.994 27.3241 179.452 24.5856 179.452 21.6667C179.452 18.7477 179.994 16.0092 181.077 13.4514C182.191 10.8935 183.711 8.65161 185.637 6.72568C187.593 4.79976 189.849 3.29513 192.407 2.21179C194.995 1.09837 197.749 0.541656 200.668 0.541656C203.617 0.541656 206.37 1.09837 208.928 2.21179C211.486 3.29513 213.728 4.79976 215.654 6.72568C217.61 8.65161 219.13 10.8935 220.213 13.4514C221.326 16.0092 221.883 18.7477 221.883 21.6667C221.883 24.5856 221.326 27.3241 220.213 29.8819C219.13 32.4398 217.61 34.6817 215.654 36.6076C213.728 38.5336 211.486 40.0532 208.928 41.1667C206.37 42.25 203.617 42.7917 200.668 42.7917ZM200.668 37.9167C203.647 37.9167 206.34 37.1944 208.748 35.75C211.155 34.2755 213.051 32.3044 214.435 29.8368C215.849 27.3692 216.557 24.6458 216.557 21.6667C216.557 18.6574 215.849 15.934 214.435 13.4965C213.051 11.0289 211.155 9.0729 208.748 7.62846C206.34 6.15392 203.647 5.41666 200.668 5.41666C197.689 5.41666 194.995 6.15392 192.588 7.62846C190.211 9.0729 188.315 11.0289 186.9 13.4965C185.486 15.934 184.779 18.6574 184.779 21.6667C184.779 24.6458 185.486 27.3692 186.9 29.8368C188.315 32.3044 190.211 34.2755 192.588 35.75C194.995 37.1944 197.689 37.9167 200.668 37.9167Z" fill="white"/>
<path d="M173.657 43.3333L145.219 12.8646V41.9792H140.344V0L168.782 30.4688V1.35417H173.657V43.3333Z" fill="white"/>
<path d="M113.319 42.7917C110.4 42.7917 107.646 42.25 105.058 41.1667C102.501 40.0532 100.244 38.5336 98.2877 36.6076C96.3617 34.6817 94.8421 32.4398 93.7286 29.8819C92.6453 27.3241 92.1036 24.5856 92.1036 21.6667C92.1036 18.7477 92.6453 16.0092 93.7286 13.4514C94.8421 10.8935 96.3617 8.65161 98.2877 6.72568C100.244 4.79976 102.501 3.29513 105.058 2.21179C107.646 1.09837 110.4 0.541656 113.319 0.541656C116.268 0.541656 119.021 1.09837 121.579 2.21179C124.137 3.29513 126.379 4.79976 128.305 6.72568C130.261 8.65161 131.781 10.8935 132.864 13.4514C133.977 16.0092 134.534 18.7477 134.534 21.6667C134.534 24.5856 133.977 27.3241 132.864 29.8819C131.781 32.4398 130.261 34.6817 128.305 36.6076C126.379 38.5336 124.137 40.0532 121.579 41.1667C119.021 42.25 116.268 42.7917 113.319 42.7917ZM113.319 37.9167C116.298 37.9167 118.991 37.1944 121.399 35.75C123.806 34.2755 125.702 32.3044 127.086 29.8368C128.501 27.3692 129.208 24.6458 129.208 21.6667C129.208 18.6574 128.501 15.934 127.086 13.4965C125.702 11.0289 123.806 9.0729 121.399 7.62846C118.991 6.15392 116.298 5.41666 113.319 5.41666C110.34 5.41666 107.646 6.15392 105.239 7.62846C102.862 9.0729 100.966 11.0289 99.5516 13.4965C98.1372 15.934 97.43 18.6574 97.43 21.6667C97.43 24.6458 98.1372 27.3692 99.5516 29.8368C100.966 32.3044 102.862 34.2755 105.239 35.75C107.646 37.1944 110.34 37.9167 113.319 37.9167Z" fill="white"/>
<path d="M67.0575 5.95832V1.35416H93.87V5.95832H83.0367V41.9792H77.8908V5.95832H67.0575Z" fill="white"/>
<path d="M49.4282 42.5208C46.8703 42.5208 44.5984 41.9641 42.6122 40.8507C40.6261 39.7072 39.0613 38.1423 37.9178 36.1562C36.8044 34.14 36.2477 31.8229 36.2477 29.2048V1.35416H41.3935V29.0243C41.3935 31.7025 42.1609 33.8542 43.6956 35.4792C45.2303 37.1042 47.1713 37.9167 49.5185 37.9167C51.8356 37.9167 53.7615 37.1192 55.2963 35.5243C56.8611 33.8993 57.6435 31.7928 57.6435 29.2048V1.35416H62.6088V29.0243C62.6088 31.6724 62.037 34.0197 60.8935 36.066C59.7801 38.0822 58.2303 39.662 56.2442 40.8055C54.2882 41.9491 52.0162 42.5208 49.4282 42.5208Z" fill="white"/>
<path d="M0 41.9792L17.1979 0H17.2882L34.4861 41.9792H29.0243L24.2396 29.9271H10.0208L5.19097 41.9792H0ZM11.7361 25.6389H22.5243L19.3194 17.6042C18.9282 16.581 18.5521 15.5729 18.191 14.5799C17.8299 13.5868 17.4688 12.3982 17.1076 11.0139C16.7465 12.3982 16.4005 13.5868 16.0694 14.5799C15.7384 15.5428 15.3623 16.5509 14.941 17.6042L11.7361 25.6389Z" fill="white"/>
</svg>
